<svg width="82" height="79" fill="none" xmlns="http://www.w3.org/2000/svg"><path d="M73.405 22.97c0-1.235-1.051-2.236-2.347-2.236H53.847c-1.296 0-2.347 1.001-2.347 2.236 0 .402.12.773.314 1.1l-.01.017 4.39 8.57 6.258 1.49 6.26-1.49 4.37-8.57-.002-.001c.201-.33.325-.708.325-1.116Z" fill="url(#a)"/><path d="M42.894 49.051c-3.882 0-7.041-3.009-7.041-6.706 0-3.698 3.16-6.707 7.041-6.707 3.882 0 7.041 3.01 7.041 6.707s-3.159 6.706-7.041 6.706Zm0-10.432c-2.156 0-3.912 1.67-3.912 3.726 0 2.055 1.756 3.726 3.912 3.726 2.156 0 3.912-1.671 3.912-3.726 0-2.055-1.756-3.726-3.912-3.726Z" fill="url(#b)"/><path d="M71.872 8.976C57.508-4.706 31.816-2.5 14.605 13.909 2.698 25.251-2.559 41.258 1.195 54.716c1.018 3.636 3.912 6.394 7.73 7.377 3.802.969 7.73-.03 10.515-2.683l6.384-6.08c1.564-1.49 4.083-1.655 5.601-.343a3.598 3.598 0 0 1 1.299 2.668 3.593 3.593 0 0 1-1.142 2.742l-.188.179c-3.583 3.413-4.365 8.376-1.956 12.638 2.003 3.577 5.695 5.664 9.78 5.664.75 0 1.533-.075 2.315-.224 5.492-1.043 10.78-3.07 15.662-5.961a53.372 53.372 0 0 0 3.02-1.908c-.063-1.073-.14-2.28-.203-3.622a39.931 39.931 0 0 1-3.02 2.087c-4.991 3.19-10.483 5.41-16.07 6.483-4.349.835-7.416-1.595-8.73-3.934-1.314-2.326-1.737-6.126 1.408-9.122l.188-.178c1.361-1.297 2.112-3.086 2.065-4.919-.047-1.848-.876-3.562-2.331-4.814-1.299-1.117-2.942-1.654-4.616-1.654a7.62 7.62 0 0 0-5.288 2.116l-6.384 6.081c-1.988 1.878-4.788 2.593-7.495 1.908-2.723-.7-4.788-2.668-5.523-5.276C.742 41.51 5.686 26.622 16.81 16.01 32.818.779 56.523-1.442 69.666 11.076c6.321 6.022 9.294 14.546 8.355 24.01-.782 7.825-4.146 15.515-9.607 22.103a44.617 44.617 0 0 1-3.286 3.562c-.062 1.55-.14 3.01-.203 4.367a43.306 43.306 0 0 0 1.768-1.595c.516-.492 1.017-.999 1.518-1.505 7.4-7.66 11.97-17.05 12.924-26.663 1.017-10.344-2.269-19.718-9.263-26.38Z" fill="url(#c)"/><path d="M41.33 20.735c3.456 0 6.258-2.67 6.258-5.962s-2.802-5.961-6.259-5.961c-3.456 0-6.258 2.669-6.258 5.961 0 3.293 2.802 5.962 6.258 5.962Z" fill="url(#d)"/><path d="M22.553 28.186c3.457 0 6.259-2.669 6.259-5.961 0-3.293-2.802-5.962-6.259-5.962-3.456 0-6.258 2.67-6.258 5.962s2.802 5.961 6.258 5.961Z" fill="url(#e)"/><path d="M13.947 44.58c3.457 0 6.26-2.669 6.26-5.961 0-3.292-2.803-5.962-6.26-5.962-3.456 0-6.258 2.67-6.258 5.962s2.802 5.962 6.258 5.962Z" fill="url(#f)"/><path d="M68.711 41.6H56.194v-8.943h12.517V41.6Zm-9.388-2.981h6.26v-2.98h-6.26v2.98Z" fill="url(#g)"/><path d="M56.194 38.619v3.353c0 9.97.454 19.256.798 25.277.063.954.11 1.818.157 2.593.015.298.03.582.047.85.093 1.803.172 3.13.172 3.696 0 2.384 2.378 4.471 5.085 4.471s5.085-2.087 5.085-4.471c0-.224.047-1.014.125-2.295.14-2.236.344-5.768.548-10.075.062-1.52.14-3.13.203-4.83.172-4.65.297-9.88.297-15.216v-3.353H56.194Zm8.73 26.499c-.14 2.831-.296 5.171-.39 6.81-.079 1.372-.125 2.221-.125 2.46 0 .73-1.002 1.49-1.956 1.49-.955 0-1.956-.76-1.956-1.49 0-.745-.094-2.325-.235-4.71l-.047-.894c-.062-1.073-.14-2.28-.203-3.622-.329-5.946-.689-14.307-.689-23.19v-.373h6.26v.373c0 6.737-.204 13.31-.455 18.779-.062 1.55-.14 3.01-.203 4.367Z" fill="url(#h)"/><defs><linearGradient id="a" x1="62.452" y1="20.411" x2="62.452" y2="32.286" gradientUnits="userSpaceOnUse"><stop stop-color="#E884D7"/><stop offset="1" stop-color="#F6A575"/></linearGradient><linearGradient id="b" x1="42.894" y1="-1.233" x2="42.894" y2="77.558" gradientUnits="userSpaceOnUse"><stop stop-color="#E884D7"/><stop offset="1" stop-color="#F6A575"/></linearGradient><linearGradient id="c" x1="40.658" y1="-1.23" x2="40.658" y2="77.559" gradientUnits="userSpaceOnUse"><stop stop-color="#D56AC0"/><stop offset="1" stop-color="#F6A575"/></linearGradient><linearGradient id="d" x1="41.329" y1="7.288" x2="41.329" y2="22.116" gradientUnits="userSpaceOnUse"><stop stop-color="#E884D7"/><stop offset="1" stop-color="#F6A575"/></linearGradient><linearGradient id="e" x1="22.553" y1="15.744" x2="22.553" y2="28.448" gradientUnits="userSpaceOnUse"><stop stop-color="#E884D7"/><stop offset="1" stop-color="#F6A575"/></linearGradient><linearGradient id="f" x1="13.947" y1="32.464" x2="13.947" y2="45.355" gradientUnits="userSpaceOnUse"><stop stop-color="#E884D7"/><stop offset="1" stop-color="#F6A575"/></linearGradient><linearGradient id="g" x1="62.453" y1="-1.232" x2="62.453" y2="77.558" gradientUnits="userSpaceOnUse"><stop stop-color="#E884D7"/><stop offset="1" stop-color="#F6A575"/></linearGradient><linearGradient id="h" x1="62.453" y1="-1.233" x2="62.453" y2="77.558" gradientUnits="userSpaceOnUse"><stop stop-color="#E884DE"/><stop offset="1" stop-color="#F6A575"/></linearGradient></defs></svg>