<svg width="85" height="81" fill="none" xmlns="http://www.w3.org/2000/svg"><path d="M42.246 0C18.951 0 0 18.052 0 40.24c0 22.19 18.951 40.24 42.246 40.24s42.246-18.05 42.246-40.24C84.492 18.051 65.541 0 42.246 0Z" fill="url(#a)"/><path d="M43.811 3.018v33.625L68.76 12.879c-6.617-5.825-15.342-9.497-24.949-9.86Z" fill="url(#b)"/><path d="M40.68 3.018c-9.607.363-18.331 4.036-24.948 9.86L40.68 36.642V3.018Z" fill="url(#c)"/><path d="M13.52 14.985C7.407 21.288 3.55 29.6 3.17 38.75h35.299L13.52 14.985Z" fill="url(#d)"/><path d="M38.47 41.73H3.168c.38 9.152 4.237 17.462 10.35 23.765l24.95-23.764Z" fill="url(#e)"/><path d="M40.682 43.838 15.733 67.602c6.617 5.823 15.343 9.497 24.949 9.859V43.838Z" fill="url(#f)"/><path d="M43.811 43.838v33.625c9.607-.363 18.332-4.036 24.949-9.86L43.81 43.839Z" fill="url(#g)"/><path d="M81.323 41.73h-35.3l24.949 23.765c6.114-6.303 9.97-14.613 10.351-23.764Z" fill="url(#h)"/><path d="M70.972 14.985 46.022 38.75h35.301c-.381-9.15-4.237-17.46-10.351-23.764Z" fill="url(#i)"/><defs><linearGradient id="a" x1="42.246" y1="-.431" x2="42.246" y2="80.317" gradientUnits="userSpaceOnUse"><stop stop-color="#E884D7"/><stop offset="1" stop-color="#318AE4"/></linearGradient><linearGradient id="b" x1="56.347" y1="3.501" x2="56.347" y2="77.345" gradientUnits="userSpaceOnUse"><stop stop-color="#8AD2FF"/><stop offset="1" stop-color="#EBBCFF"/></linearGradient><linearGradient id="c" x1="28.266" y1="3.501" x2="28.266" y2="77.345" gradientUnits="userSpaceOnUse"><stop stop-color="#F0F9FF"/><stop offset="1" stop-color="#FCF6FF"/></linearGradient><linearGradient id="d" x1="20.882" y1="3.5" x2="20.882" y2="77.344" gradientUnits="userSpaceOnUse"><stop stop-color="#E2F4FF"/><stop offset="1" stop-color="#FAEEFF"/></linearGradient><linearGradient id="e" x1="20.882" y1="3.501" x2="20.882" y2="77.345" gradientUnits="userSpaceOnUse"><stop stop-color="#D3EEFF"/><stop offset="1" stop-color="#F7E6FF"/></linearGradient><linearGradient id="f" x1="28.268" y1="3.501" x2="28.268" y2="77.345" gradientUnits="userSpaceOnUse"><stop stop-color="#C5E9FF"/><stop offset="1" stop-color="#F5DDFF"/></linearGradient><linearGradient id="g" x1="56.347" y1="3.501" x2="56.347" y2="77.345" gradientUnits="userSpaceOnUse"><stop stop-color="#B6E3FF"/><stop offset="1" stop-color="#F2D5FF"/></linearGradient><linearGradient id="h" x1="63.735" y1="3.501" x2="63.735" y2="77.345" gradientUnits="userSpaceOnUse"><stop stop-color="#A7DDFF"/><stop offset="1" stop-color="#F0CDFF"/></linearGradient><linearGradient id="i" x1="63.735" y1="3.5" x2="63.735" y2="77.344" gradientUnits="userSpaceOnUse"><stop stop-color="#99D8FF"/><stop offset="1" stop-color="#EDC4FF"/></linearGradient></defs></svg>