<svg width="80" height="76" fill="none" xmlns="http://www.w3.org/2000/svg"><path d="M4.694 72.978h62.587v2.98H4.694v-2.98Z" fill="url(#a)"/><path d="m76.656 23.135-.887-.845 2.452-2.335c2.098-2 2.098-5.25 0-7.251L66.409 1.454c-2.034-1.937-5.578-1.94-7.612 0l-2.452 2.335-.887-.845c-2.034-1.936-5.578-1.94-7.612 0L11.031 38.006c-2.069 1.972-3.208 4.592-3.208 7.378v2.025L.247 70.038a1.46 1.46 0 0 0-.053.216c-.13.418-.194.825-.194 1.234 0 2.465 2.106 4.47 4.694 4.47.368 0 .745-.047 1.147-.148.075-.012.152-.03.227-.05l23.903-7.253h2.127c2.927 0 5.676-1.087 7.745-3.057l36.813-35.064c1.017-.969 1.577-2.256 1.577-3.626s-.56-2.658-1.577-3.625ZM5.28 72.871a3.16 3.16 0 0 0-.14.031 1.646 1.646 0 0 1-.445.076c-.862 0-1.565-.667-1.565-1.49 0-.148.033-.307.1-.49a1.3 1.3 0 0 0 .068-.255l6.801-20.317 16.706 15.912L5.28 72.871Zm26.82-7.345h-1.722L10.953 47.025v-1.641c0-1.99.813-3.862 2.29-5.27l.839-.798 24.385 23.23-.838.798c-1.476 1.406-3.44 2.182-5.53 2.182ZM74.444 28.28l-8.728 8.313-5.152-4.908-2.213 2.107 5.153 4.908-4.047 3.855-8.281-7.89-2.213 2.108 8.282 7.889-4.046 3.854-5.153-4.908-2.212 2.108 5.152 4.907-10.305 9.816-24.386-23.23L50.056 5.05c.85-.812 2.334-.812 3.187 0l21.2 20.194c.425.405.66.943.66 1.517s-.235 1.112-.66 1.519Z" fill="url(#b)"/><defs><linearGradient id="a" x1="35.988" y1="72.978" x2="35.988" y2="75.959" gradientUnits="userSpaceOnUse"><stop stop-color="#82C382"/><stop offset="1" stop-color="#4BB697"/></linearGradient><linearGradient id="b" x1="39.898" y1="3.242" x2="39.898" y2="75.987" gradientUnits="userSpaceOnUse"><stop stop-color="#82C382"/><stop offset="1" stop-color="#4AB698"/></linearGradient></defs></svg>