<svg width="76" height="78" fill="none" xmlns="http://www.w3.org/2000/svg"><path d="m72.812 13.594-11.98-11.41C59.377.795 57.36 0 55.3 0H7.823C3.51 0 0 3.343 0 7.452v62.596c0 4.11 3.51 7.452 7.823 7.452h59.458c4.314 0 7.823-3.343 7.823-7.452V18.864c0-1.962-.835-3.883-2.292-5.27ZM56.328 3.1v7.333c0 .822-.7 1.49-1.565 1.49h-1.852c.175-.468.288-.966.288-1.49V2.98H55.3c.347 0 .692.046 1.028.119Zm-37.552-.12h3.13v7.453c0 .524.112 1.022.287 1.49h-1.852c-.864 0-1.565-.668-1.565-1.49V2.98Zm6.259 7.453V2.98h25.034v7.452c0 .822-.7 1.49-1.564 1.49H26.599c-.863 0-1.564-.668-1.564-1.49ZM67.28 74.519H7.823c-2.588 0-4.694-2.006-4.694-4.47v-.04a7.993 7.993 0 0 0 4.694 1.53h59.458a7.993 7.993 0 0 0 4.694-1.53v.04c0 2.464-2.106 4.47-4.694 4.47Zm4.694-10.433c0 2.466-2.106 4.472-4.694 4.472H7.823c-2.588 0-4.694-2.006-4.694-4.472V7.453c0-2.465 2.106-4.471 4.694-4.471h7.824v7.452c0 2.465 2.106 4.47 4.694 4.47h34.422c2.588 0 4.694-2.005 4.694-4.47V5.088L70.6 15.701a4.396 4.396 0 0 1 1.376 3.163v45.223Z" fill="url(#a)"/><path d="M54.764 26.826H20.34c-2.588 0-4.694 2.007-4.694 4.472v26.827c0 2.465 2.106 4.47 4.694 4.47h34.422c2.588 0 4.695-2.005 4.695-4.47V31.298c0-2.465-2.107-4.471-4.694-4.471ZM20.34 29.807h34.422c.864 0 1.565.668 1.565 1.49v22.357H18.776V31.297c0-.823.701-1.49 1.565-1.49Zm34.422 29.808h-34.42c-.864 0-1.565-.668-1.565-1.49v-1.49h37.552v1.49c0 .822-.7 1.49-1.565 1.49Z" fill="url(#b)"/><path d="M17.212 19.375h40.681v2.98H17.212v-2.98Z" fill="url(#c)"/><defs><linearGradient id="a" x1="37.552" y1="-.745" x2="37.552" y2="78.046" gradientUnits="userSpaceOnUse"><stop stop-color="#FD657C"/><stop offset="1" stop-color="#FB945E"/></linearGradient><linearGradient id="b" x1="37.552" y1="-.746" x2="37.552" y2="78.045" gradientUnits="userSpaceOnUse"><stop stop-color="#FD637C"/><stop offset="1" stop-color="#FB935F"/></linearGradient><linearGradient id="c" x1="37.553" y1="-.745" x2="37.553" y2="78.046" gradientUnits="userSpaceOnUse"><stop stop-color="#FD637D"/><stop offset="1" stop-color="#FB955D"/></linearGradient></defs></svg>