<svg width="178" height="434" fill="none" xmlns="http://www.w3.org/2000/svg"><path d="M177.5 367.75c0 9.5-1.75 18.25-5.25 26.25-3.667 7.833-8.667 14.75-15 20.75-6.333 5.833-13.583 10.417-21.75 13.75-8.167 3.167-16.833 4.75-26 4.75-12.333 0-23.583-2.75-33.75-8.25-10.167-5.5-18.25-13.167-24.25-23s-9-21.167-9-34c0-12.167 2.833-22.917 8.5-32.25 5.5-9.333 13-16.25 22.5-20.75l5.25 16.5c-6.667 3.667-11.833 8.833-15.5 15.5-3.833 6.5-5.75 13.75-5.75 21.75 0 8.667 2.25 16.583 6.75 23.75 4.5 7.167 10.667 12.917 18.5 17.25 7.833 4.167 16.75 6.25 26.75 6.25 9.833 0 18.75-2.167 26.75-6.5s14.417-10.083 19.25-17.25c4.667-7.167 7-15.083 7-23.75 0-5.667-1-11.083-3-16.25-2-5.333-4.667-9.917-8-13.75-3.5-4-7.25-6.667-11.25-8l5-16.75C151.417 316.083 157 320 162 325.5c4.833 5.333 8.667 11.667 11.5 19 2.667 7.167 4 14.917 4 23.25Zm-40-70.207c-8.167 0-15.167-2.333-21-7-6-4.667-10.583-11.083-13.75-19.25-3.333-8.333-5-17.917-5-28.75 0-6.333.5-12.917 1.5-19.75s2.5-12.917 4.5-18.25h-11c-11 0-19.75 3.25-26.25 9.75s-9.75 15.5-9.75 27c0 7 1.333 13.917 4 20.75 2.5 6.667 6.25 13.667 11.25 21l-12 6.5c-5.833-8.5-10.167-16.833-13-25-3-8.167-4.5-16.5-4.5-25 0-16 4.583-28.667 13.75-38 9.167-9.333 21.833-14 38-14h60.25c2.333 0 4.083-.5 5.25-1.5 1-1 1.583-2.583 1.75-4.75H175c.167 1.833.333 3.417.5 4.75.167 1.333.167 2.333 0 3-.167 4.167-1.5 7.333-4 9.5s-5.167 3.333-8 3.5l-9.5.25c7.5 5.833 13.333 13.417 17.5 22.75 4 9.333 6 18.833 6 28.5 0 8.333-1.75 15.917-5.25 22.75-3.667 6.667-8.5 11.917-14.5 15.75-6.167 3.667-12.917 5.5-20.25 5.5Zm10-87.25c-2.333-1.833-4.583-3.25-6.75-4.25s-4.083-1.5-5.75-1.5h-19c-2.167 5.667-3.833 11.583-5 17.75a95.363 95.363 0 0 0-1.75 18.25c0 12.167 2.417 22 7.25 29.5s11.417 11.25 19.75 11.25c4.833 0 9.417-1.25 13.75-3.75 4.167-2.5 7.667-6.167 10.5-11 2.667-4.833 4-10.5 4-17 0-8.167-1.583-15.75-4.75-22.75-3.167-7.167-7.25-12.667-12.25-16.5ZM59.75 85.813c.333 11.333 3.5 21.333 9.5 29.999 6 8.5 14.25 14.5 24.75 18h81v17H44.75v-16H76c-9.167-4.5-16.583-10.416-22.25-17.75-5.667-7.5-8.833-15.416-9.5-23.75-.167-1.666-.25-3.083-.25-4.25 0-1.333.083-2.416.25-3.25h15.5Zm109-85.147c.5 1.333 1.417 3.417 2.75 6.25s2.5 6.25 3.5 10.25 1.5 8.333 1.5 13c0 4.833-.917 9.417-2.75 13.75-1.833 4.167-4.583 7.5-8.25 10-3.833 2.5-8.5 3.75-14 3.75H58.25v18h-13.5v-18h-44v-17h44v-30h13.5v30h88.5c4.667-.333 8.167-2 10.5-5 2.333-3.167 3.5-6.75 3.5-10.75 0-4.667-.75-8.917-2.25-12.75-1.667-3.833-2.833-6.167-3.5-7l13.75-4.5Z" fill="#fff" fill-opacity=".29"/></svg>