<svg width="142" height="535" fill="none" xmlns="http://www.w3.org/2000/svg"><path d="M30.5 40.15c0-6.5 1.7-12.35 5.1-17.55 3.4-5.1 7.6-9.15 12.6-12.15H.05V.25h110.1V9.4H95c4.9 3.1 8.85 7.25 11.85 12.45 3.1 5.2 4.65 10.75 4.65 16.65 0 5.4-1.15 10.35-3.45 14.85-2.2 4.5-5.2 8.4-9 11.7-3.8 3.3-8.15 5.85-13.05 7.65-4.8 1.9-9.8 2.85-15 2.85-7.3 0-14.05-1.5-20.25-4.5-6.1-2.9-11-7-14.7-12.3-3.7-5.3-5.55-11.5-5.55-18.6Zm9-2.85c0 4.3.85 8.15 2.55 11.55 1.8 3.4 4.2 6.3 7.2 8.7 3 2.5 6.35 4.4 10.05 5.7 3.8 1.3 7.7 1.95 11.7 1.95 4.2 0 8.2-.75 12-2.25 3.8-1.4 7.15-3.45 10.05-6.15 2.9-2.7 5.2-5.8 6.9-9.3 1.7-3.5 2.55-7.3 2.55-11.4 0-2.6-.5-5.3-1.5-8.1s-2.45-5.5-4.35-8.1c-1.8-2.5-3.85-4.6-6.15-6.3-2.3-1.7-4.75-2.75-7.35-3.15h-24c-3.7 1.6-7.05 3.75-10.05 6.45-2.9 2.7-5.25 5.8-7.05 9.3-1.7 3.6-2.55 7.3-2.55 11.1Zm61.65 94.528c-.2-6.8-2.1-12.8-5.7-18-3.6-5.1-8.55-8.7-14.85-10.8H32v-10.2h78.15v9.6H91.4c5.5 2.7 9.95 6.25 13.35 10.65 3.4 4.5 5.3 9.25 5.7 14.25.1 1 .15 1.85.15 2.55 0 .8-.05 1.45-.15 1.95h-9.3ZM30.5 176.226c0-5.6 1.05-10.8 3.15-15.6 2.2-4.7 5.15-8.8 8.85-12.3 3.8-3.4 8.1-6.05 12.9-7.95 4.9-1.9 10.05-2.85 15.45-2.85 5.6 0 10.8.95 15.6 2.85 4.9 1.9 9.2 4.6 12.9 8.1 3.8 3.5 6.75 7.6 8.85 12.3 2.2 4.8 3.3 10 3.3 15.6s-1.1 10.75-3.3 15.45c-2.1 4.7-5.05 8.8-8.85 12.3-3.7 3.5-8 6.2-12.9 8.1-4.8 1.9-10 2.85-15.6 2.85-5.4 0-10.55-.95-15.45-2.85-4.8-1.9-9.1-4.6-12.9-8.1-3.7-3.4-6.65-7.5-8.85-12.3-2.1-4.7-3.15-9.9-3.15-15.6Zm40.2-28.35c-5.8 0-11.1 1.25-15.9 3.75-4.7 2.6-8.45 6.05-11.25 10.35-2.7 4.3-4.05 9.05-4.05 14.25 0 5.2 1.4 9.95 4.2 14.25 2.8 4.3 6.6 7.75 11.4 10.35 4.9 2.6 10.2 3.9 15.9 3.9 5.8 0 11.1-1.3 15.9-3.9 4.8-2.6 8.6-6.05 11.4-10.35 2.8-4.3 4.2-9.05 4.2-14.25 0-5.2-1.45-9.95-4.35-14.25-2.9-4.2-6.75-7.6-11.55-10.2-4.7-2.6-10-3.9-15.9-3.9Zm.15 79.009c7.4 0 14.15 1.5 20.25 4.5 6.2 3.1 11.15 7.35 14.85 12.75 3.7 5.4 5.55 11.55 5.55 18.45 0 6.5-1.75 12.3-5.25 17.4-3.4 5.2-7.55 9.25-12.45 12.15h47.7v10.2H44.3c-1.4 0-2.45.3-3.15.9-.6.6-.95 1.5-1.05 2.7H32c-.3-2-.4-3.55-.3-4.65.1-2.1.95-3.95 2.55-5.55 1.6-1.6 3.35-2.4 5.25-2.4h7.65c-5.1-3.1-9.15-7.3-12.15-12.6s-4.5-10.8-4.5-16.5c0-5.4 1.1-10.4 3.3-15 2.2-4.5 5.2-8.45 9-11.85 3.8-3.3 8.1-5.9 12.9-7.8 4.9-1.8 9.95-2.7 15.15-2.7Zm-12 65.25H83c3.6-1.3 6.85-3.4 9.75-6.3 3-2.9 5.35-6.2 7.05-9.9 1.8-3.6 2.7-7.2 2.7-10.8 0-4.2-.9-8-2.7-11.4-1.7-3.4-4.05-6.35-7.05-8.85-3-2.4-6.4-4.25-10.2-5.55-3.8-1.3-7.7-1.95-11.7-1.95-4.2 0-8.2.7-12 2.1-3.8 1.5-7.2 3.6-10.2 6.3-2.9 2.7-5.15 5.8-6.75 9.3-1.6 3.5-2.4 7.3-2.4 11.4 0 2.6.5 5.3 1.5 8.1s2.35 5.45 4.05 7.95c1.8 2.6 3.9 4.75 6.3 6.45 2.4 1.7 4.9 2.75 7.5 3.15Zm5.4 32.56h45.9v10.2h-44.1c-8.9 0-15.55 1.5-19.95 4.5-4.4 3.1-6.6 7.65-6.6 13.65 0 4 .85 7.85 2.55 11.55 1.8 3.8 4.3 7.15 7.5 10.05 3.3 2.9 7.1 5.1 11.4 6.6h49.2v10.2H44.3c-1.4 0-2.45.3-3.15.9-.6.6-.95 1.5-1.05 2.7H32c-.1-1.2-.15-2.15-.15-2.85-.1-.7-.15-1.35-.15-1.95.2-2 1-3.75 2.4-5.25 1.4-1.4 3.1-2.15 5.1-2.25l10.5-.3c-6-3.4-10.7-8.05-14.1-13.95-3.4-5.8-5.1-12.1-5.1-18.9 0-8.2 2.85-14.4 8.55-18.6 5.7-4.2 14.1-6.3 25.2-6.3ZM30.5 448.408c0-5.7 1.05-10.95 3.15-15.75 2.2-4.7 5.2-8.85 9-12.45 3.8-3.5 8.15-6.25 13.05-8.25 4.9-1.9 10.1-2.85 15.6-2.85 7.4 0 14.15 1.65 20.25 4.95 6.1 3.3 10.95 7.9 14.55 13.8 3.6 5.9 5.4 12.7 5.4 20.4 0 7.3-1.7 13.75-5.1 19.35-3.3 5.6-7.8 9.75-13.5 12.45l-3.15-9.9c4-2.2 7.1-5.3 9.3-9.3 2.3-3.9 3.45-8.25 3.45-13.05 0-5.2-1.35-9.95-4.05-14.25-2.7-4.3-6.4-7.75-11.1-10.35-4.7-2.5-10.05-3.75-16.05-3.75-5.9 0-11.25 1.3-16.05 3.9-4.8 2.6-8.65 6.05-11.55 10.35-2.8 4.3-4.2 9.05-4.2 14.25 0 3.4.6 6.65 1.8 9.75 1.2 3.2 2.8 5.95 4.8 8.25 2.1 2.4 4.35 4 6.75 4.8l-3 10.05c-3.7-1.4-7.05-3.75-10.05-7.05-2.9-3.2-5.2-7-6.9-11.4-1.6-4.3-2.4-8.95-2.4-13.95Zm5.25 85.924c-.3-.8-.85-2.05-1.65-3.75-.8-1.7-1.5-3.75-2.1-6.15-.6-2.4-.9-5-.9-7.8 0-2.9.55-5.65 1.65-8.25 1.1-2.5 2.75-4.5 4.95-6 2.3-1.5 5.1-2.25 8.4-2.25h55.95v-10.8h8.1v10.8h26.4v10.2h-26.4v18h-8.1v-18h-53.1c-2.8.2-4.9 1.2-6.3 3-1.4 1.9-2.1 4.05-2.1 6.45 0 2.8.45 5.35 1.35 7.65 1 2.3 1.7 3.7 2.1 4.2l-8.25 2.7Z" fill="#A1B350" fill-opacity=".47"/></svg>