<svg width="237" height="552" fill="none" xmlns="http://www.w3.org/2000/svg"><path d="M185.5 498.5c0 10.667-1.75 20.583-5.25 29.75-3.5 9.167-8.833 17.083-16 23.75l-12-7c6.833-7.333 11.833-14.667 15-22 3-7.5 4.5-15.417 4.5-23.75 0-10.167-2-18.417-6-24.75-4.167-6.333-10.083-9.5-17.75-9.5-5.167 0-9.083 1.583-11.75 4.75-2.833 3-5.083 7.417-6.75 13.25-1.833 5.667-3.75 12.5-5.75 20.5-2.5 9-5.083 16.583-7.75 22.75-2.833 6-6.333 10.583-10.5 13.75-4.333 3-9.917 4.5-16.75 4.5-8.5 0-15.5-2.083-21-6.25-5.667-4.333-9.917-10.167-12.75-17.5-3-7.5-4.5-15.833-4.5-25 0-10 1.583-18.833 4.75-26.5 3.167-7.667 7.583-13.917 13.25-18.75l11.5 8.25c-5.333 4.667-9.25 10.25-11.75 16.75-2.667 6.333-4 13.417-4 21.25 0 5.333.75 10.417 2.25 15.25 1.333 4.833 3.667 8.833 7 12 3.167 3 7.583 4.5 13.25 4.5 4.667 0 8.333-1.167 11-3.5 2.5-2.333 4.667-5.833 6.5-10.5 1.667-4.667 3.5-10.417 5.5-17.25 2.667-9.833 5.417-18.417 8.25-25.75 2.667-7.333 6.167-13 10.5-17s10.417-6 18.25-6c12.167 0 21.667 4.583 28.5 13.75 6.833 9.167 10.25 21.25 10.25 36.25ZM183 310.9v17h-72.75c-14.667 0-25.667 2.584-33 7.75C69.75 340.817 66 348.234 66 357.9c0 6.334 1.667 12.667 5 19 3.167 6.167 7.583 11.667 13.25 16.5 5.5 4.667 11.833 8 19 10H183v17H.5v-17h81.75c-9.667-5.166-17.333-12.333-23-21.5-5.833-9.333-8.75-19.25-8.75-29.75 0-7.5 1.333-13.833 4-19 2.667-5.333 6.583-9.583 11.75-12.75 5-3.333 10.917-5.75 17.75-7.25 6.667-1.5 14.25-2.25 22.75-2.25H183Zm2.5-91.752c0 9.334-1.75 18-5.25 26-3.667 7.834-8.583 14.667-14.75 20.5-6.333 5.667-13.5 10.084-21.5 13.25-8.167 3.167-16.75 4.75-25.75 4.75-9.333 0-18-1.583-26-4.75-8.167-3.166-15.333-7.666-21.5-13.5-6.333-5.833-11.25-12.666-14.75-20.5-3.667-8-5.5-16.666-5.5-26 0-9.333 1.833-17.916 5.5-25.75 3.5-7.833 8.417-14.666 14.75-20.5 6.167-5.833 13.333-10.333 21.5-13.5 8-3.166 16.667-4.75 26-4.75 9 0 17.583 1.584 25.75 4.75a68.915 68.915 0 0 1 21.5 13.5c6.167 5.667 11.083 12.5 14.75 20.5 3.5 7.834 5.25 16.5 5.25 26Zm-67 47.25c9.667 0 18.5-2.083 26.5-6.25 7.833-4.333 14.083-10.083 18.75-17.25 4.5-7.166 6.75-15.083 6.75-23.75 0-8.666-2.333-16.583-7-23.75-4.667-7.166-11-12.916-19-17.25-8.167-4.333-17-6.5-26.5-6.5-9.667 0-18.5 2.167-26.5 6.5-8 4.334-14.333 10.084-19 17.25-4.667 7.167-7 15.084-7 23.75 0 8.667 2.417 16.584 7.25 23.75 4.833 7 11.25 12.667 19.25 17 7.833 4.334 16.667 6.5 26.5 6.5Zm67-206.931c0 10.833-2.833 20.583-8.5 29.25-5.667 8.5-12.667 15.25-21 20.25h80.25v17H52.75v-15.25H78c-8.167-5.167-14.75-12.084-19.75-20.75-5.167-8.667-7.75-17.917-7.75-27.75 0-9 1.917-17.25 5.75-24.75 3.667-7.5 8.667-14 15-19.5S84.833 8.217 93 5.217c8-3.167 16.333-4.75 25-4.75 12.167 0 23.417 2.5 33.75 7.5 10.167 4.833 18.333 11.667 24.5 20.5 6.167 8.833 9.25 19.166 9.25 31Zm-15 4.75c0-7.167-1.417-13.584-4.25-19.25-3-5.667-7-10.5-12-14.5a53.818 53.818 0 0 0-16.75-9.5 59.838 59.838 0 0 0-19.5-3.25c-7 0-13.667 1.25-20 3.75-6.333 2.333-11.917 5.75-16.75 10.25s-8.667 9.666-11.5 15.5c-2.833 5.833-4.25 12.166-4.25 19 0 4.333.833 8.833 2.5 13.5 1.667 4.666 4.083 9.166 7.25 13.5 3 4.166 6.417 7.666 10.25 10.5 3.833 2.833 7.917 4.583 12.25 5.25h40a61.17 61.17 0 0 0 16.75-10.75 56.07 56.07 0 0 0 11.75-15.5c2.833-6 4.25-12.167 4.25-18.5Z" fill="#fff" fill-opacity=".29"/></svg>