<svg version="1.2" xmlns="http://www.w3.org/2000/svg" viewBox="0 0 590 562" width="590" height="562">
	<title>2479134-ai</title>
	<defs>
		<linearGradient id="g1" x1="393.2" y1="212" x2="491.3" y2="212" gradientUnits="userSpaceOnUse">
			<stop offset="0" stop-color="#f7dc63"/>
			<stop offset="1" stop-color="#f0b721"/>
		</linearGradient>
		<linearGradient id="g2" x1="495.5" y1="330.7" x2="499" y2="421.9" gradientUnits="userSpaceOnUse">
			<stop offset="0" stop-color="#f0b721"/>
			<stop offset="1" stop-color="#f7dc63" stop-opacity="0"/>
		</linearGradient>
		<linearGradient id="g3" x1="347.6" y1="337.6" x2="439.2" y2="322.4" gradientUnits="userSpaceOnUse">
			<stop offset="0" stop-color="#10718f"/>
			<stop offset="1" stop-color="#05ace8" stop-opacity="0"/>
		</linearGradient>
		<linearGradient id="g4" x1="401.4" y1="328.8" x2="398.8" y2="420" gradientUnits="userSpaceOnUse">
			<stop offset="0" stop-color="#f0b721"/>
			<stop offset="1" stop-color="#f7dc63" stop-opacity="0"/>
		</linearGradient>
		<linearGradient id="g5" x1="371.5" y1="472.3" x2="294.9" y2="440.5" gradientUnits="userSpaceOnUse">
			<stop offset="0" stop-color="#10718f"/>
			<stop offset="1" stop-color="#05ace8" stop-opacity="0"/>
		</linearGradient>
		<linearGradient id="g6" x1="197.1" y1="-3.6" x2="393.5" y2="-3.6" gradientUnits="userSpaceOnUse">
			<stop offset="0" stop-color="#ccdc49"/>
			<stop offset="1" stop-color="#6fa041"/>
		</linearGradient>
		<linearGradient id="g7" x1="295.3" y1="53.3" x2="393.5" y2="53.3" gradientUnits="userSpaceOnUse">
			<stop offset="0" stop-color="#ccdc49"/>
			<stop offset="1" stop-color="#6fa041"/>
		</linearGradient>
		<linearGradient id="g8" x1="289.3" y1="280.9" x2="283.8" y2="177.7" gradientUnits="userSpaceOnUse">
			<stop offset="0" stop-color="#ccdc49" stop-opacity="0"/>
			<stop offset="1" stop-color="#6fa041"/>
		</linearGradient>
		<linearGradient id="g9" x1="196.9" y1="53.3" x2="295.6" y2="53.3" gradientUnits="userSpaceOnUse">
			<stop offset="0" stop-color="#ccdc49"/>
			<stop offset="1" stop-color="#6fa041"/>
		</linearGradient>
		<linearGradient id="g10" x1="309.5" y1="201.5" x2="418.3" y2="129" gradientUnits="userSpaceOnUse">
			<stop offset="0" stop-color="#fefefe"/>
			<stop offset="1" stop-color="#fefefe" stop-opacity="0"/>
		</linearGradient>
		<linearGradient id="g11" x1="197.5" y1="212" x2="295.6" y2="212" gradientUnits="userSpaceOnUse">
			<stop offset="0" stop-color="#ec82ab"/>
			<stop offset="1" stop-color="#b92e6a"/>
		</linearGradient>
		<linearGradient id="g12" x1="99" y1="212" x2="197.8" y2="212" gradientUnits="userSpaceOnUse">
			<stop offset="0" stop-color="#ec82ab"/>
			<stop offset="1" stop-color="#b92e6a"/>
		</linearGradient>
		<linearGradient id="g13" x1="307.8" y1="194.8" x2="300.8" y2="296.6" gradientUnits="userSpaceOnUse">
			<stop offset="0" stop-color="#6fa041"/>
			<stop offset="1" stop-color="#ccdc49" stop-opacity="0"/>
		</linearGradient>
		<linearGradient id="g14" x1="393" y1="314.3" x2="589.4" y2="314.3" gradientUnits="userSpaceOnUse">
			<stop offset="0" stop-color="#a54d9f"/>
			<stop offset="1" stop-color="#803092"/>
		</linearGradient>
		<linearGradient id="g15" x1="491.2" y1="371.2" x2="589.4" y2="371.2" gradientUnits="userSpaceOnUse">
			<stop offset="0" stop-color="#a54d9f"/>
			<stop offset="1" stop-color="#803092"/>
		</linearGradient>
		<linearGradient id="g16" x1="392.7" y1="371.2" x2="491.5" y2="371.2" gradientUnits="userSpaceOnUse">
			<stop offset="0" stop-color="#a54d9f"/>
			<stop offset="1" stop-color="#803092"/>
		</linearGradient>
		<linearGradient id="g17" x1="1" y1="313.9" x2="197.3" y2="313.9" gradientUnits="userSpaceOnUse">
			<stop offset="0" stop-color="#f3a251"/>
			<stop offset="1" stop-color="#d7722c"/>
		</linearGradient>
		<linearGradient id="g18" x1="99.2" y1="370.7" x2="197.3" y2="370.7" gradientUnits="userSpaceOnUse">
			<stop offset="0" stop-color="#f3a251"/>
			<stop offset="1" stop-color="#d7722c"/>
		</linearGradient>
		<linearGradient id="g19" x1=".7" y1="370.7" x2="99.4" y2="370.7" gradientUnits="userSpaceOnUse">
			<stop offset="0" stop-color="#f3a251"/>
			<stop offset="1" stop-color="#d7722c"/>
		</linearGradient>
		<linearGradient id="g20" x1="300.9" y1="335.6" x2="299.2" y2="426.9" gradientUnits="userSpaceOnUse">
			<stop offset="0" stop-color="#b92e6a"/>
			<stop offset="1" stop-color="#ec82ab" stop-opacity="0"/>
		</linearGradient>
		<linearGradient id="g21" x1="205.5" y1="236.7" x2="309" y2="191.5" gradientUnits="userSpaceOnUse">
			<stop offset="0" stop-color="#b92e6a"/>
			<stop offset="1" stop-color="#ec82ab" stop-opacity="0"/>
		</linearGradient>
		<linearGradient id="g22" x1="302.8" y1="172.8" x2="300" y2="291.3" gradientUnits="userSpaceOnUse">
			<stop offset="0" stop-color="#b92e6a"/>
			<stop offset="1" stop-color="#ec82ab" stop-opacity="0"/>
		</linearGradient>
		<linearGradient id="g23" x1="295" y1="155.2" x2="491.3" y2="155.2" gradientUnits="userSpaceOnUse">
			<stop offset="0" stop-color="#f7dc63"/>
			<stop offset="1" stop-color="#f0b721"/>
		</linearGradient>
		<linearGradient id="g24" x1="99.3" y1="155.2" x2="295.6" y2="155.2" gradientUnits="userSpaceOnUse">
			<stop offset="0" stop-color="#ec82ab"/>
			<stop offset="1" stop-color="#b92e6a"/>
		</linearGradient>
		<linearGradient id="g25" x1="196.7" y1="315.9" x2="393" y2="315.9" gradientUnits="userSpaceOnUse">
			<stop offset="0" stop-color="#05ace8"/>
			<stop offset="1" stop-color="#10718f"/>
		</linearGradient>
		<linearGradient id="g26" x1="196.4" y1="370.7" x2="295.2" y2="370.7" gradientUnits="userSpaceOnUse">
			<stop offset="0" stop-color="#05ace8"/>
			<stop offset="1" stop-color="#10718f"/>
		</linearGradient>
		<linearGradient id="g27" x1="294.9" y1="370.7" x2="393" y2="370.7" gradientUnits="userSpaceOnUse">
			<stop offset="0" stop-color="#05ace8"/>
			<stop offset="1" stop-color="#10718f"/>
		</linearGradient>
		<linearGradient id="g28" x1="294.7" y1="212" x2="393.5" y2="212" gradientUnits="userSpaceOnUse">
			<stop offset="0" stop-color="#f7dc63"/>
			<stop offset="1" stop-color="#f0b721"/>
		</linearGradient>
		<linearGradient id="g29" x1="197.5" y1="212" x2="295.6" y2="212" gradientUnits="userSpaceOnUse">
			<stop offset="0" stop-color="#ec82ab"/>
			<stop offset="1" stop-color="#b92e6a"/>
		</linearGradient>
	</defs>
	<style>
		.s0 { fill: url(#g1) } 
		.s1 { mix-blend-mode: color-dodge;fill: url(#g2) } 
		.s2 { mix-blend-mode: color-dodge;fill: url(#g3) } 
		.s3 { fill: url(#g4) } 
		.s4 { mix-blend-mode: color-dodge;fill: url(#g5) } 
		.s5 { opacity: .8;fill: url(#g6) } 
		.s6 { fill: url(#g7) } 
		.s7 { fill: url(#g8) } 
		.s8 { fill: url(#g9) } 
		.s9 { fill: url(#g10) } 
		.s10 { fill: url(#g11) } 
		.s11 { fill: url(#g12) } 
		.s12 { fill: url(#g13) } 
		.s13 { fill: #ffffff } 
		.s14 { opacity: .8;fill: url(#g14) } 
		.s15 { fill: url(#g15) } 
		.s16 { fill: url(#g16) } 
		.s17 { opacity: .8;fill: url(#g17) } 
		.s18 { fill: url(#g18) } 
		.s19 { fill: url(#g19) } 
		.s20 { fill: url(#g20) } 
		.s21 { mix-blend-mode: color-dodge;fill: url(#g21) } 
		.s22 { mix-blend-mode: color-dodge;fill: url(#g22) } 
		.s23 { opacity: .8;fill: url(#g23) } 
		.s24 { opacity: .8;fill: url(#g24) } 
		.s25 { opacity: .8;fill: url(#g25) } 
		.s26 { fill: url(#g26) } 
		.s27 { fill: url(#g27) } 
		.s28 { fill: url(#g28) } 
		.s29 { fill: url(#g29) } 
	</style>
	<g id="OBJECTS">
		<g id="&lt;Group&gt;">
			<g id="&lt;Group&gt;">
				<path id="&lt;Path&gt;" class="s0" d="m491.3 216l-0.3 101.9-97.8 56.8 0.3-101.8z"/>
				<path id="&lt;Path&gt;" class="s1" d="m491 317.9l-0.2 101.8-97.9 56.9 0.3-101.9z"/>
				<path id="&lt;Path&gt;" class="s2" d="m491 317.9l-0.2 101.8-97.9 56.9 0.3-101.9z"/>
				<path id="&lt;Path&gt;" class="s3" d="m393.5 375.2l-0.3 101.8-98.5-56.8 0.3-101.9z"/>
				<path id="&lt;Path&gt;" class="s4" d="m393.5 375.2l-0.3 101.8-98.5-56.8 0.3-101.9z"/>
				<path id="&lt;Path&gt;" class="s5" d="m393.5 57.3l-97.9 56.9-98.5-56.9 97.9-56.9z"/>
				<path id="&lt;Path&gt;" class="s6" d="m393.5 57.3l-0.3 101.9-97.9 56.8 0.3-101.8z"/>
				<path id="&lt;Path&gt;" class="s7" d="m393.5 159.2l-0.3 101.8-97.9 56.9 0.3-101.9z"/>
				<path id="&lt;Path&gt;" class="s8" d="m295.6 114.2l-0.3 101.8-98.4-56.8 0.2-101.9z"/>
				<path id="&lt;Path&gt;" class="s9" d="m491.3 216l-97.8 56.9-98.5-56.9 97.8-56.8z"/>
				<path id="&lt;Path&gt;" class="s10" d="m295.6 216l-0.3 101.9-97.8 56.8 0.3-101.8z"/>
				<path id="&lt;Path&gt;" class="s11" d="m197.8 272.9l-0.3 101.8-98.5-56.8 0.3-101.9z"/>
				<path id="&lt;Path&gt;" class="s12" d="m295.6 216l-0.3 101.9-98.4-56.9 0.2-101.8z"/>
				<g id="&lt;Group&gt;" style="mix-blend-mode: soft-light">
					<g id="&lt;Group&gt;">
						<path id="&lt;Path&gt;" class="s13" d="m197.2 57.3c0 0 24.7 14.1 49.4 28.1 12.3 7.1 24.6 14.1 33.8 19.6 9.2 5.4 15.2 9.1 15.2 9.1v0.1c0 0-6.2-3.4-15.5-8.7-9.3-5.1-21.6-12.3-33.9-19.5-24.5-14.3-49.1-28.7-49.1-28.7z"/>
					</g>
					<g id="&lt;Group&gt;">
						<path id="&lt;Path&gt;" class="s13" d="m295.6 114.1c0 0 24.4-14.3 48.8-28.7 12.2-7.1 24.4-14.3 33.6-19.5 9.2-5.2 15.5-8.6 15.5-8.6 0 0-6 3.8-15.2 9.2-9 5.4-21.3 12.5-33.6 19.5-24.5 14.1-49.1 28.2-49.1 28.2z"/>
					</g>
					<g id="&lt;Group&gt;">
						<path id="&lt;Path&gt;" class="s13" d="m295.7 114.2c0 0 0.1 25.4 0.3 50.9 0.1 12.7 0.1 25.5-0.1 35 0 9.6-0.2 15.9-0.2 15.9h-0.1c0 0-0.2-6.3-0.3-15.9-0.2-9.5-0.1-22.3 0-35 0.1-25.5 0.3-50.9 0.3-50.9z"/>
					</g>
				</g>
				<path id="&lt;Path&gt;" class="s14" d="m589.4 375.2l-97.9 56.8-98.5-56.8 97.9-56.9z"/>
				<path id="&lt;Path&gt;" class="s15" d="m589.4 375.2l-0.3 101.8-97.9 56.9 0.3-101.9z"/>
				<path id="&lt;Path&gt;" class="s16" d="m491.5 432l-0.3 101.9-98.5-56.9 0.3-101.8z"/>
				<g id="&lt;Group&gt;" style="mix-blend-mode: soft-light">
					<g id="&lt;Group&gt;">
						<path id="&lt;Path&gt;" class="s13" d="m393 375.2c0 0 24.7 14 49.4 28.1 12.4 7.1 24.7 14.1 33.9 19.6 9.2 5.4 15.2 9.1 15.2 9.1v0.1c0 0-6.3-3.4-15.5-8.7-9.4-5.2-21.6-12.3-33.9-19.5-24.6-14.3-49.1-28.7-49.1-28.7z"/>
					</g>
					<g id="&lt;Group&gt;">
						<path id="&lt;Path&gt;" class="s13" d="m491.5 432c0 0 24.4-14.3 48.8-28.7 12.2-7.2 24.4-14.3 33.6-19.5 9.2-5.3 15.4-8.7 15.4-8.7l0.1 0.1c0 0-6 3.7-15.2 9.1-9.1 5.5-21.3 12.6-33.6 19.6-24.5 14.1-49.1 28.2-49.1 28.2z"/>
					</g>
					<g id="&lt;Group&gt;">
						<path id="&lt;Path&gt;" class="s13" d="m491.6 432c0 0 0.1 25.5 0.2 51 0.1 12.7 0.2 25.4 0 35-0.1 9.5-0.2 15.9-0.2 15.9h-0.1c0 0-0.2-6.4-0.3-15.9-0.2-9.6-0.1-22.3 0-35 0.1-25.5 0.3-51 0.3-51z"/>
					</g>
				</g>
				<path id="&lt;Path&gt;" class="s17" d="m197.3 374.7l-97.9 56.9-98.4-56.9 97.8-56.8z"/>
				<path id="&lt;Path&gt;" class="s18" d="m197.3 374.7l-0.3 101.9-97.8 56.8 0.2-101.8z"/>
				<path id="&lt;Path&gt;" class="s19" d="m99.4 431.6l-0.2 101.8-98.5-56.8 0.3-101.9z"/>
				<g id="&lt;Group&gt;" style="mix-blend-mode: soft-light">
					<g id="&lt;Group&gt;">
						<path id="&lt;Path&gt;" class="s13" d="m1 374.7c0 0 24.7 14.1 49.4 28.2 12.3 7 24.7 14.1 33.8 19.5 9.2 5.4 15.3 9.2 15.3 9.2h-0.1c0 0-6.2-3.4-15.5-8.6-9.3-5.2-21.6-12.4-33.9-19.5-24.5-14.4-49.1-28.7-49.1-28.7z"/>
					</g>
					<g id="&lt;Group&gt;">
						<path id="&lt;Path&gt;" class="s13" d="m99.4 431.6c0 0 24.4-14.4 48.8-28.7 12.2-7.2 24.4-14.4 33.6-19.5 9.3-5.3 15.5-8.7 15.5-8.7v0.1c0 0-6 3.7-15.1 9.1-9.1 5.5-21.4 12.5-33.7 19.6-24.5 14-49 28.1-49 28.1z"/>
					</g>
					<g id="&lt;Group&gt;">
						<path id="&lt;Path&gt;" class="s13" d="m99.5 431.6c0 0 0.1 25.5 0.3 50.9 0.1 12.7 0.1 25.5-0.1 35 0 9.6-0.2 15.9-0.2 15.9h-0.1c0 0-0.2-6.3-0.3-15.9-0.1-9.5-0.1-22.3 0-35 0.1-25.4 0.3-50.9 0.3-50.9z"/>
					</g>
				</g>
				<path id="&lt;Path&gt;" class="s20" d="m295.6 318.3l-0.3 101.9-97.8 56.8 0.3-101.8z"/>
				<path id="&lt;Path&gt;" class="s21" d="m393 159.2l-0.3 101.8-97.8 56.9 0.3-101.9z"/>
				<path id="&lt;Path&gt;" class="s22" d="m295.6 216l-0.3 101.9-98.4-45 0.2-113.7z"/>
				<path id="&lt;Path&gt;" class="s23" d="m491.3 216l-97.8 56.9-98.5-56.9 97.8-56.8z"/>
				<path id="&lt;Path&gt;" class="s24" d="m295.6 216l-97.8 56.9-98.5-56.9 97.8-56.8z"/>
				<path id="&lt;Path&gt;" class="s25" d="m393 376.7l-97.8 56.9-98.5-56.9 97.8-56.8z"/>
				<path id="&lt;Path&gt;" class="s26" d="m295.2 431.6l-0.3 101.8-98.5-56.8 0.3-101.9z"/>
				<path id="&lt;Path&gt;" class="s27" d="m393 374.7l-0.3 101.9-97.8 56.8 0.3-101.8z"/>
				<path id="&lt;Path&gt;" class="s28" d="m393.5 272.9l-0.3 101.8-98.5-56.8 0.3-101.9z"/>
				<path id="&lt;Path&gt;" class="s29" d="m295.6 216l-0.3 101.9-97.8 56.8 0.3-101.8z"/>
				<g id="&lt;Group&gt;" style="mix-blend-mode: soft-light">
					<g id="&lt;Group&gt;">
						<path id="&lt;Path&gt;" class="s13" d="m295 216c0 0 24.7 14.1 49.4 28.2 12.4 7 24.7 14 33.8 19.5 9.2 5.4 15.3 9.1 15.3 9.1v0.1c0 0-6.3-3.4-15.6-8.6-9.3-5.2-21.6-12.4-33.8-19.6-24.6-14.3-49.1-28.6-49.1-28.6z"/>
					</g>
					<g id="&lt;Group&gt;">
						<path id="&lt;Path&gt;" class="s13" d="m393.5 272.8c0 0 24.3-14.3 48.7-28.6 12.2-7.2 24.4-14.4 33.7-19.6 9.2-5.2 15.4-8.6 15.4-8.6v0.1c0 0-6 3.7-15.1 9.1-9.1 5.4-21.4 12.5-33.6 19.5-24.6 14.1-49.1 28.2-49.1 28.2z"/>
					</g>
					<g id="&lt;Group&gt;">
						<path id="&lt;Path&gt;" class="s13" d="m393.5 272.9c0 0 0.2 25.4 0.3 50.9 0.1 12.7 0.2 25.5 0 35-0.1 9.6-0.3 15.9-0.3 15.9h-0.1c0 0-0.2-6.3-0.2-15.9-0.2-9.5-0.2-22.3-0.1-35 0.2-25.5 0.3-50.9 0.3-50.9z"/>
					</g>
				</g>
				<g id="&lt;Group&gt;" style="mix-blend-mode: soft-light">
					<g id="&lt;Group&gt;">
						<path id="&lt;Path&gt;" class="s13" d="m197.5 374.7c0 0 24.7 14.1 49.4 28.2 12.3 7 24.7 14.1 33.8 19.5 9.2 5.4 15.3 9.2 15.3 9.2h-0.1c0 0-6.2-3.4-15.5-8.6-9.3-5.2-21.6-12.4-33.9-19.5-24.5-14.4-49.1-28.7-49.1-28.7z"/>
					</g>
					<g id="&lt;Group&gt;">
						<path id="&lt;Path&gt;" class="s13" d="m295.9 431.6c0 0 24.4-14.4 48.8-28.7 12.2-7.2 24.4-14.4 33.7-19.5 9.2-5.3 15.4-8.7 15.4-8.7v0.1c0 0-6 3.7-15.1 9.1-9.1 5.5-21.4 12.5-33.7 19.6-24.5 14-49 28.1-49 28.1z"/>
					</g>
					<g id="&lt;Group&gt;">
						<path id="&lt;Path&gt;" class="s13" d="m296 431.6c0 0 0.1 25.5 0.3 50.9 0.1 12.8 0.1 25.5 0 35-0.1 9.6-0.3 15.9-0.3 15.9h-0.1c0 0-0.2-6.3-0.3-15.9-0.1-9.5-0.1-22.2 0-35 0.2-25.4 0.3-50.9 0.3-50.9z"/>
					</g>
				</g>
				<g id="&lt;Group&gt;" style="mix-blend-mode: soft-light">
					<g id="&lt;Group&gt;">
						<path id="&lt;Path&gt;" class="s13" d="m99.6 216c0 0 24.7 14.1 49.4 28.2 12.4 7 24.7 14 33.8 19.5 9.2 5.4 15.3 9.1 15.3 9.1v0.1c0 0-6.3-3.4-15.6-8.6-9.3-5.2-21.6-12.4-33.8-19.6-24.6-14.3-49.1-28.6-49.1-28.6z"/>
					</g>
					<g id="&lt;Group&gt;">
						<path id="&lt;Path&gt;" class="s13" d="m198.1 272.8c0 0 24.3-14.3 48.7-28.6 12.2-7.2 24.4-14.4 33.7-19.6 9.2-5.2 15.4-8.6 15.4-8.6v0.1c0 0-6 3.7-15.1 9.1-9.1 5.4-21.4 12.5-33.6 19.5-24.6 14.1-49.1 28.2-49.1 28.2z"/>
					</g>
					<g id="&lt;Group&gt;">
						<path id="&lt;Path&gt;" class="s13" d="m198.1 272.9c0 0 0.2 25.4 0.3 50.9 0.1 12.7 0.2 25.5 0 35-0.1 9.6-0.3 15.9-0.3 15.9h-0.1c0 0-0.2-6.3-0.2-15.9-0.2-9.5-0.2-22.3-0.1-35 0.2-25.5 0.3-50.9 0.3-50.9z"/>
					</g>
				</g>
			</g>
		</g>
	</g>
</svg>