<svg version="1.2" xmlns="http://www.w3.org/2000/svg" width="590" height="562"><defs><linearGradient id="g1" x1="393.2" y1="212" x2="491.3" y2="212" gradientUnits="userSpaceOnUse"><stop offset="0" stop-color="#f7dc63"/><stop offset="1" stop-color="#f0b721"/></linearGradient><linearGradient id="g2" x1="495.5" y1="330.7" x2="499" y2="421.9" gradientUnits="userSpaceOnUse"><stop offset="0" stop-color="#f0b721"/><stop offset="1" stop-color="#f7dc63" stop-opacity="0"/></linearGradient><linearGradient id="g3" x1="347.6" y1="337.6" x2="439.2" y2="322.4" gradientUnits="userSpaceOnUse"><stop offset="0" stop-color="#10718f"/><stop offset="1" stop-color="#05ace8" stop-opacity="0"/></linearGradient><linearGradient id="g4" x1="401.4" y1="328.8" x2="398.8" y2="420" gradientUnits="userSpaceOnUse"><stop offset="0" stop-color="#f0b721"/><stop offset="1" stop-color="#f7dc63" stop-opacity="0"/></linearGradient><linearGradient id="g5" x1="371.5" y1="472.3" x2="294.9" y2="440.5" gradientUnits="userSpaceOnUse"><stop offset="0" stop-color="#10718f"/><stop offset="1" stop-color="#05ace8" stop-opacity="0"/></linearGradient><linearGradient id="g6" x1="197.1" y1="-3.6" x2="393.5" y2="-3.6" gradientUnits="userSpaceOnUse"><stop offset="0" stop-color="#ccdc49"/><stop offset="1" stop-color="#6fa041"/></linearGradient><linearGradient id="g7" x1="295.3" y1="53.3" x2="393.5" y2="53.3" gradientUnits="userSpaceOnUse"><stop offset="0" stop-color="#ccdc49"/><stop offset="1" stop-color="#6fa041"/></linearGradient><linearGradient id="g8" x1="289.3" y1="280.9" x2="283.8" y2="177.7" gradientUnits="userSpaceOnUse"><stop offset="0" stop-color="#ccdc49" stop-opacity="0"/><stop offset="1" stop-color="#6fa041"/></linearGradient><linearGradient id="g9" x1="196.9" y1="53.3" x2="295.6" y2="53.3" gradientUnits="userSpaceOnUse"><stop offset="0" stop-color="#ccdc49"/><stop offset="1" stop-color="#6fa041"/></linearGradient><linearGradient id="g10" x1="309.5" y1="201.5" x2="418.3" y2="129" gradientUnits="userSpaceOnUse"><stop offset="0" stop-color="#fefefe"/><stop offset="1" stop-color="#fefefe" stop-opacity="0"/></linearGradient><linearGradient id="g11" x1="197.5" y1="212" x2="295.6" y2="212" gradientUnits="userSpaceOnUse"><stop offset="0" stop-color="#ec82ab"/><stop offset="1" stop-color="#b92e6a"/></linearGradient><linearGradient id="g12" x1="99" y1="212" x2="197.8" y2="212" gradientUnits="userSpaceOnUse"><stop offset="0" stop-color="#ec82ab"/><stop offset="1" stop-color="#b92e6a"/></linearGradient><linearGradient id="g13" x1="307.8" y1="194.8" x2="300.8" y2="296.6" gradientUnits="userSpaceOnUse"><stop offset="0" stop-color="#6fa041"/><stop offset="1" stop-color="#ccdc49" stop-opacity="0"/></linearGradient><linearGradient id="g14" x1="393" y1="314.3" x2="589.4" y2="314.3" gradientUnits="userSpaceOnUse"><stop offset="0" stop-color="#a54d9f"/><stop offset="1" stop-color="#803092"/></linearGradient><linearGradient id="g15" x1="491.2" y1="371.2" x2="589.4" y2="371.2" gradientUnits="userSpaceOnUse"><stop offset="0" stop-color="#a54d9f"/><stop offset="1" stop-color="#803092"/></linearGradient><linearGradient id="g16" x1="392.7" y1="371.2" x2="491.5" y2="371.2" gradientUnits="userSpaceOnUse"><stop offset="0" stop-color="#a54d9f"/><stop offset="1" stop-color="#803092"/></linearGradient><linearGradient id="g17" x1="1" y1="313.9" x2="197.3" y2="313.9" gradientUnits="userSpaceOnUse"><stop offset="0" stop-color="#f3a251"/><stop offset="1" stop-color="#d7722c"/></linearGradient><linearGradient id="g18" x1="99.2" y1="370.7" x2="197.3" y2="370.7" gradientUnits="userSpaceOnUse"><stop offset="0" stop-color="#f3a251"/><stop offset="1" stop-color="#d7722c"/></linearGradient><linearGradient id="g19" x1=".7" y1="370.7" x2="99.4" y2="370.7" gradientUnits="userSpaceOnUse"><stop offset="0" stop-color="#f3a251"/><stop offset="1" stop-color="#d7722c"/></linearGradient><linearGradient id="g20" x1="300.9" y1="335.6" x2="299.2" y2="426.9" gradientUnits="userSpaceOnUse"><stop offset="0" stop-color="#b92e6a"/><stop offset="1" stop-color="#ec82ab" stop-opacity="0"/></linearGradient><linearGradient id="g21" x1="205.5" y1="236.7" x2="309" y2="191.5" gradientUnits="userSpaceOnUse"><stop offset="0" stop-color="#b92e6a"/><stop offset="1" stop-color="#ec82ab" stop-opacity="0"/></linearGradient><linearGradient id="g22" x1="302.8" y1="172.8" x2="300" y2="291.3" gradientUnits="userSpaceOnUse"><stop offset="0" stop-color="#b92e6a"/><stop offset="1" stop-color="#ec82ab" stop-opacity="0"/></linearGradient><linearGradient id="g23" x1="295" y1="155.2" x2="491.3" y2="155.2" gradientUnits="userSpaceOnUse"><stop offset="0" stop-color="#f7dc63"/><stop offset="1" stop-color="#f0b721"/></linearGradient><linearGradient id="g24" x1="99.3" y1="155.2" x2="295.6" y2="155.2" gradientUnits="userSpaceOnUse"><stop offset="0" stop-color="#ec82ab"/><stop offset="1" stop-color="#b92e6a"/></linearGradient><linearGradient id="g25" x1="196.7" y1="315.9" x2="393" y2="315.9" gradientUnits="userSpaceOnUse"><stop offset="0" stop-color="#05ace8"/><stop offset="1" stop-color="#10718f"/></linearGradient><linearGradient id="g26" x1="196.4" y1="370.7" x2="295.2" y2="370.7" gradientUnits="userSpaceOnUse"><stop offset="0" stop-color="#05ace8"/><stop offset="1" stop-color="#10718f"/></linearGradient><linearGradient id="g27" x1="294.9" y1="370.7" x2="393" y2="370.7" gradientUnits="userSpaceOnUse"><stop offset="0" stop-color="#05ace8"/><stop offset="1" stop-color="#10718f"/></linearGradient><linearGradient id="g28" x1="294.7" y1="212" x2="393.5" y2="212" gradientUnits="userSpaceOnUse"><stop offset="0" stop-color="#f7dc63"/><stop offset="1" stop-color="#f0b721"/></linearGradient><linearGradient id="g29" x1="197.5" y1="212" x2="295.6" y2="212" gradientUnits="userSpaceOnUse"><stop offset="0" stop-color="#ec82ab"/><stop offset="1" stop-color="#b92e6a"/></linearGradient></defs><style>.s13{fill:#fff}</style><g id="OBJECTS"><g id="&lt;Group&gt;"><path id="&lt;Path&gt;" d="m491.3 216-.3 101.9-97.8 56.8.3-101.8z" style="fill:url(#g1)"/><path d="m491 317.9-.2 101.8-97.9 56.9.3-101.9z" style="mix-blend-mode:color-dodge;fill:url(#g2)"/><path d="m491 317.9-.2 101.8-97.9 56.9.3-101.9z" style="mix-blend-mode:color-dodge;fill:url(#g3)"/><path d="m393.5 375.2-.3 101.8-98.5-56.8.3-101.9z" style="fill:url(#g4)"/><path d="m393.5 375.2-.3 101.8-98.5-56.8.3-101.9z" style="mix-blend-mode:color-dodge;fill:url(#g5)"/><path d="m393.5 57.3-97.9 56.9-98.5-56.9L295 .4z" style="opacity:.8;fill:url(#g6)"/><path d="m393.5 57.3-.3 101.9-97.9 56.8.3-101.8z" style="fill:url(#g7)"/><path d="m393.5 159.2-.3 101.8-97.9 56.9.3-101.9z" style="fill:url(#g8)"/><path d="m295.6 114.2-.3 101.8-98.4-56.8.2-101.9z" style="fill:url(#g9)"/><path d="m491.3 216-97.8 56.9L295 216l97.8-56.8z" style="fill:url(#g10)"/><path d="m295.6 216-.3 101.9-97.8 56.8.3-101.8z" style="fill:url(#g11)"/><path d="m197.8 272.9-.3 101.8L99 317.9l.3-101.9z" style="fill:url(#g12)"/><path d="m295.6 216-.3 101.9-98.4-56.9.2-101.8z" style="fill:url(#g13)"/><path class="s13" d="M197.2 57.3s24.7 14.1 49.4 28.1c12.3 7.1 24.6 14.1 33.8 19.6 9.2 5.4 15.2 9.1 15.2 9.1v.1s-6.2-3.4-15.5-8.7c-9.3-5.1-21.6-12.3-33.9-19.5-24.5-14.3-49.1-28.7-49.1-28.7zm98.4 56.8s24.4-14.3 48.8-28.7c12.2-7.1 24.4-14.3 33.6-19.5 9.2-5.2 15.5-8.6 15.5-8.6s-6 3.8-15.2 9.2c-9 5.4-21.3 12.5-33.6 19.5-24.5 14.1-49.1 28.2-49.1 28.2zm.1.1s.1 25.4.3 50.9c.1 12.7.1 25.5-.1 35 0 9.6-.2 15.9-.2 15.9h-.1s-.2-6.3-.3-15.9c-.2-9.5-.1-22.3 0-35 .1-25.5.3-50.9.3-50.9z" style="mix-blend-mode:soft-light"/><path d="M589.4 375.2 491.5 432 393 375.2l97.9-56.9z" style="opacity:.8;fill:url(#g14)"/><path d="m589.4 375.2-.3 101.8-97.9 56.9.3-101.9z" style="fill:url(#g15)"/><path d="m491.5 432-.3 101.9-98.5-56.9.3-101.8z" style="fill:url(#g16)"/><g style="mix-blend-mode:soft-light"><path class="s13" d="M393 375.2s24.7 14 49.4 28.1c12.4 7.1 24.7 14.1 33.9 19.6 9.2 5.4 15.2 9.1 15.2 9.1v.1s-6.3-3.4-15.5-8.7c-9.4-5.2-21.6-12.3-33.9-19.5-24.6-14.3-49.1-28.7-49.1-28.7z"/><path class="s13" d="M491.5 432s24.4-14.3 48.8-28.7c12.2-7.2 24.4-14.3 33.6-19.5 9.2-5.3 15.4-8.7 15.4-8.7l.1.1s-6 3.7-15.2 9.1c-9.1 5.5-21.3 12.6-33.6 19.6-24.5 14.1-49.1 28.2-49.1 28.2z"/><path class="s13" d="m491.6 432 .2 51c.1 12.7.2 25.4 0 35-.1 9.5-.2 15.9-.2 15.9h-.1s-.2-6.4-.3-15.9c-.2-9.6-.1-22.3 0-35 .1-25.5.3-51 .3-51z"/></g><path d="m197.3 374.7-97.9 56.9L1 374.7l97.8-56.8z" style="opacity:.8;fill:url(#g17)"/><path d="m197.3 374.7-.3 101.9-97.8 56.8.2-101.8z" style="fill:url(#g18)"/><path d="m99.4 431.6-.2 101.8L.7 476.6 1 374.7z" style="fill:url(#g19)"/><g style="mix-blend-mode:soft-light"><path class="s13" d="m1 374.7 49.4 28.2c12.3 7 24.7 14.1 33.8 19.5 9.2 5.4 15.3 9.2 15.3 9.2h-.1s-6.2-3.4-15.5-8.6c-9.3-5.2-21.6-12.4-33.9-19.5C25.5 389.1.9 374.8.9 374.8z"/><path class="s13" d="M99.4 431.6s24.4-14.4 48.8-28.7c12.2-7.2 24.4-14.4 33.6-19.5 9.3-5.3 15.5-8.7 15.5-8.7v.1s-6 3.7-15.1 9.1c-9.1 5.5-21.4 12.5-33.7 19.6-24.5 14-49 28.1-49 28.1z"/><path class="s13" d="M99.5 431.6s.1 25.5.3 50.9c.1 12.7.1 25.5-.1 35 0 9.6-.2 15.9-.2 15.9h-.1s-.2-6.3-.3-15.9c-.1-9.5-.1-22.3 0-35 .1-25.4.3-50.9.3-50.9z"/></g><path d="m295.6 318.3-.3 101.9-97.8 56.8.3-101.8z" style="fill:url(#g20)"/><path d="m393 159.2-.3 101.8-97.8 56.9.3-101.9z" style="mix-blend-mode:color-dodge;fill:url(#g21)"/><path d="m295.6 216-.3 101.9-98.4-45 .2-113.7z" style="mix-blend-mode:color-dodge;fill:url(#g22)"/><path d="m491.3 216-97.8 56.9L295 216l97.8-56.8z" style="opacity:.8;fill:url(#g23)"/><path d="m295.6 216-97.8 56.9L99.3 216l97.8-56.8z" style="opacity:.8;fill:url(#g24)"/><path d="m393 376.7-97.8 56.9-98.5-56.9 97.8-56.8z" style="opacity:.8;fill:url(#g25)"/><path d="m295.2 431.6-.3 101.8-98.5-56.8.3-101.9z" style="fill:url(#g26)"/><path d="m393 374.7-.3 101.9-97.8 56.8.3-101.8z" style="fill:url(#g27)"/><path d="m393.5 272.9-.3 101.8-98.5-56.8.3-101.9z" style="fill:url(#g28)"/><path d="m295.6 216-.3 101.9-97.8 56.8.3-101.8z" style="fill:url(#g29)"/><g style="mix-blend-mode:soft-light"><path class="s13" d="m295 216 49.4 28.2c12.4 7 24.7 14 33.8 19.5 9.2 5.4 15.3 9.1 15.3 9.1v.1s-6.3-3.4-15.6-8.6c-9.3-5.2-21.6-12.4-33.8-19.6-24.6-14.3-49.1-28.6-49.1-28.6z"/><path class="s13" d="M393.5 272.8s24.3-14.3 48.7-28.6c12.2-7.2 24.4-14.4 33.7-19.6 9.2-5.2 15.4-8.6 15.4-8.6v.1s-6 3.7-15.1 9.1c-9.1 5.4-21.4 12.5-33.6 19.5-24.6 14.1-49.1 28.2-49.1 28.2z"/><path class="s13" d="M393.5 272.9s.2 25.4.3 50.9c.1 12.7.2 25.5 0 35-.1 9.6-.3 15.9-.3 15.9h-.1s-.2-6.3-.2-15.9c-.2-9.5-.2-22.3-.1-35 .2-25.5.3-50.9.3-50.9z"/></g><g style="mix-blend-mode:soft-light"><path class="s13" d="m197.5 374.7 49.4 28.2c12.3 7 24.7 14.1 33.8 19.5 9.2 5.4 15.3 9.2 15.3 9.2h-.1s-6.2-3.4-15.5-8.6c-9.3-5.2-21.6-12.4-33.9-19.5-24.5-14.4-49.1-28.7-49.1-28.7z"/><path class="s13" d="M295.9 431.6s24.4-14.4 48.8-28.7c12.2-7.2 24.4-14.4 33.7-19.5 9.2-5.3 15.4-8.7 15.4-8.7v.1s-6 3.7-15.1 9.1c-9.1 5.5-21.4 12.5-33.7 19.6-24.5 14-49 28.1-49 28.1z"/><path class="s13" d="M296 431.6s.1 25.5.3 50.9c.1 12.8.1 25.5 0 35-.1 9.6-.3 15.9-.3 15.9h-.1s-.2-6.3-.3-15.9c-.1-9.5-.1-22.2 0-35 .2-25.4.3-50.9.3-50.9z"/></g><g style="mix-blend-mode:soft-light"><path class="s13" d="m99.6 216 49.4 28.2c12.4 7 24.7 14 33.8 19.5 9.2 5.4 15.3 9.1 15.3 9.1v.1s-6.3-3.4-15.6-8.6c-9.3-5.2-21.6-12.4-33.8-19.6-24.6-14.3-49.1-28.6-49.1-28.6z"/><path class="s13" d="M198.1 272.8s24.3-14.3 48.7-28.6c12.2-7.2 24.4-14.4 33.7-19.6 9.2-5.2 15.4-8.6 15.4-8.6v.1s-6 3.7-15.1 9.1c-9.1 5.4-21.4 12.5-33.6 19.5-24.6 14.1-49.1 28.2-49.1 28.2z"/><path class="s13" d="M198.1 272.9s.2 25.4.3 50.9c.1 12.7.2 25.5 0 35-.1 9.6-.3 15.9-.3 15.9h-.1s-.2-6.3-.2-15.9c-.2-9.5-.2-22.3-.1-35 .2-25.5.3-50.9.3-50.9z"/></g></g></g></svg>