<svg width="45" height="46" viewBox="0 0 45 46" fill="none" xmlns="http://www.w3.org/2000/svg">
<path d="M7.5 6.68408C7.10219 6.68412 6.72068 6.8407 6.43938 7.11938C6.15809 7.39807 6.00004 7.77603 6 8.17015V31.9472C6.00004 32.3414 6.15809 32.7193 6.43938 32.998C6.72068 33.2767 7.10219 33.4333 7.5 33.4333H17.9971V36.4054H11.7451C11.3641 36.4054 10.9972 36.5503 10.7197 36.8089L7.7373 39.5808C7.2408 40.0399 7.57343 40.8636 8.25293 40.8636H36.7471C37.4266 40.8636 37.7592 40.0385 37.2627 39.5779L34.2803 36.806C34.0013 36.5489 33.6359 36.4054 33.2549 36.4054H26.9971V33.4333H37.5C37.8978 33.4333 38.2793 33.2767 38.5606 32.998C38.8419 32.7193 39 32.3414 39 31.9472V8.17015C39 7.77603 38.8419 7.39807 38.5606 7.11938C38.2793 6.8407 37.8978 6.68412 37.5 6.68408H7.5ZM9 9.65622H36V30.4612H9V9.65622ZM17.9707 14.0999C17.581 14.1114 17.2111 14.2728 16.9395 14.5498L12.4395 19.008C12.1583 19.2867 12.0003 19.6646 12.0003 20.0587C12.0003 20.4528 12.1583 20.8307 12.4395 21.1094L16.9395 25.5676C17.0777 25.7102 17.2432 25.8241 17.4264 25.9025C17.6096 25.981 17.8068 26.0224 18.0063 26.0244C18.2059 26.0264 18.4038 25.989 18.5886 25.9142C18.7734 25.8395 18.9412 25.729 19.0824 25.5892C19.2235 25.4494 19.335 25.2831 19.4105 25.1C19.4859 24.917 19.5237 24.7209 19.5217 24.5232C19.5196 24.3255 19.4778 24.1301 19.3986 23.9486C19.3194 23.7672 19.2045 23.6031 19.0605 23.4662L15.6211 20.0587L19.0605 16.6512C19.2773 16.4424 19.4253 16.1737 19.4853 15.8802C19.5452 15.5867 19.5143 15.282 19.3964 15.0062C19.2786 14.7304 19.0795 14.4963 18.8251 14.3346C18.5706 14.1729 18.2729 14.0911 17.9707 14.0999ZM26.9854 14.0999C26.687 14.1 26.3954 14.1882 26.1478 14.3534C25.9003 14.5185 25.7081 14.753 25.5959 15.0269C25.4836 15.3008 25.4563 15.6016 25.5175 15.891C25.5787 16.1803 25.7256 16.445 25.9395 16.6512L29.3789 20.0587L25.9395 23.4662C25.7955 23.6031 25.6806 23.7672 25.6014 23.9486C25.5222 24.1301 25.4804 24.3255 25.4783 24.5232C25.4763 24.7209 25.5141 24.917 25.5896 25.1C25.665 25.2831 25.7765 25.4494 25.9176 25.5892C26.0588 25.729 26.2266 25.8395 26.4114 25.9142C26.5962 25.989 26.7941 26.0264 26.9937 26.0244C27.1932 26.0224 27.3904 25.981 27.5736 25.9025C27.7568 25.8241 27.9223 25.7102 28.0605 25.5676L32.5605 21.1094C32.8417 20.8307 32.9997 20.4528 32.9997 20.0587C32.9997 19.6646 32.8417 19.2867 32.5605 19.008L28.0605 14.5498C27.9208 14.4074 27.7536 14.2943 27.5689 14.217C27.3843 14.1397 27.1858 14.0999 26.9854 14.0999Z" fill="#78C5D6"/>
</svg>
