<svg xmlns="http://www.w3.org/2000/svg" viewBox="0 0 30 30">
  <path d="M15 3.0644531C14.768946 3.0643329 14.537078 3.1033494 14.316406 3.1835938L9.3164062 5.0019531C8.5286353 5.2884154 8 6.0453522 8 6.8828125L8 12.628906C8 12.847224 8.0421622 13.056898 8.109375 13.257812L3.3164062 15.001953C2.5286353 15.288415 2 16.045352 2 16.882812L2 22.628906C2 23.410362 2.4593997 24.125911 3.171875 24.449219L8.1699219 26.722656C8.6959395 26.962664 9.3040605 26.962664 9.8300781 26.722656L14.828125 24.449219C14.891192 24.4206 14.941042 24.374383 15 24.339844C15.058958 24.374383 15.108808 24.4206 15.171875 24.449219L20.169922 26.722656C20.69594 26.962664 21.30406 26.962664 21.830078 26.722656L26.828125 24.449219C27.5406 24.125911 28 23.410362 28 22.628906L28 16.882812C28 16.045344 27.46927 15.288377 26.683594 15.001953L21.890625 13.257812C21.957838 13.056898 22 12.847224 22 12.628906L22 6.8828125C22 6.0453438 21.46927 5.2883767 20.683594 5.0019531L15.683594 3.1835938 A 1.0001 1.0001 0 0 0 15.681641 3.1835938C15.461295 3.1038304 15.231054 3.0645734 15 3.0644531 z M 15 5.0644531L19.451172 6.6816406L15 8.3007812L10.548828 6.6816406L15 5.0644531 z M 10 8.609375L14 10.064453L14 14.449219L10 12.628906L10 8.609375 z M 9 15.064453L13.451172 16.681641L9 18.300781L4.5488281 16.681641L9 15.064453 z M 21 15.064453L25.451172 16.681641L21 18.300781L16.548828 16.681641L21 15.064453 z M 4 18.609375L8 20.064453L8 24.449219L4 22.628906L4 18.609375 z M 16 18.609375L20 20.064453L20 24.449219L16 22.628906L16 18.609375 z" fill="#5B5B5B" />
</svg>