<svg width="45" height="46" viewBox="0 0 45 46" fill="none" xmlns="http://www.w3.org/2000/svg">
<g clip-path="url(#clip0_1082_134)">
<path d="M22.5 0.739746C21.125 0.739746 19.9028 1.30409 19.1279 2.16776C18.353 3.03144 18 4.12468 18 5.19795H15H12C9.53255 5.19795 7.5 7.21162 7.5 9.65615V36.4054C7.5 38.8499 9.53255 40.8636 12 40.8636H33C35.4675 40.8636 37.5 38.8499 37.5 36.4054V9.65615C37.5 7.21162 35.4675 5.19795 33 5.19795H30H27C27 4.12468 26.647 3.03144 25.8721 2.16776C25.0972 1.30409 23.875 0.739746 22.5 0.739746ZM22.5 3.71188C23.125 3.71188 23.4028 3.89057 23.6279 4.14145C23.853 4.39232 24 4.78515 24 5.19795C24 5.61075 23.853 6.00358 23.6279 6.25445C23.4028 6.50533 23.125 6.68402 22.5 6.68402C21.875 6.68402 21.5972 6.50533 21.3721 6.25445C21.147 6.00358 21 5.61075 21 5.19795C21 4.78515 21.147 4.39232 21.3721 4.14145C21.5972 3.89057 21.875 3.71188 22.5 3.71188ZM12 8.17009H15C15 9.81219 16.3425 11.1422 18 11.1422H27C28.6575 11.1422 30 9.81219 30 8.17009H33C33.8475 8.17009 34.5 8.81648 34.5 9.65615V36.4054C34.5 37.2451 33.8475 37.8914 33 37.8914H12C11.1525 37.8914 10.5 37.2451 10.5 36.4054V9.65615C10.5 8.81648 11.1525 8.17009 12 8.17009ZM16.5 17.8295C15.9033 17.8295 15.331 18.0644 14.909 18.4824C14.4871 18.9005 14.25 19.4674 14.25 20.0586C14.25 20.6498 14.4871 21.2168 14.909 21.6348C15.331 22.0529 15.9033 22.2877 16.5 22.2877C17.0967 22.2877 17.669 22.0529 18.091 21.6348C18.5129 21.2168 18.75 20.6498 18.75 20.0586C18.75 19.4674 18.5129 18.9005 18.091 18.4824C17.669 18.0644 17.0967 17.8295 16.5 17.8295ZM22.5 18.5726C22.3012 18.5698 22.1039 18.6062 21.9194 18.6796C21.735 18.753 21.5671 18.862 21.4255 19.0003C21.284 19.1386 21.1716 19.3033 21.0949 19.485C21.0181 19.6667 20.9786 19.8617 20.9786 20.0586C20.9786 20.2556 21.0181 20.4506 21.0949 20.6322C21.1716 20.8139 21.284 20.9787 21.4255 21.117C21.5671 21.2552 21.735 21.3642 21.9194 21.4377C22.1039 21.5111 22.3012 21.5475 22.5 21.5447H28.5C28.6988 21.5475 28.8961 21.5111 29.0806 21.4377C29.265 21.3642 29.4329 21.2552 29.5745 21.117C29.716 20.9787 29.8284 20.8139 29.9051 20.6322C29.9819 20.4506 30.0214 20.2556 30.0214 20.0586C30.0214 19.8617 29.9819 19.6667 29.9051 19.485C29.8284 19.3033 29.716 19.1386 29.5745 19.0003C29.4329 18.862 29.265 18.753 29.0806 18.6796C28.8961 18.6062 28.6988 18.5698 28.5 18.5726H22.5ZM16.5 27.489C16.1022 27.489 15.7206 27.6455 15.4393 27.9242C15.158 28.2029 15 28.5809 15 28.975C15 29.3692 15.158 29.7472 15.4393 30.0259C15.7206 30.3045 16.1022 30.4611 16.5 30.4611C16.8978 30.4611 17.2794 30.3045 17.5607 30.0259C17.842 29.7472 18 29.3692 18 28.975C18 28.5809 17.842 28.2029 17.5607 27.9242C17.2794 27.6455 16.8978 27.489 16.5 27.489ZM22.5 27.489C22.3012 27.4862 22.1039 27.5226 21.9194 27.596C21.735 27.6694 21.5671 27.7785 21.4255 27.9167C21.284 28.055 21.1716 28.2198 21.0949 28.4014C21.0181 28.5831 20.9786 28.7781 20.9786 28.975C20.9786 29.172 21.0181 29.367 21.0949 29.5486C21.1716 29.7303 21.284 29.8951 21.4255 30.0334C21.5671 30.1716 21.735 30.2806 21.9194 30.3541C22.1039 30.4275 22.3012 30.4639 22.5 30.4611H28.5C28.6988 30.4639 28.8961 30.4275 29.0806 30.3541C29.265 30.2806 29.4329 30.1716 29.5745 30.0334C29.716 29.8951 29.8284 29.7303 29.9051 29.5486C29.9819 29.367 30.0214 29.172 30.0214 28.975C30.0214 28.7781 29.9819 28.5831 29.9051 28.4014C29.8284 28.2198 29.716 28.055 29.5745 27.9167C29.4329 27.7785 29.265 27.6694 29.0806 27.596C28.8961 27.5226 28.6988 27.4862 28.5 27.489H22.5Z" fill="#78C5D6"/>
</g>
<defs>
<clipPath id="clip0_1082_134">
<rect width="45" height="44.582" fill="white" transform="translate(0 0.739746)"/>
</clipPath>
</defs>
</svg>
