<svg width="11" height="17" viewBox="0 0 11 17" fill="none" xmlns="http://www.w3.org/2000/svg">
<path d="M9.19993 0.799927H1.99993C1.33693 0.799927 0.799927 1.29857 0.799927 1.91421V15.2856C0.799927 15.9013 1.33693 16.3999 1.99993 16.3999H9.19993C9.86293 16.3999 10.3999 15.9013 10.3999 15.2856V1.91421C10.3999 1.29857 9.86293 0.799927 9.19993 0.799927ZM5.59993 15.2856C5.26873 15.2856 4.99993 15.036 4.99993 14.7285C4.99993 14.421 5.26873 14.1714 5.59993 14.1714C5.93113 14.1714 6.19993 14.421 6.19993 14.7285C6.19993 15.036 5.93113 15.2856 5.59993 15.2856ZM9.19993 13.6142H1.99993V2.47136H9.19993V13.6142Z" fill="#B4C0CE"/>
</svg>
