<svg width="45" height="45" viewBox="0 0 45 45" fill="none" xmlns="http://www.w3.org/2000/svg">
<path d="M22.5 4.5C12.5595 4.5 4.5 12.5595 4.5 22.5C4.5 32.4405 12.5595 40.5 22.5 40.5C32.4405 40.5 40.5 32.4405 40.5 22.5C40.5 12.5595 32.4405 4.5 22.5 4.5ZM36.126 16.2645C36.1305 16.4085 36.153 16.5315 36.153 16.6815C36.153 18.246 35.859 20.007 34.9785 22.212L30.498 35.1675C29.547 35.7705 28.5255 36.2655 27.447 36.6435L22.773 23.847L18.2865 36.885C17.3265 36.603 16.407 36.2295 15.537 35.772L8.6205 16.8315C9.027 15.84 9.534 14.9025 10.1325 14.0295C10.2855 14.0325 10.458 14.037 10.593 14.037C12.207 14.037 14.7075 13.8405 14.7075 13.8405C15.5415 13.794 15.6375 15.015 14.8065 15.114C14.8065 15.114 13.9695 15.2115 13.0395 15.261L18.6615 31.9875L22.0395 21.852L19.6365 15.258C18.8025 15.2115 18.0165 15.114 18.0165 15.114C17.1825 15.0645 17.283 13.791 18.114 13.8405C18.114 13.8405 20.664 14.037 22.179 14.037C23.793 14.037 26.2935 13.8405 26.2935 13.8405C27.1275 13.794 27.2235 15.015 26.3925 15.114C26.3925 15.114 25.554 15.2115 24.6255 15.261L30.2055 31.86L31.7475 26.709C32.5305 24.7035 32.922 23.043 32.922 21.7185C32.922 19.8105 32.238 18.489 31.6485 17.4615C30.867 16.188 30.1305 15.1125 30.1305 13.839C30.1305 12.5655 31.0005 11.379 32.277 11.148C33.903 12.552 35.22 14.2935 36.126 16.2645Z" fill="#78C5D6"/>
</svg>
