<?xml version="1.0" encoding="utf-8"?>
<svg xmlns="http://www.w3.org/2000/svg" viewBox="0 0 26 26" width="208" height="208">
  <path d="M6 0C4.355469 0 3 1.355469 3 3L3 26L23 26L23 3C23 1.355469 21.644531 0 20 0 Z M 6 2L20 2C20.554688 2 21 2.445313 21 3L21 24L19 24L19 19L14 19L14 24L5 24L5 3C5 2.445313 5.445313 2 6 2 Z M 7 4L7 7L12 7L12 4 Z M 14 4L14 7L19 7L19 4 Z M 7 9L7 12L12 12L12 9 Z M 14 9L14 12L19 12L19 9 Z M 7 14L7 17L12 17L12 14 Z M 14 14L14 17L19 17L19 14 Z M 7 19L7 22L12 22L12 19Z" fill="#5B5B5B" />
</svg>