<svg width="106" height="81" viewBox="0 0 106 81" fill="none" xmlns="http://www.w3.org/2000/svg">
<g filter="url(#filter0_f_284_155)">
<path d="M53.3113 43L91.0002 54.5L52.8669 66L15.0002 54.5L53.3113 43Z" fill="#122632"/>
<path d="M53.3113 43L91.0002 54.5L52.8669 66L15.0002 54.5L53.3113 43Z" fill="#122632"/>
</g>
<path d="M15 11.5L55.0002 25.5V66.5L15 52.5V11.5Z" fill="url(#paint0_linear_284_155)"/>
<path d="M55.0002 25.5L91 14V55L55.0002 66.5V25.5Z" fill="url(#paint1_linear_284_155)"/>
<path d="M53.594 0L91.094 14L55.094 25.5L15 11.5002L53.594 0Z" fill="url(#paint2_linear_284_155)"/>
<path d="M15 11.5L55.3274 25.5V66.5L15 52.5V11.5Z" fill="url(#paint3_linear_284_155)"/>
<path opacity="0.4" d="M15 11.5L55.3274 25.5V66.5L15 52.5V11.5Z" fill="white"/>
<defs>
<filter id="filter0_f_284_155" x="0.000244141" y="28" width="106" height="53" filterUnits="userSpaceOnUse" color-interpolation-filters="sRGB">
<feFlood flood-opacity="0" result="BackgroundImageFix"/>
<feBlend mode="normal" in="SourceGraphic" in2="BackgroundImageFix" result="shape"/>
<feGaussianBlur stdDeviation="7.5" result="effect1_foregroundBlur_284_155"/>
</filter>
<linearGradient id="paint0_linear_284_155" x1="91.9897" y1="23.4758" x2="92.109" y2="66.3969" gradientUnits="userSpaceOnUse">
<stop offset="0.0682429" stop-color="#F83B6C"/>
<stop offset="1" stop-color="#F1E065"/>
</linearGradient>
<linearGradient id="paint1_linear_284_155" x1="124.29" y1="25.4315" x2="124.411" y2="66.4015" gradientUnits="userSpaceOnUse">
<stop offset="0.0682429" stop-color="#F83B6C"/>
<stop offset="1" stop-color="#F1E065"/>
</linearGradient>
<linearGradient id="paint2_linear_284_155" x1="-4.19489" y1="-10.4866" x2="41.7028" y2="43.5666" gradientUnits="userSpaceOnUse">
<stop stop-color="#AFB6E5"/>
<stop offset="1" stop-color="white"/>
</linearGradient>
<linearGradient id="paint3_linear_284_155" x1="92.6193" y1="23.4758" x2="92.7377" y2="66.3969" gradientUnits="userSpaceOnUse">
<stop offset="0.0682429" stop-color="#F83B6C"/>
<stop offset="1" stop-color="#F1E065"/>
</linearGradient>
</defs>
</svg>
