<svg width="82" height="79" viewBox="0 0 82 79" fill="none" xmlns="http://www.w3.org/2000/svg">
<path d="M73.4051 22.9696C73.4051 21.7355 72.3537 20.734 71.0581 20.734H53.8468C52.5512 20.734 51.4998 21.7355 51.4998 22.9696C51.4998 23.372 51.6202 23.7431 51.8143 24.0695L51.8033 24.0874L56.1938 32.6571L62.4524 34.1475L68.7111 32.6571L73.0812 24.0874L73.0797 24.0859C73.2815 23.7565 73.4051 23.378 73.4051 22.9696Z" fill="url(#paint0_linear_1_251)"/>
<path d="M42.894 49.0515C39.0121 49.0515 35.853 46.0424 35.853 42.3448C35.853 38.6471 39.0121 35.6381 42.894 35.6381C46.776 35.6381 49.935 38.6471 49.935 42.3448C49.935 46.0424 46.776 49.0515 42.894 49.0515ZM42.894 38.6188C40.7379 38.6188 38.9824 40.2896 38.9824 42.3448C38.9824 44.4 40.7379 46.0708 42.894 46.0708C45.0502 46.0708 46.8057 44.4 46.8057 42.3448C46.8057 40.2896 45.0502 38.6188 42.894 38.6188Z" fill="url(#paint1_linear_1_251)"/>
<path d="M71.8719 8.97592C57.5082 -4.70581 31.8164 -2.50004 14.605 13.9091C2.69787 25.2509 -2.55941 41.2577 1.19579 54.7158C2.21283 58.3524 5.10746 61.1096 8.92526 62.0932C12.7274 63.062 16.6547 62.0634 19.4398 59.4105L25.8237 53.3298C27.3884 51.8394 29.9075 51.6754 31.4252 52.987C32.2388 53.6726 32.6926 54.6264 32.7239 55.6548C32.7552 56.698 32.3484 57.6668 31.5817 58.3971L31.3939 58.5759C27.8108 61.9889 27.0285 66.9519 29.4381 71.2144C31.4408 74.7913 35.1335 76.8778 39.2172 76.8778C39.9683 76.8778 40.7506 76.8033 41.533 76.6543C47.0249 75.611 52.3135 73.5841 57.1953 70.6927C58.2123 70.0966 59.2294 69.4557 60.2151 68.7851C60.1525 67.712 60.0743 66.5048 60.0117 65.1634C59.026 65.9086 58.0246 66.6091 56.9919 67.25C52.0006 70.4394 46.5086 72.6601 40.9227 73.7331C36.573 74.5677 33.5062 72.1384 32.1919 69.7985C30.8776 67.4735 30.4551 63.673 33.6001 60.6774L33.7878 60.4985C35.1491 59.2019 35.9002 57.4134 35.8532 55.5802C35.8063 53.7322 34.977 52.0182 33.5219 50.7663C32.2232 49.6485 30.5803 49.112 28.9061 49.112C27.0128 49.112 25.0883 49.8125 23.6175 51.2283L17.2337 57.3091C15.2465 59.187 12.4458 59.9024 9.73888 59.2168C7.01636 58.5163 4.951 56.549 4.2156 53.9408C0.742037 41.511 5.68639 26.6221 16.8112 16.0105C32.8178 0.778806 56.5225 -1.44186 69.6657 11.0774C75.987 17.0985 78.9598 25.6235 78.021 35.0875C77.2387 42.912 73.8747 50.6024 68.414 57.1899C67.3969 58.4269 66.3017 59.6043 65.1282 60.7519C65.0656 62.3019 64.9874 63.7625 64.9248 65.1187C65.5193 64.612 66.1139 64.0754 66.6928 63.524C67.2092 63.0322 67.7099 62.5254 68.2106 62.0187C75.6115 54.3581 80.1803 44.9687 81.1347 35.3557C82.1518 25.0125 78.866 15.6379 71.8719 8.97592Z" fill="url(#paint2_linear_1_251)"/>
<path d="M41.3292 20.7346C44.7858 20.7346 47.5879 18.0655 47.5879 14.7731C47.5879 11.4806 44.7858 8.81152 41.3292 8.81152C37.8727 8.81152 35.0706 11.4806 35.0706 14.7731C35.0706 18.0655 37.8727 20.7346 41.3292 20.7346Z" fill="url(#paint3_linear_1_251)"/>
<path d="M22.5534 28.1861C26.0099 28.1861 28.812 25.5171 28.812 22.2246C28.812 18.9321 26.0099 16.2631 22.5534 16.2631C19.0968 16.2631 16.2947 18.9321 16.2947 22.2246C16.2947 25.5171 19.0968 28.1861 22.5534 28.1861Z" fill="url(#paint4_linear_1_251)"/>
<path d="M13.9474 44.5805C17.404 44.5805 20.2061 41.9115 20.2061 38.619C20.2061 35.3265 17.404 32.6575 13.9474 32.6575C10.4908 32.6575 7.68872 35.3265 7.68872 38.619C7.68872 41.9115 10.4908 44.5805 13.9474 44.5805Z" fill="url(#paint5_linear_1_251)"/>
<path d="M68.7114 41.5998H56.1941V32.6575H68.7114V41.5998ZM59.3234 38.619H65.5821V35.6382H59.3234V38.619Z" fill="url(#paint6_linear_1_251)"/>
<path d="M56.1941 38.6187V41.972C56.1941 51.9427 56.6478 61.2278 56.9921 67.2489C57.0547 68.2028 57.1016 69.0672 57.1485 69.8422C57.1642 70.1403 57.1798 70.4235 57.1955 70.6917C57.2894 72.4951 57.3676 73.8215 57.3676 74.3879C57.3676 76.7725 59.7459 78.859 62.4528 78.859C65.1596 78.859 67.5379 76.7725 67.5379 74.3879C67.5379 74.1643 67.5849 73.3744 67.6631 72.0927C67.8039 69.8571 68.0073 66.3249 68.2107 62.0177C68.2733 60.4975 68.3516 58.8879 68.4142 57.1888C68.5863 52.5388 68.7114 47.3076 68.7114 41.972V38.6187H56.1941ZM64.9249 65.1177C64.7841 67.9494 64.6277 70.2893 64.5338 71.9287C64.4555 73.2999 64.4086 74.1494 64.4086 74.3879C64.4086 75.1182 63.4072 75.8783 62.4528 75.8783C61.4983 75.8783 60.4969 75.1182 60.4969 74.3879C60.4969 73.6427 60.403 72.0629 60.2622 69.6783C60.2466 69.3951 60.2309 69.097 60.2153 68.784C60.1527 67.711 60.0745 66.5038 60.0119 65.1624C59.6833 59.2158 59.3234 50.8547 59.3234 41.972V41.5994H65.5821V41.972C65.5821 48.7086 65.3787 55.2812 65.1283 60.7509C65.0658 62.3009 64.9875 63.7614 64.9249 65.1177Z" fill="url(#paint7_linear_1_251)"/>
<defs>
<linearGradient id="paint0_linear_1_251" x1="62.4524" y1="20.4106" x2="62.4524" y2="32.286" gradientUnits="userSpaceOnUse">
<stop stop-color="#E884D7"/>
<stop offset="1" stop-color="#F6A575"/>
</linearGradient>
<linearGradient id="paint1_linear_1_251" x1="42.894" y1="-1.23256" x2="42.894" y2="77.5581" gradientUnits="userSpaceOnUse">
<stop stop-color="#E884D7"/>
<stop offset="1" stop-color="#F6A575"/>
</linearGradient>
<linearGradient id="paint2_linear_1_251" x1="40.6583" y1="-1.23023" x2="40.6583" y2="77.559" gradientUnits="userSpaceOnUse">
<stop stop-color="#D56AC0"/>
<stop offset="1" stop-color="#F6A575"/>
</linearGradient>
<linearGradient id="paint3_linear_1_251" x1="41.3292" y1="7.28835" x2="41.3292" y2="22.1162" gradientUnits="userSpaceOnUse">
<stop stop-color="#E884D7"/>
<stop offset="1" stop-color="#F6A575"/>
</linearGradient>
<linearGradient id="paint4_linear_1_251" x1="22.5534" y1="15.7444" x2="22.5534" y2="28.4484" gradientUnits="userSpaceOnUse">
<stop stop-color="#E884D7"/>
<stop offset="1" stop-color="#F6A575"/>
</linearGradient>
<linearGradient id="paint5_linear_1_251" x1="13.9474" y1="32.4637" x2="13.9474" y2="45.3555" gradientUnits="userSpaceOnUse">
<stop stop-color="#E884D7"/>
<stop offset="1" stop-color="#F6A575"/>
</linearGradient>
<linearGradient id="paint6_linear_1_251" x1="62.4528" y1="-1.23239" x2="62.4528" y2="77.5583" gradientUnits="userSpaceOnUse">
<stop stop-color="#E884D7"/>
<stop offset="1" stop-color="#F6A575"/>
</linearGradient>
<linearGradient id="paint7_linear_1_251" x1="62.4528" y1="-1.23275" x2="62.4528" y2="77.5579" gradientUnits="userSpaceOnUse">
<stop stop-color="#E884DE"/>
<stop offset="1" stop-color="#F6A575"/>
</linearGradient>
</defs>
</svg>
