<svg width="85" height="81" viewBox="0 0 85 81" fill="none" xmlns="http://www.w3.org/2000/svg">
<path d="M42.2461 0C18.9513 0 0 18.0515 0 40.2404C0 62.4292 18.9513 80.4808 42.2461 80.4808C65.5409 80.4808 84.4921 62.4292 84.4921 40.2404C84.4921 18.0515 65.5409 0 42.2461 0Z" fill="url(#paint0_linear_1_224)"/>
<path d="M43.811 3.01843V36.643L68.7597 12.8788C62.1427 7.05439 53.4181 3.38209 43.811 3.01843Z" fill="url(#paint1_linear_1_224)"/>
<path d="M40.6806 3.01843C31.0735 3.3806 22.3489 7.05439 15.7319 12.8773L40.6806 36.643V3.01843Z" fill="url(#paint2_linear_1_224)"/>
<path d="M13.5206 14.9854C7.40582 21.2882 3.55048 29.5986 3.1687 38.7495H38.4676L13.5206 14.9854Z" fill="url(#paint3_linear_1_224)"/>
<path d="M38.4692 41.7306H3.1687C3.54892 50.8816 7.40583 59.1919 13.519 65.4948L38.4692 41.7306Z" fill="url(#paint4_linear_1_224)"/>
<path d="M40.682 43.8379L15.7334 67.6021C22.3504 73.425 31.0765 77.0988 40.682 77.461V43.8379Z" fill="url(#paint5_linear_1_224)"/>
<path d="M43.811 43.8379V77.4625C53.4181 77.1003 62.1427 73.4265 68.7597 67.6036L43.811 43.8379Z" fill="url(#paint6_linear_1_224)"/>
<path d="M81.3234 41.7306H46.0229L70.9716 65.4948C77.0863 59.1919 80.9417 50.8816 81.3234 41.7306Z" fill="url(#paint7_linear_1_224)"/>
<path d="M70.9716 14.9854L46.0229 38.7495H81.3234C80.9417 29.5986 77.0863 21.2882 70.9716 14.9854Z" fill="url(#paint8_linear_1_224)"/>
<defs>
<linearGradient id="paint0_linear_1_224" x1="42.2461" y1="-0.430721" x2="42.2461" y2="80.3168" gradientUnits="userSpaceOnUse">
<stop stop-color="#E884D7"/>
<stop offset="1" stop-color="#318AE4"/>
</linearGradient>
<linearGradient id="paint1_linear_1_224" x1="56.3469" y1="3.50132" x2="56.3469" y2="77.3454" gradientUnits="userSpaceOnUse">
<stop stop-color="#8AD2FF"/>
<stop offset="1" stop-color="#EBBCFF"/>
</linearGradient>
<linearGradient id="paint2_linear_1_224" x1="28.2662" y1="3.50132" x2="28.2662" y2="77.3454" gradientUnits="userSpaceOnUse">
<stop stop-color="#F0F9FF"/>
<stop offset="1" stop-color="#FCF6FF"/>
</linearGradient>
<linearGradient id="paint3_linear_1_224" x1="20.8821" y1="3.50045" x2="20.8821" y2="77.3445" gradientUnits="userSpaceOnUse">
<stop stop-color="#E2F4FF"/>
<stop offset="1" stop-color="#FAEEFF"/>
</linearGradient>
<linearGradient id="paint4_linear_1_224" x1="20.8821" y1="3.50073" x2="20.8821" y2="77.3448" gradientUnits="userSpaceOnUse">
<stop stop-color="#D3EEFF"/>
<stop offset="1" stop-color="#F7E6FF"/>
</linearGradient>
<linearGradient id="paint5_linear_1_224" x1="28.2677" y1="3.50063" x2="28.2677" y2="77.3447" gradientUnits="userSpaceOnUse">
<stop stop-color="#C5E9FF"/>
<stop offset="1" stop-color="#F5DDFF"/>
</linearGradient>
<linearGradient id="paint6_linear_1_224" x1="56.3469" y1="3.50064" x2="56.3469" y2="77.3447" gradientUnits="userSpaceOnUse">
<stop stop-color="#B6E3FF"/>
<stop offset="1" stop-color="#F2D5FF"/>
</linearGradient>
<linearGradient id="paint7_linear_1_224" x1="63.7347" y1="3.50073" x2="63.7347" y2="77.3448" gradientUnits="userSpaceOnUse">
<stop stop-color="#A7DDFF"/>
<stop offset="1" stop-color="#F0CDFF"/>
</linearGradient>
<linearGradient id="paint8_linear_1_224" x1="63.7347" y1="3.50045" x2="63.7347" y2="77.3445" gradientUnits="userSpaceOnUse">
<stop stop-color="#99D8FF"/>
<stop offset="1" stop-color="#EDC4FF"/>
</linearGradient>
</defs>
</svg>
