<svg width="80" height="76" viewBox="0 0 80 76" fill="none" xmlns="http://www.w3.org/2000/svg">
<path d="M4.69434 72.9779H67.2811V75.9587H4.69434V72.9779Z" fill="url(#paint0_linear_1_246)"/>
<path d="M76.6563 23.1352L75.7691 22.2902L78.2209 19.9548C80.3192 17.9547 80.3192 14.7041 78.2209 12.704L66.4092 1.45313C64.3752 -0.482884 60.8312 -0.485865 58.7971 1.45313L56.3453 3.78856L55.4581 2.94351C53.4241 1.0075 49.8801 1.00452 47.846 2.94351L11.0309 38.0063C8.96242 39.9781 7.82334 42.5982 7.82334 45.3837V47.4091L0.247218 70.0376C0.223748 70.1077 0.206536 70.1807 0.194019 70.2537C0.0641515 70.6725 0 71.0794 0 71.4878C0 73.9529 2.10604 75.9589 4.69401 75.9589C5.0617 75.9589 5.43879 75.9112 5.84091 75.8099C5.91601 75.798 5.99268 75.7801 6.06779 75.7592L29.9712 68.507H32.0976C35.0251 68.507 37.7742 67.4205 39.8427 65.4502L76.6563 30.386C77.6733 29.4172 78.2334 28.1295 78.2334 26.7599C78.2334 25.3902 77.6733 24.1025 76.6563 23.1352ZM5.27919 72.8709C5.23225 72.8798 5.18531 72.8902 5.13994 72.9022C4.95687 72.9543 4.81605 72.9782 4.69401 72.9782C3.83187 72.9782 3.12934 72.3105 3.12934 71.4878C3.12934 71.3402 3.1622 71.1808 3.22948 70.9975C3.26077 70.914 3.28268 70.829 3.29676 70.7426L10.0984 50.4257L26.8043 66.3385L5.27919 72.8709ZM32.0992 65.5262H30.3765L10.9527 47.0246V45.3837C10.9527 43.394 11.7663 41.5221 13.2434 40.1137L14.082 39.3163L38.4674 62.5455L37.6287 63.3443C36.1532 64.7498 34.1896 65.5262 32.0992 65.5262ZM74.4438 28.2786L65.7161 36.5919L60.5636 31.6841L58.3512 33.7915L63.5037 38.6993L59.4574 42.5535L51.1756 34.6649L48.9632 36.7723L57.245 44.6609L53.1987 48.515L48.0463 43.6072L45.8338 45.7146L50.9863 50.6224L40.6814 60.4381L16.2945 37.2089L50.0569 5.04942C50.9065 4.23716 52.3914 4.23716 53.2441 5.04942L74.4438 25.2426C74.8694 25.648 75.1041 26.1861 75.1041 26.7599C75.1041 27.3337 74.8694 27.8717 74.4438 28.2786Z" fill="url(#paint1_linear_1_246)"/>
<defs>
<linearGradient id="paint0_linear_1_246" x1="35.9877" y1="72.9779" x2="35.9877" y2="75.9587" gradientUnits="userSpaceOnUse">
<stop stop-color="#82C382"/>
<stop offset="1" stop-color="#4BB697"/>
</linearGradient>
<linearGradient id="paint1_linear_1_246" x1="39.8975" y1="3.24159" x2="39.8975" y2="75.9873" gradientUnits="userSpaceOnUse">
<stop stop-color="#82C382"/>
<stop offset="1" stop-color="#4AB698"/>
</linearGradient>
</defs>
</svg>
