<svg width="76" height="78" viewBox="0 0 76 78" fill="none" xmlns="http://www.w3.org/2000/svg">
<path d="M72.8119 13.5938L60.8328 2.18341C59.3761 0.795866 57.3592 0 55.3001 0H7.82335C3.50955 0 0 3.34293 0 7.45192V62.5962V64.0865V70.0481C0 74.1571 3.50955 77.5 7.82335 77.5H67.2808C71.5946 77.5 75.1041 74.1571 75.1041 70.0481V64.0865V58.125V18.8638C75.1041 16.9025 74.2686 14.9813 72.8119 13.5938ZM56.3281 3.1V10.4327C56.3281 11.2554 55.6271 11.9231 54.7634 11.9231H52.9109C53.0861 11.4551 53.1987 10.9573 53.1987 10.4327V2.98077H55.3001C55.6474 2.98077 55.9917 3.02697 56.3281 3.1ZM18.776 2.98077H21.9054V10.4327C21.9054 10.9573 22.018 11.4551 22.1933 11.9231H20.3407C19.477 11.9231 18.776 11.2554 18.776 10.4327V2.98077ZM25.0347 10.4327V2.98077H50.0694V10.4327C50.0694 11.2554 49.3684 11.9231 48.5047 11.9231H26.5994C25.7357 11.9231 25.0347 11.2554 25.0347 10.4327ZM67.2808 74.5192H7.82335C5.23538 74.5192 3.12934 72.5132 3.12934 70.0481V70.0093C4.44053 70.9557 6.05527 71.5385 7.82335 71.5385H67.2808C69.0488 71.5385 70.6636 70.9557 71.9748 70.0093V70.0481C71.9748 72.5132 69.8687 74.5192 67.2808 74.5192ZM71.9748 64.0865C71.9748 66.5516 69.8687 68.5577 67.2808 68.5577H7.82335C5.23538 68.5577 3.12934 66.5516 3.12934 64.0865V62.5962V7.45192C3.12934 4.98683 5.23538 2.98077 7.82335 2.98077H15.6467V10.4327C15.6467 12.8978 17.7527 14.9038 20.3407 14.9038H54.7634C57.3514 14.9038 59.4574 12.8978 59.4574 10.4327V5.08817L70.5994 15.7012C71.4741 16.5343 71.9748 17.6864 71.9748 18.8638V58.125V64.0865Z" fill="url(#paint0_linear_1_240)"/>
<path d="M54.7635 26.8265H20.3407C17.7528 26.8265 15.6467 28.8326 15.6467 31.2977V58.1246C15.6467 60.5897 17.7528 62.5958 20.3407 62.5958H54.7635C57.3514 62.5958 59.4575 60.5897 59.4575 58.1246V31.2977C59.4575 28.8326 57.3514 26.8265 54.7635 26.8265ZM20.3407 29.8073H54.7635C55.6271 29.8073 56.3281 30.475 56.3281 31.2977V53.6535H18.7761V31.2977C18.7761 30.475 19.477 29.8073 20.3407 29.8073ZM54.7635 59.615H20.3407C19.477 59.615 18.7761 58.9473 18.7761 58.1246V56.6342H56.3281V58.1246C56.3281 58.9473 55.6271 59.615 54.7635 59.615Z" fill="url(#paint1_linear_1_240)"/>
<path d="M17.2119 19.375H57.8933V22.3558H17.2119V19.375Z" fill="url(#paint2_linear_1_240)"/>
<defs>
<linearGradient id="paint0_linear_1_240" x1="37.5521" y1="-0.745192" x2="37.5521" y2="78.0455" gradientUnits="userSpaceOnUse">
<stop stop-color="#FD657C"/>
<stop offset="1" stop-color="#FB945E"/>
</linearGradient>
<linearGradient id="paint1_linear_1_240" x1="37.5521" y1="-0.745578" x2="37.5521" y2="78.0451" gradientUnits="userSpaceOnUse">
<stop stop-color="#FD637C"/>
<stop offset="1" stop-color="#FB935F"/>
</linearGradient>
<linearGradient id="paint2_linear_1_240" x1="37.5526" y1="-0.74519" x2="37.5526" y2="78.0455" gradientUnits="userSpaceOnUse">
<stop stop-color="#FD637D"/>
<stop offset="1" stop-color="#FB955D"/>
</linearGradient>
</defs>
</svg>
