<svg width="130" height="266" fill="none" xmlns="http://www.w3.org/2000/svg"><path d="M74.146 250.388 15 224.846l41.621-19.067 58.271 25.183-40.746 19.426Z" fill="url(#a)"/><path d="M74.146 250.389 15 224.846v1.799l59.146 25.542v-1.798Z" fill="#95E5F8"/><path d="M74.146 252.187v-1.798l40.746-19.427v1.439l-40.746 19.786Z" fill="#4FD4F3"/><g filter="url(#b)"><path d="m56.621 205.779 58.271 25.183-40.707 19.296L15 224.846l41.621-19.067Z" fill="#122632" fill-opacity=".85"/></g><path d="M74.146 248.23 15 222.687V19.067l59.146 25.542V248.23Z" fill="url(#c)"/><path d="M74.146 248.23 15 222.687V19.067l59.146 25.542V248.23Z" fill="#fff" fill-opacity=".4"/><path d="m114.892 25.183-.439 203.621-40.307 19.426V44.61l40.746-19.427Z" fill="url(#d)"/><path d="M74.147 44.61 15 19.066 56.622 0l58.27 25.183-40.745 19.426Z" fill="url(#e)"/><defs><linearGradient id="a" x1="207.265" y1="215.492" x2="195.772" y2="249.933" gradientUnits="userSpaceOnUse"><stop stop-color="#D06EE1"/><stop offset=".342" stop-color="#B47DEB"/><stop offset=".696" stop-color="#4FD4F3"/></linearGradient><linearGradient id="c" x1="128.841" y1="68.965" x2="130.241" y2="247.791" gradientUnits="userSpaceOnUse"><stop stop-color="#D06EE1"/><stop offset=".342" stop-color="#B47DEB"/><stop offset=".696" stop-color="#4FD4F3"/></linearGradient><linearGradient id="d" x1="152.57" y1="73.75" x2="154.496" y2="247.792" gradientUnits="userSpaceOnUse"><stop stop-color="#D06EE1"/><stop offset=".342" stop-color="#B47DEB"/><stop offset=".696" stop-color="#4FD4F3"/></linearGradient><linearGradient id="e" x1="105.691" y1="-5.396" x2="56.237" y2="38.861" gradientUnits="userSpaceOnUse"><stop stop-color="#AFB6E5"/><stop offset="1" stop-color="#fff"/></linearGradient><filter id="b" x="0" y="190.779" width="129.892" height="74.478" filterUnits="userSpaceOnUse" color-interpolation-filters="sRGB"><feFlood flood-opacity="0" result="BackgroundImageFix"/><feBlend in="SourceGraphic" in2="BackgroundImageFix" result="shape"/><feGaussianBlur stdDeviation="7.5" result="effect1_foregroundBlur_268_103"/></filter></defs></svg>