<svg width="130" height="301" fill="none" xmlns="http://www.w3.org/2000/svg"><path d="M74.147 286.031 15 256.768l41.622-21.844 58.27 28.851-40.745 22.256Z" fill="url(#a)"/><path d="M74.147 286.031 15 256.768v2.061l59.147 29.262v-2.06Z" fill="#F7E4A3"/><path d="M74.147 288.092v-2.061l40.745-22.256v1.648l-40.745 22.669Z" fill="#F1D065"/><g filter="url(#b)"><path d="m56.622 234.924 58.27 28.851-40.707 22.106L15 256.768l41.622-21.844Z" fill="#122632" fill-opacity=".85"/></g><path d="M74.147 284.382 15 255.12V21.844l59.147 29.262v233.276Z" fill="url(#c)"/><path d="M74.147 284.382 15 255.12V21.844l59.147 29.262v233.276Z" fill="#fff" fill-opacity=".4"/><path d="m114.892 28.85-.438 233.276-40.307 22.256V51.106l40.745-22.256Z" fill="url(#d)"/><path d="M74.147 51.106 15 21.844 56.622 0l58.27 28.85-40.745 22.256Z" fill="url(#e)"/><defs><linearGradient id="a" x1="208" y1="202.5" x2="214.247" y2="263.026" gradientUnits="userSpaceOnUse"><stop offset=".068" stop-color="#F83B6C"/><stop offset="1" stop-color="#F1E065"/></linearGradient><linearGradient id="c" x1="128.841" y1="79.009" x2="130.679" y2="283.875" gradientUnits="userSpaceOnUse"><stop offset=".068" stop-color="#F83B6C"/><stop offset="1" stop-color="#F1E065"/></linearGradient><linearGradient id="d" x1="152.57" y1="84.49" x2="155.098" y2="283.872" gradientUnits="userSpaceOnUse"><stop offset=".068" stop-color="#F83B6C"/><stop offset="1" stop-color="#F1E065"/></linearGradient><linearGradient id="e" x1="105.691" y1="-6.182" x2="50.381" y2="37.024" gradientUnits="userSpaceOnUse"><stop stop-color="#AFB6E5"/><stop offset="1" stop-color="#fff"/></linearGradient><filter id="b" x="0" y="219.924" width="129.892" height="80.957" filterUnits="userSpaceOnUse" color-interpolation-filters="sRGB"><feFlood flood-opacity="0" result="BackgroundImageFix"/><feBlend in="SourceGraphic" in2="BackgroundImageFix" result="shape"/><feGaussianBlur stdDeviation="7.5" result="effect1_foregroundBlur_268_107"/></filter></defs></svg>