<svg width="128" height="188" fill="none" xmlns="http://www.w3.org/2000/svg"><path d="m54.673 172.691 57.59-17.667-40.526-13.188L15 159.254l39.673 13.437Z" fill="url(#a)"/><path d="m54.673 172.692 57.59-17.668v1.245l-57.59 17.667v-1.244Z" fill="#3F89EB"/><path d="M54.673 173.936v-1.245L15 159.254v.996l39.673 13.686Z" fill="#97ADFA"/><g filter="url(#b)"><path d="M71.737 141.836 15 159.254l39.636 13.347 57.627-17.577-40.526-13.188Z" fill="#122632" fill-opacity=".85"/></g><path d="m54.673 171.696 57.59-17.667V13.189l-57.59 17.667v140.84Z" fill="url(#c)"/><path d="m15 17.419.427 140.84 39.246 13.437V30.856L15 17.418Z" fill="url(#d)"/><path d="m54.673 30.855 57.59-17.667L71.737 0 15 17.418l39.673 13.438Z" fill="url(#e)"/><path d="m15.438 158.19 38.993 13.535V30.877l-39.43-13.535.437 140.848Z" fill="#fff" fill-opacity=".4"/><defs><linearGradient id="a" x1="-191.112" y1="134.329" x2="-191.591" y2="169.764" gradientUnits="userSpaceOnUse"><stop offset=".352" stop-color="#B4F759"/><stop offset=".484" stop-color="#2DD3AA"/><stop offset=".646" stop-color="#00C7C5"/><stop offset=".777" stop-color="#20A7D9"/><stop offset="1" stop-color="#5277F7"/></linearGradient><linearGradient id="c" x1="-67.367" y1="-25.378" x2="-88.446" y2="154.218" gradientUnits="userSpaceOnUse"><stop offset=".352" stop-color="#B4F759"/><stop offset=".484" stop-color="#2DD3AA"/><stop offset=".646" stop-color="#00C7C5"/><stop offset=".777" stop-color="#20A7D9"/><stop offset="1" stop-color="#5277F7"/></linearGradient><linearGradient id="d" x1="42.164" y1="45.258" x2="-13.063" y2="125.846" gradientUnits="userSpaceOnUse"><stop stop-color="#B4F759"/><stop offset=".4" stop-color="#00C7C5"/><stop offset="1" stop-color="#5277F7"/></linearGradient><linearGradient id="e" x1="136.798" y1="-12.689" x2="81.832" y2="55.691" gradientUnits="userSpaceOnUse"><stop stop-color="#AFB6E5"/><stop offset="1" stop-color="#fff"/></linearGradient><filter id="b" x="0" y="126.836" width="127.263" height="60.765" filterUnits="userSpaceOnUse" color-interpolation-filters="sRGB"><feFlood flood-opacity="0" result="BackgroundImageFix"/><feBlend in="SourceGraphic" in2="BackgroundImageFix" result="shape"/><feGaussianBlur stdDeviation="7.5" result="effect1_foregroundBlur_268_102"/></filter></defs></svg>