<svg width="106" height="81" fill="none" xmlns="http://www.w3.org/2000/svg"><g filter="url(#a)" fill="#122632"><path d="m53.311 43 37.69 11.5L52.866 66 15 54.5 53.311 43Z"/><path d="m53.311 43 37.69 11.5L52.866 66 15 54.5 53.311 43Z"/></g><path d="m15 11.5 40 14v41l-40-14v-41Z" fill="url(#b)"/><path d="M55 25.5 91 14v41L55 66.5v-41Z" fill="url(#c)"/><path d="m53.594 0 37.5 14-36 11.5L15 11.5 53.594 0Z" fill="url(#d)"/><path d="m15 11.5 40.327 14v41L15 52.5v-41Z" fill="url(#e)"/><path opacity=".4" d="m15 11.5 40.327 14v41L15 52.5v-41Z" fill="#fff"/><defs><linearGradient id="b" x1="91.99" y1="23.476" x2="92.109" y2="66.397" gradientUnits="userSpaceOnUse"><stop offset=".068" stop-color="#F83B6C"/><stop offset="1" stop-color="#F1E065"/></linearGradient><linearGradient id="c" x1="124.29" y1="25.431" x2="124.411" y2="66.401" gradientUnits="userSpaceOnUse"><stop offset=".068" stop-color="#F83B6C"/><stop offset="1" stop-color="#F1E065"/></linearGradient><linearGradient id="d" x1="-4.195" y1="-10.487" x2="41.703" y2="43.567" gradientUnits="userSpaceOnUse"><stop stop-color="#AFB6E5"/><stop offset="1" stop-color="#fff"/></linearGradient><linearGradient id="e" x1="92.619" y1="23.476" x2="92.738" y2="66.397" gradientUnits="userSpaceOnUse"><stop offset=".068" stop-color="#F83B6C"/><stop offset="1" stop-color="#F1E065"/></linearGradient><filter id="a" x="0" y="28" width="106" height="53" filterUnits="userSpaceOnUse" color-interpolation-filters="sRGB"><feFlood flood-opacity="0" result="BackgroundImageFix"/><feBlend in="SourceGraphic" in2="BackgroundImageFix" result="shape"/><feGaussianBlur stdDeviation="7.5" result="effect1_foregroundBlur_284_155"/></filter></defs></svg>