<svg width="137" height="120" fill="none" xmlns="http://www.w3.org/2000/svg"><path d="m68.014 104.85 53.638-26.612v1.597l-53.638 26.612v-1.597Z" fill="url(#a)"/><path d="M68.014 106.447v-1.597L15 78.238v1.597l53.014 26.612Z" fill="url(#b)"/><path d="m68.763 52.159 52.889 26.399-53.513 26.398L15 78.558l53.763-26.4Z" fill="url(#c)"/><path d="m68.763 52.159 52.889 26.399-53.513 26.398L15 78.558l53.763-26.4Z" fill="url(#d)"/><g filter="url(#e)" fill="#122632"><path d="m68.763 52.159 52.889 26.399-53.513 26.398L15 78.558l53.763-26.4Z"/><path d="m68.763 52.159 52.889 26.399-53.513 26.398L15 78.558l53.763-26.4Z"/></g><path d="m67.39 53.01 53.888-26.398V77.6l-53.887 26.399V53.011Z" fill="url(#f)"/><path d="M15 26.612 68.139 53.01v50.988L15 77.599V26.613Z" fill="url(#g)"/><path d="M15 26.612 68.139 53v50.999L15 77.599V26.613Z" fill="#fff" fill-opacity=".4"/><path d="m68.763 0 53.139 26.399-53.763 26.399L15 26.398 68.763 0Z" fill="url(#h)"/><defs><linearGradient id="a" x1="120" y1="78" x2="94.809" y2="62.464" gradientUnits="userSpaceOnUse"><stop offset=".004" stop-color="#6AFB93"/><stop offset=".96" stop-color="#F3E965"/></linearGradient><linearGradient id="b" x1="67.833" y1="88.427" x2="49.189" y2="67.412" gradientUnits="userSpaceOnUse"><stop stop-color="#F3E965"/><stop offset="1" stop-color="#6AFB93"/></linearGradient><linearGradient id="c" x1="15.364" y1="71.228" x2="49.873" y2="29.42" gradientUnits="userSpaceOnUse"><stop stop-color="#F3E965"/><stop offset="1" stop-color="#6AFB93"/></linearGradient><linearGradient id="d" x1="15.364" y1="71.228" x2="49.873" y2="29.42" gradientUnits="userSpaceOnUse"><stop stop-color="#F3E965"/><stop offset="1" stop-color="#6AFB93"/></linearGradient><linearGradient id="f" x1="67.575" y1="54.563" x2="104.213" y2="39.261" gradientUnits="userSpaceOnUse"><stop stop-color="#F3E965"/><stop offset="1" stop-color="#6AFB93"/></linearGradient><linearGradient id="g" x1="68.451" y1="75.711" x2="34.593" y2="93.379" gradientUnits="userSpaceOnUse"><stop stop-color="#F3E965"/><stop offset="1" stop-color="#08FA4B"/></linearGradient><linearGradient id="h" x1="110.511" y1="-21.148" x2="26.283" y2="83.459" gradientUnits="userSpaceOnUse"><stop stop-color="#AFB6E5"/><stop offset=".52" stop-color="#E5E9FF"/><stop offset="1" stop-color="#F7F6FB"/></linearGradient><filter id="e" x="0" y="37.159" width="136.652" height="82.798" filterUnits="userSpaceOnUse" color-interpolation-filters="sRGB"><feFlood flood-opacity="0" result="BackgroundImageFix"/><feBlend in="SourceGraphic" in2="BackgroundImageFix" result="shape"/><feGaussianBlur stdDeviation="7.5" result="effect1_foregroundBlur_268_106"/></filter></defs></svg>