<svg width="3601" height="788" fill="none" xmlns="http://www.w3.org/2000/svg"><path d="M0 656.802 303.728 554.45a599.997 599.997 0 0 1 458.578 31.254l197.262 98.01a599.996 599.996 0 0 0 116.682 43.541l24.13 6.244a600.015 600.015 0 0 0 153.22 19.121l4531.9-22.12" stroke="url(#a)" stroke-width="70"/><path d="m149.128 202 418.433 244.354a200.004 200.004 0 0 0 170.212 14.881L1151.64 308.22 5431-1254" stroke="url(#b)" stroke-width="70"/><path d="m306.273 153 400.255 241.896a200 200 0 0 0 173.17 16.284L3109-418l2037-763.5" stroke="url(#c)" stroke-width="70"/><defs><linearGradient id="a" x1="1195.84" y1="753.001" x2="54.242" y2="674.58" gradientUnits="userSpaceOnUse"><stop stop-color="#fff" stop-opacity=".13"/><stop offset=".68" stop-color="#fff" stop-opacity=".809"/><stop offset="1" stop-color="#fff" stop-opacity="0"/></linearGradient><linearGradient id="b" x1="1328.2" y1="303.989" x2="1129.22" y2="-137.669" gradientUnits="userSpaceOnUse"><stop offset=".038" stop-color="#fff" stop-opacity=".13"/><stop offset=".37" stop-color="#fff"/><stop offset=".556" stop-color="#fff"/><stop offset="1" stop-color="#fff" stop-opacity="0"/></linearGradient><linearGradient id="c" x1="1491.17" y1="265.932" x2="1284.6" y2="-189.439" gradientUnits="userSpaceOnUse"><stop offset=".043" stop-color="#fff" stop-opacity=".13"/><stop offset=".471" stop-color="#fff"/><stop offset=".527" stop-color="#fff"/><stop offset="1" stop-color="#fff" stop-opacity="0"/></linearGradient></defs></svg>