<svg xmlns="http://www.w3.org/2000/svg" viewBox="0 0 26 26" width="208" height="208"><path d="M11.563.063a2.71 2.71 0 0 0-2.25 1.187 2.26 2.26 0 0 0-.782-.156A2.407 2.407 0 0 0 6.125 3.5c0 .074.023.148.031.219a2.466 2.466 0 0 0-1.593-.594c-1.329 0-2.407 1.11-2.407 2.438 0 .214.04.394.094.593A2.433 2.433 0 0 0 .125 8.563c0 1.328 1.11 2.406 2.438 2.406.187 0 .355-.055.53-.094A2.854 2.854 0 0 0 2.157 13v.094C.996 13.27.094 14.262.094 15.469a2.405 2.405 0 0 0 3.062 2.312 2.397 2.397 0 0 0 2.375 2.094c.864 0 1.606-.473 2.032-1.156.296.086.613.156.937.156a3.383 3.383 0 0 0 2.688-1.344 148.6 148.6 0 0 0 .468 4c.59 4.649-5.379 2.528-4.594 4.469h11.844c0-1.39-3.863.176-3.937-3.188-.016-.687-.016-2.218-.031-2.75-2.098-1.699-1.973-3.359-1.97-6.343a3.94 3.94 0 0 0 1.657-1.313c.113.086.219.149.344.219a3.153 3.153 0 0 0-.875 2.188c0 1.734 1.418 3.124 3.156 3.124.637 0 1.227-.175 1.719-.5.09.008.156.032.25.032.027 0 .066-.032.093-.032.38.84 1.211 1.438 2.188 1.438a2.407 2.407 0 0 0 1.344-4.406c.031-.168.023-.356.031-.531 1.137-.192 2.031-1.184 2.031-2.376 0-1.234-.93-2.23-2.125-2.374a2.4 2.4 0 0 0-2.375-2.094c-.027 0-.066.031-.093.031a2.44 2.44 0 0 0 .593-1.563A2.407 2.407 0 0 0 18.5 3.156c-.648 0-1.254.242-1.688.656a2.36 2.36 0 0 0-2.28-1.718c-.114 0-.235.015-.345.031A2.71 2.71 0 0 0 11.563.062Z" fill="#5B5B5B"/></svg>