<svg width="45" height="46" viewBox="0 0 45 46" fill="none" xmlns="http://www.w3.org/2000/svg">
<path d="M19.5176 8.15869C18.6896 8.15869 18.0176 8.82445 18.0176 9.64476V34.9079H25.5176V9.64476C25.5176 8.82445 24.8456 8.15869 24.0176 8.15869H19.5176ZM1.51758 11.1308V40.8522H39.0176V37.8801H4.51758V11.1308H1.51758ZM30.0176 11.1308C29.1896 11.1308 28.5176 11.7966 28.5176 12.6169V34.9079H36.0176V12.6169C36.0176 11.7966 35.3456 11.1308 34.5176 11.1308H30.0176ZM9.01758 17.0751C8.18958 17.0751 7.51758 17.7409 7.51758 18.5612V34.9079H15.0176V18.5612C15.0176 17.7409 14.3456 17.0751 13.5176 17.0751H9.01758Z" fill="#78C5D6"/>
</svg>
