<svg xmlns="http://www.w3.org/2000/svg" viewBox="0 0 30 30">
  <path d="M14 3C12.895 3 12 3.895 12 5L4 5C2.895 5 2 5.895 2 7L2 16C2 17.105 2.895 18 4 18L26 18C27.105 18 28 17.105 28 16L28 7C28 5.895 27.105 5 26 5L18 5C18 3.895 17.105 3 16 3L14 3 z M 7 13C7.552 13 8 13.448 8 14L8 15C8 15.552 7.552 16 7 16C6.448 16 6 15.552 6 15L6 14C6 13.448 6.448 13 7 13 z M 23 13C23.552 13 24 13.448 24 14L24 15C24 15.552 23.552 16 23 16C22.448 16 22 15.552 22 15L22 14C22 13.448 22.448 13 23 13 z M 2 19.443359L2 23C2 24.105 2.895 25 4 25L26 25C27.105 25 28 24.105 28 23L28 19.443359C27.409 19.787359 26.732 20 26 20L4 20C3.268 20 2.591 19.787359 2 19.443359 z" fill="#5B5B5B" />
</svg>