<svg width="65" height="65" viewBox="0 0 65 65" fill="none" xmlns="http://www.w3.org/2000/svg">
<path d="M65 32.4825C65 50.8642 49.7534 65.6808 31.2256 64.9758C14.3846 64.3313 0.663881 50.5984 0.0237401 33.7474C-0.656661 15.696 13.3741 0.762598 31.0766 0.00122381C31.8496 -0.0310037 32.4978 0.577289 32.4978 1.35075C32.4978 2.06781 31.9341 2.66402 31.2175 2.69222C15.3589 3.36497 2.69702 16.4453 2.69702 32.4825C2.69702 49.3375 16.6754 62.9213 33.6533 62.2808C48.92 61.7048 61.441 49.3858 62.2542 34.118C62.7011 25.759 59.7017 18.0929 54.5484 12.4249C54.0693 11.8972 54.0935 11.0834 54.6007 10.5759C55.1443 10.032 56.038 10.0522 56.5574 10.6242C61.8033 16.3929 65 24.0711 65 32.4825Z" fill="url(#paint0_linear_157_307)"/>
<defs>
<linearGradient id="paint0_linear_157_307" x1="65" y1="32.5" x2="-1.92592" y2="32.5" gradientUnits="userSpaceOnUse">
<stop stop-color="#4BBADD"/>
<stop offset="1" stop-color="#78C5D6"/>
</linearGradient>
</defs>
</svg>
