<svg width="45" height="46" viewBox="0 0 45 46" fill="none" xmlns="http://www.w3.org/2000/svg">
<path d="M12.8789 3.71191C12.4949 3.71191 12.1109 3.8575 11.8184 4.14729L3.43945 12.4484C2.85295 13.0294 2.85295 13.9702 3.43945 14.5498L12.1289 23.1585L14.25 21.0571L6.62109 13.4991L12.8789 7.29938L14.8184 9.22082L12.8789 11.1423L15 13.2436L16.9394 11.3222L18.5684 12.936L15.4394 16.0358L17.3789 17.9573L22.6289 12.756L20.6894 10.8346L13.9394 4.14729C13.6469 3.8575 13.2629 3.71191 12.8789 3.71191ZM35.7393 5.19798C34.9724 5.19873 34.2039 5.49132 33.6182 6.07163L31.5 8.17012L37.5 14.1144L39.6182 12.0159C40.7897 10.8553 40.7926 8.97664 39.6211 7.81602L37.8574 6.06873C37.2717 5.48842 36.5061 5.19724 35.7393 5.19798ZM28.5 11.1423L7.8457 31.6047L9.74999 32.6902L10.5 34.9193L12.75 35.6624L13.8457 37.549L34.5 17.0865L28.5 11.1423ZM32.8711 22.9031L27.6211 28.1043L29.5605 30.0258L32.6894 26.9259L34.3184 28.5397L32.3789 30.4611L34.5 32.5625L36.4394 30.6411L38.3789 32.5625L32.1211 38.7622L24.4922 31.2042L22.3711 33.3056L31.0605 41.9143C31.353 42.2041 31.7371 42.3497 32.1211 42.3497C32.5051 42.3497 32.8891 42.2041 33.1816 41.9143L41.5605 33.6132C42.147 33.0337 42.147 32.0929 41.5605 31.5118L34.8105 24.8245L32.8711 22.9031ZM5.83886 36.2458L4.55566 39.8361C4.51844 39.9264 4.49953 40.0231 4.49999 40.1206C4.49999 40.3176 4.57901 40.5066 4.71966 40.646C4.86032 40.7853 5.05108 40.8636 5.24999 40.8636C5.34312 40.8641 5.43552 40.8473 5.52246 40.8143L9.16406 39.5401L5.83886 36.2458Z" fill="#78C5D6"/>
</svg>
