<svg xmlns="http://www.w3.org/2000/svg" viewBox="0 0 30 30">
  <path d="M14 3.0507812C11.17 3.2847812 8.6224062 4.4975156 6.6914062 6.3535156C8.5314062 8.4205156 9.7252187 11.077 9.9492188 14L14 14L14 3.0507812 z M 16 3.0507812L16 14L20.050781 14C20.274781 11.077 21.469547 8.4214687 23.310547 6.3554688C21.378547 4.4984687 18.83 3.2857813 16 3.0507812 z M 5.3574219 7.8769531C4.0694219 9.6189531 3.2397813 11.716 3.0507812 14L7.9492188 14C7.7382187 11.674 6.7924219 9.5599531 5.3574219 7.8769531 z M 24.642578 7.8769531C23.207578 9.5599531 22.261781 11.673 22.050781 14L26.949219 14C26.760219 11.716 25.931578 9.6189531 24.642578 7.8769531 z M 3.0507812 16C3.2397813 18.284 4.0684219 20.381047 5.3574219 22.123047C6.7924219 20.440047 7.7382187 18.326 7.9492188 16L3.0507812 16 z M 9.9492188 16C9.7252187 18.923 8.5304531 21.578531 6.6894531 23.644531C8.6204531 25.501531 11.168047 26.715219 13.998047 26.949219L13.998047 16L9.9492188 16 z M 16 16L16 26.949219C18.83 26.715219 21.377594 25.502484 23.308594 23.646484C21.468594 21.579484 20.274781 18.923 20.050781 16L16 16 z M 22.050781 16C22.261781 18.326 23.207578 20.440047 24.642578 22.123047C25.931578 20.381047 26.760219 18.285 26.949219 16L22.050781 16 z" fill="#5B5B5B" />
</svg>