<svg xmlns="http://www.w3.org/2000/svg" viewBox="0 0 30 30">
  <path d="M7 2C5.895 2 5 2.895 5 4L5 26C5 27.105 5.895 28 7 28L16.3125 28C17.0765 25.778 19.064766 25.045297 20.134766 24.654297C20.196766 24.631297 20.266891 24.605125 20.337891 24.578125C20.101891 24.268125 19.878937 23.920828 19.710938 23.548828C19.212937 23.016828 18.849609 22.237766 18.849609 21.259766C18.849609 21.090766 18.861766 20.930297 18.884766 20.779297C18.720766 20.337297 18.585937 19.786016 18.585938 19.166016C18.587937 16.173016 20.864 14 24 14C24.357 14 24.687 14.06525 25 14.15625L25 9.5C25 9.235 24.895031 8.9799688 24.707031 8.7929688L18.207031 2.2929688C18.019031 2.1049688 17.765 2 17.5 2L7 2 z M 17 3.9042969L23.095703 10L18 10C17.448 10 17 9.552 17 9L17 3.9042969 z M 24 15.998047C22.116 15.998047 20.587891 17.134016 20.587891 19.166016C20.587891 20.025016 21.068359 20.693359 21.068359 20.693359C21.068359 20.693359 20.849609 20.800766 20.849609 21.259766C20.849609 22.150766 21.423828 22.365234 21.423828 22.365234C21.503828 23.071234 22.599609 24.105469 22.599609 24.105469L22.599609 25.283203C22.010609 27.052203 18 26.039 18 30L30 30C30 26.039 25.989391 27.052203 25.400391 25.283203L25.400391 24.105469C25.400391 24.105469 26.497172 23.071234 26.576172 22.365234C26.576172 22.365234 27.150391 21.968766 27.150391 21.259766C27.150391 20.767766 26.931641 20.693359 26.931641 20.693359C26.931641 20.693359 27.324219 19.946422 27.324219 19.232422C27.324219 17.801422 26.607391 16.699219 25.400391 16.699219C25.400391 16.699219 24.887 15.998047 24 15.998047 z" fill="#5B5B5B" />
</svg>