<svg width="45" height="46" viewBox="0 0 45 46" fill="none" xmlns="http://www.w3.org/2000/svg">
<path d="M40.4678 5.22998C40.4678 5.22998 27 5.19805 16.5 15.6005C16.0152 16.0808 15.5931 16.6037 15.2109 17.1446C13.3493 16.9972 10.4996 17.0454 9.04102 18.4914C5.63602 21.8648 4.5 27.4891 4.5 27.4891L12 26.4268V28.9751L16.5 33.4333H19.0723L18 40.8637C18 40.8637 23.677 39.7382 27.082 36.3648C28.5416 34.9198 28.5903 32.0966 28.4414 30.2522C28.9875 29.8736 29.5152 29.4554 30 28.9751C40.5 18.5727 40.4678 5.22998 40.4678 5.22998ZM28.5 14.1145C30.1575 14.1145 31.5 15.4445 31.5 17.0866C31.5 18.7287 30.1575 20.0587 28.5 20.0587C26.8425 20.0587 25.5 18.7287 25.5 17.0866C25.5 15.4445 26.8425 14.1145 28.5 14.1145ZM10.7988 30.4554C10.2288 30.604 9.68866 30.8877 9.24316 31.3291C7.19416 33.359 7.52051 37.8683 7.52051 37.8683C7.52051 37.8683 12.0422 38.2184 14.1182 36.1617C14.5637 35.7203 14.85 35.1823 15 34.6176L14.3145 33.9384C14.247 34.0335 14.2052 34.1439 14.1182 34.2286C12.6557 35.6775 10.4619 34.9542 10.4619 34.9542C10.4619 34.9542 9.73034 32.7809 11.1943 31.332C11.2813 31.2458 11.3884 31.2058 11.4844 31.1375L10.7988 30.4554Z" fill="#78C5D6"/>
</svg>
