<svg xmlns="http://www.w3.org/2000/svg" >
<symbol viewBox="0 0 30 30" id="github">
    <path d="M15 0C6.71625 0 0 6.82141 0 15.2349C0 22.3737 4.84 28.347 11.365 30C11.295 29.7943 11.25 29.5557 11.25 29.2598V26.6559C10.6413 26.6559 9.62125 26.6559 9.365 26.6559C8.33875 26.6559 7.42625 26.2078 6.98375 25.3749C6.4925 24.4494 6.4075 23.0339 5.19 22.168C4.82875 21.8798 5.10375 21.551 5.52 21.5954C6.28875 21.8163 6.92625 22.3521 7.52625 23.1468C8.12375 23.9429 8.405 24.1231 9.52125 24.1231C10.0625 24.1231 10.8725 24.0914 11.635 23.9695C12.045 22.912 12.7537 21.9382 13.62 21.4786C8.625 20.9568 6.24125 18.4329 6.24125 15.0063C6.24125 13.5311 6.86 12.1041 7.91125 10.9018C7.56625 9.70842 7.1325 7.27465 8.04375 6.34786C10.2913 6.34786 11.65 7.82818 11.9763 8.2281C13.0963 7.83834 14.3262 7.61744 15.6187 7.61744C16.9137 7.61744 18.1487 7.83834 19.2712 8.23064C19.5937 7.83326 20.9538 6.34786 23.2063 6.34786C24.1213 7.27592 23.6825 9.71985 23.3337 10.9107C24.3787 12.1105 24.9938 13.5336 24.9938 15.0063C24.9938 18.4304 22.6137 20.953 17.6262 21.4774C18.9987 22.2048 20 24.2488 20 25.7888V29.2598C20 29.3919 19.9713 29.4871 19.9563 29.6001C25.8013 27.5193 30 21.8824 30 15.2349C30 6.82141 23.2837 0 15 0Z"/>
</symbol>
<symbol viewBox="0 0 15 24" id="arrow-right">
    <path d="M0.375 1.85454L12 12L0.375 22.1455C-0.125 22.5818 -0.125 23.2727 0.375 23.6727C0.875 24.1091 1.66667 24.1091 2.125 23.6727L14.625 12.7636C14.875 12.5455 15 12.2545 15 12C15 11.7455 14.875 11.4545 14.625 11.2364L2.125 0.327272C1.625 -0.109091 0.833333 -0.109091 0.375 0.327272C-0.125 0.763636 -0.125 1.41818 0.375 1.85454Z"/>
</symbol>
<symbol viewBox="0 0 15 24" id="arrow-left">
    <path d="M14.625 22.1455L3 12L14.625 1.85455C15.125 1.41818 15.125 0.727273 14.625 0.327273C14.125 -0.109091 13.3333 -0.109091 12.875 0.327273L0.375001 11.2364C0.125001 11.4545 0 11.7455 0 12C0 12.2545 0.125001 12.5455 0.375001 12.7636L12.875 23.6727C13.375 24.1091 14.1667 24.1091 14.625 23.6727C15.125 23.2364 15.125 22.5818 14.625 22.1455Z"/>
</symbol>
<symbol viewBox="0 0 30 30" id="homepage">
    <path d="M15 2 A 1 1 0 0 0 14.300781 2.2851562L3.3925781 11.207031 A 1 1 0 0 0 3.3554688 11.236328L3.3183594 11.267578L3.3183594 11.269531 A 1 1 0 0 0 3 12 A 1 1 0 0 0 4 13L5 13L5 24C5 25.105 5.895 26 7 26L23 26C24.105 26 25 25.105 25 24L25 13L26 13 A 1 1 0 0 0 27 12 A 1 1 0 0 0 26.681641 11.267578L26.666016 11.255859 A 1 1 0 0 0 26.597656 11.199219L23 8.2558594L23 4C23 3.448 22.552 3 22 3L21 3C20.448 3 20 3.448 20 4L20 5.8027344L15.677734 2.2675781 A 1 1 0 0 0 15 2 z M 12 16L18 16L18 24L12 24L12 16 z"/>
</symbol>
<symbol viewBox="0 0 30 30" id="day">
    <path d="M14.984375 0.98632812 A 1.0001 1.0001 0 0 0 14 2L14 5 A 1.0001 1.0001 0 1 0 16 5L16 2 A 1.0001 1.0001 0 0 0 14.984375 0.98632812 z M 5.796875 4.7988281 A 1.0001 1.0001 0 0 0 5.1015625 6.515625L7.2226562 8.6367188 A 1.0001 1.0001 0 1 0 8.6367188 7.2226562L6.515625 5.1015625 A 1.0001 1.0001 0 0 0 5.796875 4.7988281 z M 24.171875 4.7988281 A 1.0001 1.0001 0 0 0 23.484375 5.1015625L21.363281 7.2226562 A 1.0001 1.0001 0 1 0 22.777344 8.6367188L24.898438 6.515625 A 1.0001 1.0001 0 0 0 24.171875 4.7988281 z M 15 8 A 7 7 0 0 0 8 15 A 7 7 0 0 0 15 22 A 7 7 0 0 0 22 15 A 7 7 0 0 0 15 8 z M 2 14 A 1.0001 1.0001 0 1 0 2 16L5 16 A 1.0001 1.0001 0 1 0 5 14L2 14 z M 25 14 A 1.0001 1.0001 0 1 0 25 16L28 16 A 1.0001 1.0001 0 1 0 28 14L25 14 z M 7.9101562 21.060547 A 1.0001 1.0001 0 0 0 7.2226562 21.363281L5.1015625 23.484375 A 1.0001 1.0001 0 1 0 6.515625 24.898438L8.6367188 22.777344 A 1.0001 1.0001 0 0 0 7.9101562 21.060547 z M 22.060547 21.060547 A 1.0001 1.0001 0 0 0 21.363281 22.777344L23.484375 24.898438 A 1.0001 1.0001 0 1 0 24.898438 23.484375L22.777344 21.363281 A 1.0001 1.0001 0 0 0 22.060547 21.060547 z M 14.984375 23.986328 A 1.0001 1.0001 0 0 0 14 25L14 28 A 1.0001 1.0001 0 1 0 16 28L16 25 A 1.0001 1.0001 0 0 0 14.984375 23.986328 z"/>
</symbol>
<symbol viewBox="0 0 30 30" id="night">
    <path d="M21.984375 2.4863281 A 1.0001 1.0001 0 0 0 21 3.5L21 4L20.5 4 A 1.0001 1.0001 0 1 0 20.5 6L21 6L21 6.5 A 1.0001 1.0001 0 1 0 23 6.5L23 6L23.5 6 A 1.0001 1.0001 0 1 0 23.5 4L23 4L23 3.5 A 1.0001 1.0001 0 0 0 21.984375 2.4863281 z M 8.5136719 6.046875 A 1.0001 1.0001 0 0 0 8.4335938 6.0507812C5.3980951 6.3391319 3 8.8892308 3 12C3 13.574112 3.6175159 15.00727 4.6171875 16.080078C3.6339019 16.899532 3 18.11811 3 19.5C3 21.985 5.015 24 7.5 24L22.5 24C24.985 24 27 21.985 27 19.5C27 17.535 25.731562 15.881578 23.976562 15.267578C23.853562 12.892578 21.906 11 19.5 11C19.014 11 18.555188 11.096281 18.117188 11.238281C16.991187 9.3032812 14.9 8 12.5 8C11.209979 8 10.011452 8.3801109 9.0019531 9.0292969C9.0018572 9.019295 9 9.0100264 9 9C9 8.4758733 9.1462539 7.989825 9.4003906 7.5390625 A 1.0001 1.0001 0 0 0 8.5136719 6.046875 z M 25.984375 7.9863281 A 1.0001 1.0001 0 0 0 25 9 A 1.0001 1.0001 0 1 0 25 11 A 1.0001 1.0001 0 1 0 27 11 A 1.0001 1.0001 0 1 0 27 9 A 1.0001 1.0001 0 0 0 25.984375 7.9863281 z M 7.1367188 8.4941406C7.1156199 8.674507 7 8.8132397 7 9C7 11.749516 9.2504839 14 12 14C12.18676 14 12.325493 13.88438 12.505859 13.863281C11.84329 15.131864 10.539523 16 9 16C6.7796254 16 5 14.220375 5 12C5 10.460477 5.8681356 9.1567102 7.1367188 8.4941406 z" />
</symbol>
<symbol viewBox="0 0 30 30" id="settings">
    <path d="M15 2C14.448 2 14 2.448 14 3L14 3.171875C14 3.649875 13.663406 4.0763437 13.191406 4.1523438C12.962406 4.1893437 12.735719 4.2322031 12.511719 4.2832031C12.047719 4.3892031 11.578484 4.1265 11.396484 3.6875L11.330078 3.53125C11.119078 3.02125 10.534437 2.7782344 10.023438 2.9902344C9.5134375 3.2012344 9.2704219 3.785875 9.4824219 4.296875L9.5488281 4.4570312C9.7328281 4.8970313 9.5856875 5.4179219 9.1796875 5.6699219C8.9836875 5.7919219 8.7924688 5.9197344 8.6054688 6.0527344C8.2174688 6.3297344 7.68075 6.2666875 7.34375 5.9296875L7.2226562 5.8085938C6.8316562 5.4175937 6.1985937 5.4175938 5.8085938 5.8085938C5.4185938 6.1995938 5.4185938 6.8326563 5.8085938 7.2226562L5.9296875 7.34375C6.2666875 7.68075 6.3297344 8.2164688 6.0527344 8.6054688C5.9197344 8.7924687 5.7919219 8.9836875 5.6699219 9.1796875C5.4179219 9.5856875 4.8960781 9.7337812 4.4550781 9.5507812L4.296875 9.484375C3.786875 9.273375 3.2002813 9.5153906 2.9882812 10.025391C2.7772813 10.535391 3.0192969 11.120031 3.5292969 11.332031L3.6855469 11.396484C4.1245469 11.578484 4.3892031 12.047719 4.2832031 12.511719C4.2322031 12.735719 4.1873906 12.962406 4.1503906 13.191406C4.0753906 13.662406 3.649875 14 3.171875 14L3 14C2.448 14 2 14.448 2 15C2 15.552 2.448 16 3 16L3.171875 16C3.649875 16 4.0763437 16.336594 4.1523438 16.808594C4.1893437 17.037594 4.2322031 17.264281 4.2832031 17.488281C4.3892031 17.952281 4.1265 18.421516 3.6875 18.603516L3.53125 18.669922C3.02125 18.880922 2.7782344 19.465563 2.9902344 19.976562C3.2012344 20.486563 3.785875 20.729578 4.296875 20.517578L4.4570312 20.451172C4.8980312 20.268172 5.418875 20.415312 5.671875 20.820312C5.793875 21.016313 5.9206875 21.208484 6.0546875 21.396484C6.3316875 21.784484 6.2686406 22.321203 5.9316406 22.658203L5.8085938 22.779297C5.4175937 23.170297 5.4175938 23.803359 5.8085938 24.193359C6.1995938 24.583359 6.8326562 24.584359 7.2226562 24.193359L7.3457031 24.072266C7.6827031 23.735266 8.2174688 23.670266 8.6054688 23.947266C8.7934688 24.081266 8.9856406 24.210031 9.1816406 24.332031C9.5866406 24.584031 9.7357344 25.105875 9.5527344 25.546875L9.4863281 25.705078C9.2753281 26.215078 9.5173438 26.801672 10.027344 27.013672C10.537344 27.224672 11.121984 26.982656 11.333984 26.472656L11.398438 26.316406C11.580438 25.877406 12.049672 25.61275 12.513672 25.71875C12.737672 25.76975 12.964359 25.814562 13.193359 25.851562C13.662359 25.924562 14 26.350125 14 26.828125L14 27C14 27.552 14.448 28 15 28C15.552 28 16 27.552 16 27L16 26.828125C16 26.350125 16.336594 25.923656 16.808594 25.847656C17.037594 25.810656 17.264281 25.767797 17.488281 25.716797C17.952281 25.610797 18.421516 25.8735 18.603516 26.3125L18.669922 26.46875C18.880922 26.97875 19.465563 27.221766 19.976562 27.009766C20.486563 26.798766 20.729578 26.214125 20.517578 25.703125L20.451172 25.542969C20.268172 25.101969 20.415312 24.581125 20.820312 24.328125C21.016313 24.206125 21.208484 24.079312 21.396484 23.945312C21.784484 23.668312 22.321203 23.731359 22.658203 24.068359L22.779297 24.191406C23.170297 24.582406 23.803359 24.582406 24.193359 24.191406C24.583359 23.800406 24.584359 23.167344 24.193359 22.777344L24.072266 22.654297C23.735266 22.317297 23.670266 21.782531 23.947266 21.394531C24.081266 21.206531 24.210031 21.014359 24.332031 20.818359C24.584031 20.413359 25.105875 20.264266 25.546875 20.447266L25.705078 20.513672C26.215078 20.724672 26.801672 20.482656 27.013672 19.972656C27.224672 19.462656 26.982656 18.878016 26.472656 18.666016L26.316406 18.601562C25.877406 18.419563 25.61275 17.950328 25.71875 17.486328C25.76975 17.262328 25.814562 17.035641 25.851562 16.806641C25.924562 16.337641 26.350125 16 26.828125 16L27 16C27.552 16 28 15.552 28 15C28 14.448 27.552 14 27 14L26.828125 14C26.350125 14 25.923656 13.663406 25.847656 13.191406C25.810656 12.962406 25.767797 12.735719 25.716797 12.511719C25.610797 12.047719 25.8735 11.578484 26.3125 11.396484L26.46875 11.330078C26.97875 11.119078 27.221766 10.534437 27.009766 10.023438C26.798766 9.5134375 26.214125 9.2704219 25.703125 9.4824219L25.542969 9.5488281C25.101969 9.7318281 24.581125 9.5846875 24.328125 9.1796875C24.206125 8.9836875 24.079312 8.7915156 23.945312 8.6035156C23.668312 8.2155156 23.731359 7.6787969 24.068359 7.3417969L24.191406 7.2207031C24.582406 6.8297031 24.582406 6.1966406 24.191406 5.8066406C23.800406 5.4156406 23.167344 5.4156406 22.777344 5.8066406L22.65625 5.9296875C22.31925 6.2666875 21.782531 6.3316875 21.394531 6.0546875C21.206531 5.9206875 21.014359 5.7919219 20.818359 5.6699219C20.413359 5.4179219 20.266219 4.8960781 20.449219 4.4550781L20.515625 4.296875C20.726625 3.786875 20.484609 3.2002812 19.974609 2.9882812C19.464609 2.7772813 18.879969 3.0192969 18.667969 3.5292969L18.601562 3.6855469C18.419563 4.1245469 17.950328 4.3892031 17.486328 4.2832031C17.262328 4.2322031 17.035641 4.1873906 16.806641 4.1503906C16.336641 4.0753906 16 3.649875 16 3.171875L16 3C16 2.448 15.552 2 15 2 z M 15 7C19.078645 7 22.438586 10.054876 22.931641 14L16.728516 14 A 2 2 0 0 0 15 13 A 2 2 0 0 0 14.998047 13L11.896484 7.625C12.850999 7.222729 13.899211 7 15 7 z M 10.169922 8.6328125L13.269531 14 A 2 2 0 0 0 13 15 A 2 2 0 0 0 13.269531 15.996094L10.167969 21.365234C8.2464258 19.903996 7 17.600071 7 15C7 12.398945 8.2471371 10.093961 10.169922 8.6328125 z M 16.730469 16L22.931641 16C22.438586 19.945124 19.078645 23 15 23C13.899211 23 12.850999 22.777271 11.896484 22.375L14.998047 17 A 2 2 0 0 0 15 17 A 2 2 0 0 0 16.730469 16 z"/>
</symbol>
<symbol viewBox="0 0 30 30" id="play">
    <path d="M6 3 A 1 1 0 0 0 5 4 A 1 1 0 0 0 5 4.0039062L5 15L5 25.996094 A 1 1 0 0 0 5 26 A 1 1 0 0 0 6 27 A 1 1 0 0 0 6.5800781 26.8125L6.5820312 26.814453L26.416016 15.908203 A 1 1 0 0 0 27 15 A 1 1 0 0 0 26.388672 14.078125L6.5820312 3.1855469L6.5800781 3.1855469 A 1 1 0 0 0 6 3 z"/>
</symbol>
<symbol viewBox="0 0 24 24" id="heart">
    <path d="M12 4.52765C9.64418 2.41689 6.02125 2.49347 3.75736 4.75736C1.41421 7.10051 1.41421 10.8995 3.75736 13.2426L10.5858 20.0711C11.3668 20.8521 12.6332 20.8521 13.4142 20.0711L20.2426 13.2426C22.5858 10.8995 22.5858 7.10051 20.2426 4.75736C17.9787 2.49347 14.3558 2.41689 12 4.52765ZM10.8284 6.17157L11.2929 6.63604C11.6834 7.02656 12.3166 7.02656 12.7071 6.63604L13.1716 6.17157C14.7337 4.60948 17.2663 4.60948 18.8284 6.17157C20.3905 7.73367 20.3905 10.2663 18.8284 11.8284L12 18.6569L5.17157 11.8284C3.60948 10.2663 3.60948 7.73367 5.17157 6.17157C6.73367 4.60948 9.26633 4.60948 10.8284 6.17157Z" />
</symbol>
<symbol viewBox="0 0 30 30" id="chat-bubble">
    <path d="M15 3C7.82 3 2 7.925 2 14C2 17.368 3.7933281 20.378484 6.6113281 22.396484C6.6832805 23.932468 6.4452784 26.053382 4.3261719 27.03125 A 0.5 0.5 0 0 0 4.3222656 27.033203 A 0.5 0.5 0 0 0 4 27.5 A 0.5 0.5 0 0 0 4.5 28 A 0.5 0.5 0 0 0 4.5429688 27.998047C6.9769949 27.982445 9.0432734 26.667034 10.46875 25.277344C10.92075 24.836344 11.550875 24.619328 12.171875 24.736328C13.081875 24.909328 14.028 25 15 25C22.18 25 28 20.075 28 14C28 7.925 22.18 3 15 3 z M 9 12C10.105 12 11 12.895 11 14C11 15.105 10.105 16 9 16C7.895 16 7 15.105 7 14C7 12.895 7.895 12 9 12 z M 15 12C16.105 12 17 12.895 17 14C17 15.105 16.105 16 15 16C13.895 16 13 15.105 13 14C13 12.895 13.895 12 15 12 z M 21 12C22.105 12 23 12.895 23 14C23 15.105 22.105 16 21 16C19.895 16 19 15.105 19 14C19 12.895 19.895 12 21 12 z" />
</symbol>
<symbol viewBox="0 0 30 30" id="combo-chart">
    <path d="M24 4 A 2 2 0 0 0 22 6 A 2 2 0 0 0 22.029297 6.3398438L18.6875 9.125 A 2 2 0 0 0 18 9 A 2 2 0 0 0 16.898438 9.3320312L13.994141 7.8789062 A 2 2 0 0 0 12 6 A 2 2 0 0 0 10 8 A 2 2 0 0 0 10.005859 8.1289062L6.8847656 10.208984 A 2 2 0 0 0 6 10 A 2 2 0 0 0 4 12 A 2 2 0 0 0 6 14 A 2 2 0 0 0 8 12 A 2 2 0 0 0 7.9941406 11.873047L11.115234 9.7910156 A 2 2 0 0 0 12 10 A 2 2 0 0 0 13.101562 9.6679688L16.005859 11.121094 A 2 2 0 0 0 18 13 A 2 2 0 0 0 20 11 A 2 2 0 0 0 19.970703 10.660156L23.3125 7.875 A 2 2 0 0 0 24 8 A 2 2 0 0 0 26 6 A 2 2 0 0 0 24 4 z M 23 12C22.448 12 22 12.448 22 13L22 26L26 26L26 13C26 12.448 25.552 12 25 12L23 12 z M 11 14C10.448 14 10 14.448 10 15L10 26L14 26L14 15C14 14.448 13.552 14 13 14L11 14 z M 17 16C16.448 16 16 16.448 16 17L16 26L20 26L20 17C20 16.448 19.552 16 19 16L17 16 z M 5 18C4.448 18 4 18.448 4 19L4 26L8 26L8 19C8 18.448 7.552 18 7 18L5 18 z"/>
</symbol>
</svg>