<svg xmlns="http://www.w3.org/2000/svg" viewBox="0 0 30 30">
  <path d="M15 0C14.083334 0 13.268559 0.37975559 12.751953 0.9609375C12.235347 1.5421194 12 2.2777779 12 3L10 3L8 3C6.3550302 3 5 4.3550302 5 6L5 24C5 25.64497 6.3550302 27 8 27L22 27C23.64497 27 25 25.64497 25 24L25 6C25 4.3550302 23.64497 3 22 3L20 3L18 3C18 2.2777779 17.764653 1.5421194 17.248047 0.9609375C16.731441 0.37975559 15.916666 0 15 0 z M 15 2C15.416666 2 15.601893 2.1202444 15.751953 2.2890625C15.902014 2.4578806 16 2.7222221 16 3C16 3.2777779 15.902014 3.5421194 15.751953 3.7109375C15.601893 3.8797556 15.416666 4 15 4C14.583334 4 14.398107 3.8797556 14.248047 3.7109375C14.097986 3.5421194 14 3.2777779 14 3C14 2.7222221 14.097986 2.4578806 14.248047 2.2890625C14.398107 2.1202444 14.583334 2 15 2 z M 8 5L10 5C10 6.105 10.895 7 12 7L18 7C19.105 7 20 6.105 20 5L22 5C22.56503 5 23 5.4349698 23 6L23 24C23 24.56503 22.56503 25 22 25L8 25C7.4349698 25 7 24.56503 7 24L7 6C7 5.4349698 7.4349698 5 8 5 z M 11 11.5 A 1.5 1.5 0 0 0 11 14.5 A 1.5 1.5 0 0 0 11 11.5 z M 15 12 A 1.0001 1.0001 0 1 0 15 14L19 14 A 1.0001 1.0001 0 1 0 19 12L15 12 z M 11 18 A 1 1 0 0 0 11 20 A 1 1 0 0 0 11 18 z M 15 18 A 1.0001 1.0001 0 1 0 15 20L19 20 A 1.0001 1.0001 0 1 0 19 18L15 18 z" fill="#5B5B5B" />
</svg>