<svg width="1920" height="850" viewBox="0 0 1920 850" fill="none" xmlns="http://www.w3.org/2000/svg">
<g clip-path="url(#clip0_188_181)">
<rect width="1920" height="850" fill="#DEEBF6"/>
<g filter="url(#filter0_dd_188_181)">
<path d="M0 0H1920V170H1415.93C1333.08 170 1265.93 237.157 1265.93 320V495.809V550C1265.93 632.843 1198.77 700 1115.93 700H0V0Z" fill="#E3EDF7"/>
</g>
<path d="M289.8 94L255.2 235H207L187.6 148.6L167.8 235H119.6L85.4 94H127.8L144.2 190.4L166.4 94H209.4L231 189.6L247.4 94H289.8ZM405.634 125.4V148.4H450.634V178.2H405.634V203.6H456.634V235H366.434V94H456.634V125.4H405.634ZM626.005 162.6C634.271 164.467 640.805 168.6 645.605 175C650.538 181.267 653.005 188.467 653.005 196.6C653.005 208.6 648.871 218 640.605 224.8C632.338 231.6 620.738 235 605.805 235H536.005V94H603.605C618.005 94 629.271 97.2 637.405 103.6C645.671 110 649.805 119 649.805 130.6C649.805 138.867 647.605 145.8 643.205 151.4C638.938 156.867 633.205 160.6 626.005 162.6ZM575.205 150H595.005C604.871 150 609.805 145.933 609.805 137.8C609.805 129.4 604.871 125.2 595.005 125.2H575.205V150ZM598.005 203.4C607.871 203.4 612.805 199.267 612.805 191C612.805 186.733 611.471 183.467 608.805 181.2C606.271 178.933 602.605 177.8 597.805 177.8H575.205V203.4H598.005Z" fill="#DEEBF6"/>
<path d="M147 350C161.8 350 174.733 353 185.8 359C197 364.867 205.6 373.133 211.6 383.8C217.6 394.467 220.6 406.667 220.6 420.4C220.6 434 217.533 446.133 211.4 456.8C205.4 467.467 196.8 475.867 185.6 482C174.533 488 161.667 491 147 491H91.2V350H147ZM144 456.4C155.467 456.4 164.467 453.267 171 447C177.533 440.733 180.8 431.867 180.8 420.4C180.8 408.8 177.533 399.867 171 393.6C164.467 387.2 155.467 384 144 384H130.4V456.4H144ZM337.47 381.4V404.4H382.47V434.2H337.47V459.6H388.47V491H298.27V350H388.47V381.4H337.47ZM521.041 492.4C504.641 492.4 491.174 488.533 480.641 480.8C470.107 472.933 464.441 461.733 463.641 447.2H505.441C505.841 452.133 507.307 455.733 509.841 458C512.374 460.267 515.641 461.4 519.641 461.4C523.241 461.4 526.174 460.533 528.441 458.8C530.841 456.933 532.041 454.4 532.041 451.2C532.041 447.067 530.107 443.867 526.241 441.6C522.374 439.333 516.107 436.8 507.441 434C498.241 430.933 490.774 428 485.041 425.2C479.441 422.267 474.507 418.067 470.241 412.6C466.107 407 464.041 399.733 464.041 390.8C464.041 381.733 466.307 374 470.841 367.6C475.374 361.067 481.641 356.133 489.641 352.8C497.641 349.467 506.707 347.8 516.841 347.8C533.241 347.8 546.307 351.667 556.041 359.4C565.907 367 571.174 377.733 571.841 391.6H529.241C529.107 387.333 527.774 384.133 525.241 382C522.841 379.867 519.707 378.8 515.841 378.8C512.907 378.8 510.507 379.667 508.641 381.4C506.774 383.133 505.841 385.6 505.841 388.8C505.841 391.467 506.841 393.8 508.841 395.8C510.974 397.667 513.574 399.333 516.641 400.8C519.707 402.133 524.241 403.867 530.241 406C539.174 409.067 546.507 412.133 552.241 415.2C558.107 418.133 563.107 422.333 567.241 427.8C571.507 433.133 573.641 439.933 573.641 448.2C573.641 456.6 571.507 464.133 567.241 470.8C563.107 477.467 557.041 482.733 549.041 486.6C541.174 490.467 531.841 492.4 521.041 492.4ZM691.064 350V491H651.864V350H691.064ZM863.388 396.4C861.121 392.667 857.988 389.8 853.988 387.8C850.121 385.8 845.521 384.8 840.188 384.8C830.321 384.8 822.521 388 816.788 394.4C811.188 400.8 808.388 409.4 808.388 420.2C808.388 432.333 811.388 441.6 817.388 448C823.521 454.267 832.388 457.4 843.988 457.4C857.721 457.4 867.521 451.2 873.388 438.8H833.988V410.6H907.188V448.6C904.121 456.067 899.588 463.067 893.588 469.6C887.721 476.133 880.254 481.533 871.188 485.8C862.121 489.933 851.788 492 840.188 492C826.054 492 813.521 489 802.588 483C791.788 476.867 783.388 468.4 777.388 457.6C771.521 446.667 768.588 434.2 768.588 420.2C768.588 406.333 771.521 394 777.388 383.2C783.388 372.267 791.788 363.8 802.588 357.8C813.388 351.667 825.854 348.6 839.988 348.6C857.721 348.6 872.388 352.867 883.988 361.4C895.588 369.933 902.788 381.6 905.588 396.4H863.388ZM1115.35 491H1076.15L1023.95 412.2V491H984.755V350H1023.95L1076.15 429.8V350H1115.35V491Z" fill="#DEEBF6"/>
</g>
<defs>
<filter id="filter0_dd_188_181" x="-20" y="-18" width="1960" height="737" filterUnits="userSpaceOnUse" color-interpolation-filters="sRGB">
<feFlood flood-opacity="0" result="BackgroundImageFix"/>
<feColorMatrix in="SourceAlpha" type="matrix" values="0 0 0 0 0 0 0 0 0 0 0 0 0 0 0 0 0 0 127 0" result="hardAlpha"/>
<feOffset dx="4" dy="3"/>
<feGaussianBlur stdDeviation="8"/>
<feComposite in2="hardAlpha" operator="out"/>
<feColorMatrix type="matrix" values="0 0 0 0 0.407843 0 0 0 0 0.517647 0 0 0 0 0.615686 0 0 0 0.5 0"/>
<feBlend mode="normal" in2="BackgroundImageFix" result="effect1_dropShadow_188_181"/>
<feColorMatrix in="SourceAlpha" type="matrix" values="0 0 0 0 0 0 0 0 0 0 0 0 0 0 0 0 0 0 127 0" result="hardAlpha"/>
<feOffset dx="-4" dy="-2"/>
<feGaussianBlur stdDeviation="8"/>
<feComposite in2="hardAlpha" operator="out"/>
<feColorMatrix type="matrix" values="0 0 0 0 1 0 0 0 0 1 0 0 0 0 1 0 0 0 1 0"/>
<feBlend mode="normal" in2="effect1_dropShadow_188_181" result="effect2_dropShadow_188_181"/>
<feBlend mode="normal" in="SourceGraphic" in2="effect2_dropShadow_188_181" result="shape"/>
</filter>
<clipPath id="clip0_188_181">
<rect width="1920" height="850" fill="white"/>
</clipPath>
</defs>
</svg>
