<svg width="6131" height="750" viewBox="0 0 6131 750" fill="none" xmlns="http://www.w3.org/2000/svg">
<g clip-path="url(#clip0_1003_9)">
<path d="M0 0H6131V146.484H5760.45C5677.59 146.484 5610.44 213.642 5610.44 296.484V531.224V600C5610.44 682.843 5543.27 750 5460.43 750H0V0Z" fill="#EBF3FA"/>
<path opacity="0.5" d="M4030.8 449V480.2H3974.4V505H4016V534.8H3974.4V590H3935.2V449H4030.8ZM4178.71 590L4150.71 538H4146.51V590H4107.31V449H4169.11C4180.44 449 4190.04 451 4197.91 455C4205.78 458.867 4211.71 464.267 4215.71 471.2C4219.71 478 4221.71 485.667 4221.71 494.2C4221.71 503.8 4219.04 512.267 4213.71 519.6C4208.51 526.8 4200.84 531.933 4190.71 535L4222.51 590H4178.71ZM4146.51 511.2H4165.91C4171.24 511.2 4175.24 509.933 4177.91 507.4C4180.58 504.867 4181.91 501.2 4181.91 496.4C4181.91 491.867 4180.51 488.333 4177.71 485.8C4175.04 483.133 4171.11 481.8 4165.91 481.8H4146.51V511.2ZM4367.14 591.4C4353.94 591.4 4341.8 588.333 4330.74 582.2C4319.67 575.933 4310.87 567.333 4304.34 556.4C4297.94 545.333 4294.74 532.867 4294.74 519C4294.74 505.133 4297.94 492.733 4304.34 481.8C4310.87 470.733 4319.67 462.133 4330.74 456C4341.8 449.867 4353.94 446.8 4367.14 446.8C4380.47 446.8 4392.6 449.867 4403.54 456C4414.6 462.133 4423.34 470.733 4429.74 481.8C4436.14 492.733 4439.34 505.133 4439.34 519C4439.34 532.867 4436.14 545.333 4429.74 556.4C4423.34 567.333 4414.6 575.933 4403.54 582.2C4392.47 588.333 4380.34 591.4 4367.14 591.4ZM4367.14 555C4377.14 555 4385 551.733 4390.74 545.2C4396.6 538.667 4399.54 529.933 4399.54 519C4399.54 507.8 4396.6 499 4390.74 492.6C4385 486.067 4377.14 482.8 4367.14 482.8C4357 482.8 4349.07 486.067 4343.34 492.6C4337.6 499 4334.74 507.8 4334.74 519C4334.74 530.067 4337.6 538.867 4343.34 545.4C4349.07 551.8 4357 555 4367.14 555ZM4647.56 590H4608.36L4556.16 511.2V590H4516.96V449H4556.16L4608.36 528.8V449H4647.56V590ZM4836.09 449V480.2H4798.49V590H4759.29V480.2H4722.09V449H4836.09ZM4949.79 480.4V503.4H4994.79V533.2H4949.79V558.6H5000.79V590H4910.59V449H5000.79V480.4H4949.79ZM5210.76 590H5171.56L5119.36 511.2V590H5080.16V449H5119.36L5171.56 528.8V449H5210.76V590ZM5348.89 449C5363.69 449 5376.62 452 5387.69 458C5398.89 463.867 5407.49 472.133 5413.49 482.8C5419.49 493.467 5422.49 505.667 5422.49 519.4C5422.49 533 5419.42 545.133 5413.29 555.8C5407.29 566.467 5398.69 574.867 5387.49 581C5376.42 587 5363.56 590 5348.89 590H5293.09V449H5348.89ZM5345.89 555.4C5357.36 555.4 5366.36 552.267 5372.89 546C5379.42 539.733 5382.69 530.867 5382.69 519.4C5382.69 507.8 5379.42 498.867 5372.89 492.6C5366.36 486.2 5357.36 483 5345.89 483H5332.29V555.4H5345.89Z" fill="#DEEBF6"/>
</g>
<defs>
<clipPath id="clip0_1003_9">
<rect width="6131" height="750" fill="white"/>
</clipPath>
</defs>
</svg>
