<svg width="6131" height="850" viewBox="0 0 6131 850" fill="none" xmlns="http://www.w3.org/2000/svg">
<g clip-path="url(#clip0_1003_9)">
<path d="M0 0H6131V166.015H5760.45C5677.59 166.015 5610.44 242.128 5610.44 336.015V602.054V680C5610.44 773.889 5543.27 850 5460.43 850H0V0Z" fill="#EBF3FA"/>
<path opacity="0.5" d="M4305.8 641L4271.2 782H4223L4203.6 695.6L4183.8 782H4135.6L4101.4 641H4143.8L4160.2 737.4L4182.4 641H4225.4L4247 736.6L4263.4 641H4305.8ZM4421.63 672.4V695.4H4466.63V725.2H4421.63V750.6H4472.63V782H4382.43V641H4472.63V672.4H4421.63ZM4591.2 752H4635V782H4552V641H4591.2V752ZM4705.45 711.2C4705.45 697.333 4708.31 685 4714.05 674.2C4719.91 663.267 4728.18 654.8 4738.85 648.8C4749.51 642.667 4761.78 639.6 4775.65 639.6C4793.25 639.6 4808.05 644.333 4820.05 653.8C4832.05 663.133 4839.78 675.867 4843.25 692H4801.05C4798.51 686.667 4794.98 682.6 4790.45 679.8C4786.05 677 4780.91 675.6 4775.05 675.6C4765.98 675.6 4758.71 678.867 4753.25 685.4C4747.91 691.8 4745.25 700.4 4745.25 711.2C4745.25 722.133 4747.91 730.867 4753.25 737.4C4758.71 743.8 4765.98 747 4775.05 747C4780.91 747 4786.05 745.6 4790.45 742.8C4794.98 740 4798.51 735.933 4801.05 730.6H4843.25C4839.78 746.733 4832.05 759.533 4820.05 769C4808.05 778.333 4793.25 783 4775.65 783C4761.78 783 4749.51 780 4738.85 774C4728.18 767.867 4719.91 759.4 4714.05 748.6C4708.31 737.667 4705.45 725.2 4705.45 711.2ZM4989.41 783.4C4976.21 783.4 4964.08 780.333 4953.01 774.2C4941.94 767.933 4933.14 759.333 4926.61 748.4C4920.21 737.333 4917.01 724.867 4917.01 711C4917.01 697.133 4920.21 684.733 4926.61 673.8C4933.14 662.733 4941.94 654.133 4953.01 648C4964.08 641.867 4976.21 638.8 4989.41 638.8C5002.74 638.8 5014.88 641.867 5025.81 648C5036.88 654.133 5045.61 662.733 5052.01 673.8C5058.41 684.733 5061.61 697.133 5061.61 711C5061.61 724.867 5058.41 737.333 5052.01 748.4C5045.61 759.333 5036.88 767.933 5025.81 774.2C5014.74 780.333 5002.61 783.4 4989.41 783.4ZM4989.41 747C4999.41 747 5007.28 743.733 5013.01 737.2C5018.88 730.667 5021.81 721.933 5021.81 711C5021.81 699.8 5018.88 691 5013.01 684.6C5007.28 678.067 4999.41 674.8 4989.41 674.8C4979.28 674.8 4971.34 678.067 4965.61 684.6C4959.88 691 4957.01 699.8 4957.01 711C4957.01 722.067 4959.88 730.867 4965.61 737.4C4971.34 743.8 4979.28 747 4989.41 747ZM5303.83 641V782H5264.63V704.2L5238.03 782H5205.23L5178.43 703.6V782H5139.23V641H5186.63L5222.03 732.6L5256.63 641H5303.83ZM5425.35 672.4V695.4H5470.35V725.2H5425.35V750.6H5476.35V782H5386.15V641H5476.35V672.4H5425.35Z" fill="#DEEBF6"/>
</g>
<defs>
<clipPath id="clip0_1003_9">
<rect width="6131" height="850" fill="white"/>
</clipPath>
</defs>
</svg>
