<svg width="1920" height="850" fill="none" xmlns="http://www.w3.org/2000/svg"><g clip-path="url(#a)"><path fill="#DEEBF6" d="M0 0h1920v850H0z"/><g filter="url(#b)"><path d="M0 0h1920v170h-504.07c-82.85 0-150 67.157-150 150v230c0 82.843-67.16 150-150 150H0V0Z" fill="#E3EDF7"/></g><path d="m289.8 94-34.6 141H207l-19.4-86.4-19.8 86.4h-48.2L85.4 94h42.4l16.4 96.4L166.4 94h43l21.6 95.6L247.4 94h42.4Zm115.834 31.4v23h45v29.8h-45v25.4h51V235h-90.2V94h90.2v31.4h-51Zm220.371 37.2c8.266 1.867 14.8 6 19.6 12.4 4.933 6.267 7.4 13.467 7.4 21.6 0 12-4.134 21.4-12.4 28.2-8.267 6.8-19.867 10.2-34.8 10.2h-69.8V94h67.6c14.4 0 25.666 3.2 33.8 9.6 8.266 6.4 12.4 15.4 12.4 27 0 8.267-2.2 15.2-6.6 20.8-4.267 5.467-10 9.2-17.2 11.2Zm-50.8-12.6h19.8c9.866 0 14.8-4.067 14.8-12.2 0-8.4-4.934-12.6-14.8-12.6h-19.8V150Zm22.8 53.4c9.866 0 14.8-4.133 14.8-12.4 0-4.267-1.334-7.533-4-9.8-2.534-2.267-6.2-3.4-11-3.4h-22.6v25.6h22.8ZM147 350c14.8 0 27.733 3 38.8 9 11.2 5.867 19.8 14.133 25.8 24.8 6 10.667 9 22.867 9 36.6 0 13.6-3.067 25.733-9.2 36.4-6 10.667-14.6 19.067-25.8 25.2-11.067 6-23.933 9-38.6 9H91.2V350H147Zm-3 106.4c11.467 0 20.467-3.133 27-9.4 6.533-6.267 9.8-15.133 9.8-26.6 0-11.6-3.267-20.533-9.8-26.8-6.533-6.4-15.533-9.6-27-9.6h-13.6v72.4H144Zm193.47-75v23h45v29.8h-45v25.4h51V491h-90.2V350h90.2v31.4h-51Zm183.571 111c-16.4 0-29.867-3.867-40.4-11.6-10.534-7.867-16.2-19.067-17-33.6h41.8c.4 4.933 1.866 8.533 4.4 10.8 2.533 2.267 5.8 3.4 9.8 3.4 3.6 0 6.533-.867 8.8-2.6 2.4-1.867 3.6-4.4 3.6-7.6 0-4.133-1.934-7.333-5.8-9.6-3.867-2.267-10.134-4.8-18.8-7.6-9.2-3.067-16.667-6-22.4-8.8-5.6-2.933-10.534-7.133-14.8-12.6-4.134-5.6-6.2-12.867-6.2-21.8 0-9.067 2.266-16.8 6.8-23.2 4.533-6.533 10.8-11.467 18.8-14.8s17.066-5 27.2-5c16.4 0 29.466 3.867 39.2 11.6 9.866 7.6 15.133 18.333 15.8 32.2h-42.6c-.134-4.267-1.467-7.467-4-9.6-2.4-2.133-5.534-3.2-9.4-3.2-2.934 0-5.334.867-7.2 2.6-1.867 1.733-2.8 4.2-2.8 7.4 0 2.667 1 5 3 7 2.133 1.867 4.733 3.533 7.8 5 3.066 1.333 7.6 3.067 13.6 5.2 8.933 3.067 16.266 6.133 22 9.2 5.866 2.933 10.866 7.133 15 12.6 4.266 5.333 6.4 12.133 6.4 20.4 0 8.4-2.134 15.933-6.4 22.6-4.134 6.667-10.2 11.933-18.2 15.8-7.867 3.867-17.2 5.8-28 5.8ZM691.064 350v141h-39.2V350h39.2Zm172.324 46.4c-2.267-3.733-5.4-6.6-9.4-8.6-3.867-2-8.467-3-13.8-3-9.867 0-17.667 3.2-23.4 9.6-5.6 6.4-8.4 15-8.4 25.8 0 12.133 3 21.4 9 27.8 6.133 6.267 15 9.4 26.6 9.4 13.733 0 23.533-6.2 29.4-18.6h-39.4v-28.2h73.2v38c-3.067 7.467-7.6 14.467-13.6 21-5.867 6.533-13.334 11.933-22.4 16.2-9.067 4.133-19.4 6.2-31 6.2-14.134 0-26.667-3-37.6-9-10.8-6.133-19.2-14.6-25.2-25.4-5.867-10.933-8.8-23.4-8.8-37.4 0-13.867 2.933-26.2 8.8-37 6-10.933 14.4-19.4 25.2-25.4 10.8-6.133 23.266-9.2 37.4-9.2 17.733 0 32.4 4.267 44 12.8 11.6 8.533 18.8 20.2 21.6 35h-42.2ZM1115.35 491h-39.2l-52.2-78.8V491h-39.195V350h39.195l52.2 79.8V350h39.2v141Z" fill="#DEEBF6"/></g><defs><clipPath id="a"><path fill="#fff" d="M0 0h1920v850H0z"/></clipPath><filter id="b" x="-20" y="-18" width="1960" height="737" filterUnits="userSpaceOnUse" color-interpolation-filters="sRGB"><feFlood flood-opacity="0" result="BackgroundImageFix"/><feColorMatrix in="SourceAlpha" values="0 0 0 0 0 0 0 0 0 0 0 0 0 0 0 0 0 0 127 0" result="hardAlpha"/><feOffset dx="4" dy="3"/><feGaussianBlur stdDeviation="8"/><feComposite in2="hardAlpha" operator="out"/><feColorMatrix values="0 0 0 0 0.407843 0 0 0 0 0.517647 0 0 0 0 0.615686 0 0 0 0.5 0"/><feBlend in2="BackgroundImageFix" result="effect1_dropShadow_188_181"/><feColorMatrix in="SourceAlpha" values="0 0 0 0 0 0 0 0 0 0 0 0 0 0 0 0 0 0 127 0" result="hardAlpha"/><feOffset dx="-4" dy="-2"/><feGaussianBlur stdDeviation="8"/><feComposite in2="hardAlpha" operator="out"/><feColorMatrix values="0 0 0 0 1 0 0 0 0 1 0 0 0 0 1 0 0 0 1 0"/><feBlend in2="effect1_dropShadow_188_181" result="effect2_dropShadow_188_181"/><feBlend in="SourceGraphic" in2="effect2_dropShadow_188_181" result="shape"/></filter></defs></svg>