<svg width="6131" height="750" fill="none" xmlns="http://www.w3.org/2000/svg"><g clip-path="url(#a)"><path d="M0 0h6131v146.484h-370.55c-82.86 0-150.01 67.158-150.01 150V600c0 82.843-67.17 150-150.01 150H0V0Z" fill="#EBF3FA"/><path opacity=".5" d="M4030.8 449v31.2h-56.4V505h41.6v29.8h-41.6V590h-39.2V449h95.6Zm147.91 141-28-52h-4.2v52h-39.2V449h61.8c11.33 0 20.93 2 28.8 6 7.87 3.867 13.8 9.267 17.8 16.2 4 6.8 6 14.467 6 23 0 9.6-2.67 18.067-8 25.4-5.2 7.2-12.87 12.333-23 15.4l31.8 55h-43.8Zm-32.2-78.8h19.4c5.33 0 9.33-1.267 12-3.8s4-6.2 4-11c0-4.533-1.4-8.067-4.2-10.6-2.67-2.667-6.6-4-11.8-4h-19.4v29.4Zm220.63 80.2c-13.2 0-25.34-3.067-36.4-9.2-11.07-6.267-19.87-14.867-26.4-25.8-6.4-11.067-9.6-23.533-9.6-37.4 0-13.867 3.2-26.267 9.6-37.2 6.53-11.067 15.33-19.667 26.4-25.8 11.06-6.133 23.2-9.2 36.4-9.2 13.33 0 25.46 3.067 36.4 9.2 11.06 6.133 19.8 14.733 26.2 25.8 6.4 10.933 9.6 23.333 9.6 37.2 0 13.867-3.2 26.333-9.6 37.4-6.4 10.933-15.14 19.533-26.2 25.8-11.07 6.133-23.2 9.2-36.4 9.2Zm0-36.4c10 0 17.86-3.267 23.6-9.8 5.86-6.533 8.8-15.267 8.8-26.2 0-11.2-2.94-20-8.8-26.4-5.74-6.533-13.6-9.8-23.6-9.8-10.14 0-18.07 3.267-23.8 9.8-5.74 6.4-8.6 15.2-8.6 26.4 0 11.067 2.86 19.867 8.6 26.4 5.73 6.4 13.66 9.6 23.8 9.6Zm280.42 35h-39.2l-52.2-78.8V590h-39.2V449h39.2l52.2 79.8V449h39.2v141Zm188.53-141v31.2h-37.6V590h-39.2V480.2h-37.2V449h114Zm113.7 31.4v23h45v29.8h-45v25.4h51V590h-90.2V449h90.2v31.4h-51ZM5210.76 590h-39.2l-52.2-78.8V590h-39.2V449h39.2l52.2 79.8V449h39.2v141Zm138.13-141c14.8 0 27.73 3 38.8 9 11.2 5.867 19.8 14.133 25.8 24.8 6 10.667 9 22.867 9 36.6 0 13.6-3.07 25.733-9.2 36.4-6 10.667-14.6 19.067-25.8 25.2-11.07 6-23.93 9-38.6 9h-55.8V449h55.8Zm-3 106.4c11.47 0 20.47-3.133 27-9.4 6.53-6.267 9.8-15.133 9.8-26.6 0-11.6-3.27-20.533-9.8-26.8-6.53-6.4-15.53-9.6-27-9.6h-13.6v72.4h13.6Z" fill="#DEEBF6"/></g><defs><clipPath id="a"><path fill="#fff" d="M0 0h6131v750H0z"/></clipPath></defs></svg>