<svg width="6131" height="850" fill="none" xmlns="http://www.w3.org/2000/svg"><g clip-path="url(#a)"><path d="M0 0h6131v166.015h-370.55c-82.86 0-150.01 76.113-150.01 170V680c0 93.889-67.17 170-150.01 170H0V0Z" fill="#EBF3FA"/><path opacity=".5" d="m4305.8 641-34.6 141H4223l-19.4-86.4-19.8 86.4h-48.2l-34.2-141h42.4l16.4 96.4 22.2-96.4h43l21.6 95.6 16.4-95.6h42.4Zm115.83 31.4v23h45v29.8h-45v25.4h51V782h-90.2V641h90.2v31.4h-51ZM4591.2 752h43.8v30h-83V641h39.2v111Zm114.25-40.8c0-13.867 2.86-26.2 8.6-37 5.86-10.933 14.13-19.4 24.8-25.4 10.66-6.133 22.93-9.2 36.8-9.2 17.6 0 32.4 4.733 44.4 14.2 12 9.333 19.73 22.067 23.2 38.2h-42.2c-2.54-5.333-6.07-9.4-10.6-12.2-4.4-2.8-9.54-4.2-15.4-4.2-9.07 0-16.34 3.267-21.8 9.8-5.34 6.4-8 15-8 25.8 0 10.933 2.66 19.667 8 26.2 5.46 6.4 12.73 9.6 21.8 9.6 5.86 0 11-1.4 15.4-4.2 4.53-2.8 8.06-6.867 10.6-12.2h42.2c-3.47 16.133-11.2 28.933-23.2 38.4-12 9.333-26.8 14-44.4 14-13.87 0-26.14-3-36.8-9-10.67-6.133-18.94-14.6-24.8-25.4-5.74-10.933-8.6-23.4-8.6-37.4Zm283.96 72.2c-13.2 0-25.33-3.067-36.4-9.2-11.07-6.267-19.87-14.867-26.4-25.8-6.4-11.067-9.6-23.533-9.6-37.4 0-13.867 3.2-26.267 9.6-37.2 6.53-11.067 15.33-19.667 26.4-25.8 11.07-6.133 23.2-9.2 36.4-9.2 13.33 0 25.47 3.067 36.4 9.2 11.07 6.133 19.8 14.733 26.2 25.8 6.4 10.933 9.6 23.333 9.6 37.2 0 13.867-3.2 26.333-9.6 37.4-6.4 10.933-15.13 19.533-26.2 25.8-11.07 6.133-23.2 9.2-36.4 9.2Zm0-36.4c10 0 17.87-3.267 23.6-9.8 5.87-6.533 8.8-15.267 8.8-26.2 0-11.2-2.93-20-8.8-26.4-5.73-6.533-13.6-9.8-23.6-9.8-10.13 0-18.07 3.267-23.8 9.8-5.73 6.4-8.6 15.2-8.6 26.4 0 11.067 2.87 19.867 8.6 26.4 5.73 6.4 13.67 9.6 23.8 9.6Zm314.42-106v141h-39.2v-77.8l-26.6 77.8h-32.8l-26.8-78.4V782h-39.2V641h47.4l35.4 91.6 34.6-91.6h47.2Zm121.52 31.4v23h45v29.8h-45v25.4h51V782h-90.2V641h90.2v31.4h-51Z" fill="#DEEBF6"/></g><defs><clipPath id="a"><path fill="#fff" d="M0 0h6131v850H0z"/></clipPath></defs></svg>