<svg width="178" height="434" viewBox="0 0 178 434" fill="none" xmlns="http://www.w3.org/2000/svg">
<path d="M177.5 367.75C177.5 377.25 175.75 386 172.25 394C168.583 401.833 163.583 408.75 157.25 414.75C150.917 420.583 143.667 425.167 135.5 428.5C127.333 431.667 118.667 433.25 109.5 433.25C97.1667 433.25 85.9167 430.5 75.75 425C65.5833 419.5 57.5 411.833 51.5 402C45.5 392.167 42.5 380.833 42.5 368C42.5 355.833 45.3333 345.083 51 335.75C56.5 326.417 64 319.5 73.5 315L78.75 331.5C72.0833 335.167 66.9167 340.333 63.25 347C59.4167 353.5 57.5 360.75 57.5 368.75C57.5 377.417 59.75 385.333 64.25 392.5C68.75 399.667 74.9167 405.417 82.75 409.75C90.5833 413.917 99.5 416 109.5 416C119.333 416 128.25 413.833 136.25 409.5C144.25 405.167 150.667 399.417 155.5 392.25C160.167 385.083 162.5 377.167 162.5 368.5C162.5 362.833 161.5 357.417 159.5 352.25C157.5 346.917 154.833 342.333 151.5 338.5C148 334.5 144.25 331.833 140.25 330.5L145.25 313.75C151.417 316.083 157 320 162 325.5C166.833 330.833 170.667 337.167 173.5 344.5C176.167 351.667 177.5 359.417 177.5 367.75ZM137.5 297.543C129.333 297.543 122.333 295.21 116.5 290.543C110.5 285.876 105.917 279.46 102.75 271.293C99.4167 262.96 97.75 253.376 97.75 242.543C97.75 236.21 98.25 229.626 99.25 222.793C100.25 215.96 101.75 209.876 103.75 204.543H92.75C81.75 204.543 73 207.793 66.5 214.293C60 220.793 56.75 229.793 56.75 241.293C56.75 248.293 58.0833 255.21 60.75 262.043C63.25 268.71 67 275.71 72 283.043L60 289.543C54.1667 281.043 49.8333 272.71 47 264.543C44 256.376 42.5 248.043 42.5 239.543C42.5 223.543 47.0833 210.876 56.25 201.543C65.4167 192.21 78.0833 187.543 94.25 187.543L154.5 187.543C156.833 187.543 158.583 187.043 159.75 186.043C160.75 185.043 161.333 183.46 161.5 181.293H175C175.167 183.126 175.333 184.71 175.5 186.043C175.667 187.376 175.667 188.376 175.5 189.043C175.333 193.21 174 196.376 171.5 198.543C169 200.71 166.333 201.876 163.5 202.043L154 202.293C161.5 208.126 167.333 215.71 171.5 225.043C175.5 234.376 177.5 243.876 177.5 253.543C177.5 261.876 175.75 269.46 172.25 276.293C168.583 282.96 163.75 288.21 157.75 292.043C151.583 295.71 144.833 297.543 137.5 297.543ZM147.5 210.293C145.167 208.46 142.917 207.043 140.75 206.043C138.583 205.043 136.667 204.543 135 204.543L116 204.543C113.833 210.21 112.167 216.126 111 222.293C109.833 228.293 109.25 234.376 109.25 240.543C109.25 252.71 111.667 262.543 116.5 270.043C121.333 277.543 127.917 281.293 136.25 281.293C141.083 281.293 145.667 280.043 150 277.543C154.167 275.043 157.667 271.376 160.5 266.543C163.167 261.71 164.5 256.043 164.5 249.543C164.5 241.376 162.917 233.793 159.75 226.793C156.583 219.626 152.5 214.126 147.5 210.293ZM59.75 85.8125C60.0833 97.1458 63.25 107.146 69.25 115.812C75.25 124.312 83.5 130.312 94 133.812H175V150.812H44.75V134.812H76C66.8333 130.312 59.4167 124.396 53.75 117.062C48.0833 109.562 44.9167 101.646 44.25 93.3125C44.0833 91.6458 44 90.2292 44 89.0625C44 87.7292 44.0833 86.6458 44.25 85.8125H59.75ZM168.75 0.666011C169.25 1.99935 170.167 4.08268 171.5 6.91601C172.833 9.74934 174 13.166 175 17.166C176 21.166 176.5 25.4993 176.5 30.166C176.5 34.9993 175.583 39.5827 173.75 43.916C171.917 48.0827 169.167 51.416 165.5 53.916C161.667 56.416 157 57.666 151.5 57.666H58.25V75.666H44.75V57.666H0.749993V40.666H44.75V10.666H58.25V40.666H146.75C151.417 40.3327 154.917 38.666 157.25 35.666C159.583 32.4993 160.75 28.916 160.75 24.916C160.75 20.2493 160 15.9993 158.5 12.166C156.833 8.33268 155.667 5.99935 155 5.16601L168.75 0.666011Z" fill="white" fill-opacity="0.29"/>
</svg>
