<svg width="113" height="369" viewBox="0 0 113 369" fill="none" xmlns="http://www.w3.org/2000/svg">
<path d="M72.05 11V0.2H80.15V11H82.25C85.95 11 89.6 11.55 93.2 12.65C96.8 13.75 100.1 15.4 103.1 17.6C106.1 19.9 108.5 22.75 110.3 26.15C112.1 29.65 113 33.8 113 38.6C113 42.3 112.6 45.6 111.8 48.5C111 51.5 110.05 54.1 108.95 56.3C107.85 58.5 106.85 60.15 105.95 61.25L98.6 56.6C100.1 55 101.35 52.6 102.35 49.4C103.45 46.3 104 42.9 104 39.2C104 35 102.9 31.55 100.7 28.85C98.6 26.25 95.9 24.3 92.6 23C89.3 21.8 85.95 21.2 82.55 21.2H80.15V60.35L2 60.35V50.15H72.05V21.2L2 21.2V11L72.05 11ZM111.5 83.2859V93.4859L19.7 93.4859C15.8 93.4859 13.25 94.1859 12.05 95.5859C10.85 96.9859 10.25 98.6859 10.25 100.686C10.25 102.486 10.45 104.286 10.85 106.086C11.25 107.886 11.65 109.436 12.05 110.736L3.8 112.536C3 110.636 2.35 108.286 1.85 105.486C1.35 102.786 1.1 100.436 1.1 98.4359C1.1 93.8359 2.45 90.1359 5.15 87.3359C7.85 84.6359 11.55 83.2859 16.25 83.2859L111.5 83.2859ZM5.75 161.205C5.45 160.405 4.9 159.155 4.1 157.455C3.3 155.755 2.6 153.705 2 151.305C1.4 148.905 1.1 146.305 1.1 143.505C1.1 140.605 1.65 137.855 2.75 135.255C3.85 132.755 5.5 130.755 7.7 129.255C10 127.755 12.8 127.005 16.1 127.005H72.05V116.205H80.15V127.005H106.55V137.205H80.15V155.205H72.05V137.205H18.95C16.15 137.405 14.05 138.405 12.65 140.205C11.25 142.105 10.55 144.255 10.55 146.655C10.55 149.455 11 152.005 11.9 154.305C12.9 156.605 13.6 158.005 14 158.505L5.75 161.205ZM0.5 206.381C0.5 200.781 1.55 195.581 3.65 190.781C5.85 185.981 8.8 181.831 12.5 178.331C16.3 174.831 20.65 172.081 25.55 170.081C30.45 168.181 35.7 167.231 41.3 167.231C48.6 167.231 55.3 168.881 61.4 172.181C67.5 175.581 72.35 180.231 75.95 186.131C79.65 192.031 81.5 198.731 81.5 206.231C81.5 213.931 79.65 220.631 75.95 226.331C72.25 232.131 67.35 236.681 61.25 239.981C55.25 243.281 48.65 244.931 41.45 244.931C40.65 244.931 39.85 244.931 39.05 244.931C38.35 244.931 37.8 244.881 37.4 244.781L37.4 177.881C31.8 178.381 26.8 179.931 22.4 182.531C18.1 185.231 14.65 188.681 12.05 192.881C9.55 197.181 8.3 201.831 8.3 206.831C8.3 211.931 9.6 216.731 12.2 221.231C14.8 225.831 18.2 229.031 22.4 230.831L20 239.681C16.3 238.081 12.95 235.631 9.95 232.331C6.95 229.031 4.6 225.131 2.9 220.631C1.3 216.231 0.5 211.481 0.5 206.381ZM44.75 177.581L44.75 235.331C50.45 234.931 55.45 233.381 59.75 230.681C64.05 228.081 67.4 224.631 69.8 220.331C72.3 216.131 73.55 211.481 73.55 206.381C73.55 201.281 72.3 196.631 69.8 192.431C67.4 188.231 64 184.781 59.6 182.081C55.3 179.481 50.35 177.981 44.75 177.581ZM71.15 299.668C70.95 292.868 69.05 286.868 65.45 281.668C61.85 276.568 56.9 272.968 50.6 270.868H2V260.668H80.15V270.268H61.4C66.9 272.968 71.35 276.518 74.75 280.918C78.15 285.418 80.05 290.168 80.45 295.168C80.55 296.168 80.6 297.018 80.6 297.718C80.6 298.518 80.55 299.168 80.45 299.668H71.15ZM0.5 338.906C0.5 332.506 1.55 326.556 3.65 321.056C5.75 315.556 8.95 310.806 13.25 306.806L20.45 311.006C16.35 315.406 13.35 319.806 11.45 324.206C9.65 328.706 8.75 333.456 8.75 338.456C8.75 344.556 9.95 349.506 12.35 353.306C14.85 357.106 18.4 359.006 23 359.006C26.1 359.006 28.45 358.056 30.05 356.156C31.75 354.356 33.1 351.706 34.1 348.206C35.2 344.806 36.35 340.706 37.55 335.906C39.05 330.506 40.6 325.956 42.2 322.256C43.9 318.656 46 315.906 48.5 314.006C51.1 312.206 54.45 311.306 58.55 311.306C63.65 311.306 67.85 312.556 71.15 315.056C74.55 317.656 77.1 321.156 78.8 325.556C80.6 330.056 81.5 335.056 81.5 340.556C81.5 346.556 80.55 351.856 78.65 356.456C76.75 361.056 74.1 364.806 70.7 367.706L63.8 362.756C67 359.956 69.35 356.606 70.85 352.706C72.45 348.906 73.25 344.656 73.25 339.956C73.25 336.756 72.8 333.706 71.9 330.806C71.1 327.906 69.7 325.506 67.7 323.606C65.8 321.806 63.15 320.906 59.75 320.906C56.95 320.906 54.75 321.606 53.15 323.006C51.65 324.406 50.35 326.506 49.25 329.306C48.25 332.106 47.15 335.556 45.95 339.656C44.35 345.556 42.7 350.706 41 355.106C39.4 359.506 37.3 362.906 34.7 365.306C32.1 367.706 28.45 368.906 23.75 368.906C16.45 368.906 10.75 366.156 6.65 360.656C2.55 355.156 0.5 347.906 0.5 338.906Z" fill="#A1B350" fill-opacity="0.47"/>
</svg>
