<svg width="142" height="535" viewBox="0 0 142 535" fill="none" xmlns="http://www.w3.org/2000/svg">
<path d="M30.5 40.15C30.5 33.65 32.2 27.8 35.6 22.6C39 17.5 43.2 13.45 48.2 10.45L0.0499978 10.45V0.25L110.15 0.25V9.4H95C99.9 12.5 103.85 16.65 106.85 21.85C109.95 27.05 111.5 32.6 111.5 38.5C111.5 43.9 110.35 48.85 108.05 53.35C105.85 57.85 102.85 61.75 99.05 65.05C95.25 68.35 90.9 70.9 86 72.7C81.2 74.6 76.2 75.55 71 75.55C63.7 75.55 56.95 74.05 50.75 71.05C44.65 68.15 39.75 64.05 36.05 58.75C32.35 53.45 30.5 47.25 30.5 40.15ZM39.5 37.3C39.5 41.6 40.35 45.45 42.05 48.85C43.85 52.25 46.25 55.15 49.25 57.55C52.25 60.05 55.6 61.95 59.3 63.25C63.1 64.55 67 65.2 71 65.2C75.2 65.2 79.2 64.45 83 62.95C86.8 61.55 90.15 59.5 93.05 56.8C95.95 54.1 98.25 51 99.95 47.5C101.65 44 102.5 40.2 102.5 36.1C102.5 33.5 102 30.8 101 28C100 25.2 98.55 22.5 96.65 19.9C94.85 17.4 92.8 15.3 90.5 13.6C88.2 11.9 85.75 10.85 83.15 10.45L59.15 10.45C55.45 12.05 52.1 14.2 49.1 16.9C46.2 19.6 43.85 22.7 42.05 26.2C40.35 29.8 39.5 33.5 39.5 37.3ZM101.15 131.828C100.95 125.028 99.05 119.028 95.45 113.828C91.85 108.728 86.9 105.128 80.6 103.028H32V92.8281L110.15 92.8281V102.428H91.4C96.9 105.128 101.35 108.678 104.75 113.078C108.15 117.578 110.05 122.328 110.45 127.328C110.55 128.328 110.6 129.178 110.6 129.878C110.6 130.678 110.55 131.328 110.45 131.828H101.15ZM30.5 176.226C30.5 170.626 31.55 165.426 33.65 160.626C35.85 155.926 38.8 151.826 42.5 148.326C46.3 144.926 50.6 142.276 55.4 140.376C60.3 138.476 65.45 137.526 70.85 137.526C76.45 137.526 81.65 138.476 86.45 140.376C91.35 142.276 95.65 144.976 99.35 148.476C103.15 151.976 106.1 156.076 108.2 160.776C110.4 165.576 111.5 170.776 111.5 176.376C111.5 181.976 110.4 187.126 108.2 191.826C106.1 196.526 103.15 200.626 99.35 204.126C95.65 207.626 91.35 210.326 86.45 212.226C81.65 214.126 76.45 215.076 70.85 215.076C65.45 215.076 60.3 214.126 55.4 212.226C50.6 210.326 46.3 207.626 42.5 204.126C38.8 200.726 35.85 196.626 33.65 191.826C31.55 187.126 30.5 181.926 30.5 176.226ZM70.7 147.876C64.9 147.876 59.6 149.126 54.8 151.626C50.1 154.226 46.35 157.676 43.55 161.976C40.85 166.276 39.5 171.026 39.5 176.226C39.5 181.426 40.9 186.176 43.7 190.476C46.5 194.776 50.3 198.226 55.1 200.826C60 203.426 65.3 204.726 71 204.726C76.8 204.726 82.1 203.426 86.9 200.826C91.7 198.226 95.5 194.776 98.3 190.476C101.1 186.176 102.5 181.426 102.5 176.226C102.5 171.026 101.05 166.276 98.15 161.976C95.25 157.776 91.4 154.376 86.6 151.776C81.9 149.176 76.6 147.876 70.7 147.876ZM70.85 226.885C78.25 226.885 85 228.385 91.1 231.385C97.3 234.485 102.25 238.735 105.95 244.135C109.65 249.535 111.5 255.685 111.5 262.585C111.5 269.085 109.75 274.885 106.25 279.985C102.85 285.185 98.7 289.235 93.8 292.135H141.5V302.335H44.3C42.9 302.335 41.85 302.635 41.15 303.235C40.55 303.835 40.2 304.735 40.1 305.935H32C31.7 303.935 31.6 302.385 31.7 301.285C31.8 299.185 32.65 297.335 34.25 295.735C35.85 294.135 37.6 293.335 39.5 293.335H47.15C42.05 290.235 38 286.035 35 280.735C32 275.435 30.5 269.935 30.5 264.235C30.5 258.835 31.6 253.835 33.8 249.235C36 244.735 39 240.785 42.8 237.385C46.6 234.085 50.9 231.485 55.7 229.585C60.6 227.785 65.65 226.885 70.85 226.885ZM58.85 292.135H83C86.6 290.835 89.85 288.735 92.75 285.835C95.75 282.935 98.1 279.635 99.8 275.935C101.6 272.335 102.5 268.735 102.5 265.135C102.5 260.935 101.6 257.135 99.8 253.735C98.1 250.335 95.75 247.385 92.75 244.885C89.75 242.485 86.35 240.635 82.55 239.335C78.75 238.035 74.85 237.385 70.85 237.385C66.65 237.385 62.65 238.085 58.85 239.485C55.05 240.985 51.65 243.085 48.65 245.785C45.75 248.485 43.5 251.585 41.9 255.085C40.3 258.585 39.5 262.385 39.5 266.485C39.5 269.085 40 271.785 41 274.585C42 277.385 43.35 280.035 45.05 282.535C46.85 285.135 48.95 287.285 51.35 288.985C53.75 290.685 56.25 291.735 58.85 292.135ZM64.25 324.695H110.15V334.895H66.05C57.15 334.895 50.5 336.395 46.1 339.395C41.7 342.495 39.5 347.045 39.5 353.045C39.5 357.045 40.35 360.895 42.05 364.595C43.85 368.395 46.35 371.745 49.55 374.645C52.85 377.545 56.65 379.745 60.95 381.245H110.15V391.445H44.3C42.9 391.445 41.85 391.745 41.15 392.345C40.55 392.945 40.2 393.845 40.1 395.045H32C31.9 393.845 31.85 392.895 31.85 392.195C31.75 391.495 31.7 390.845 31.7 390.245C31.9 388.245 32.7 386.495 34.1 384.995C35.5 383.595 37.2 382.845 39.2 382.745L49.7 382.445C43.7 379.045 39 374.395 35.6 368.495C32.2 362.695 30.5 356.395 30.5 349.595C30.5 341.395 33.35 335.195 39.05 330.995C44.75 326.795 53.15 324.695 64.25 324.695ZM30.5 448.408C30.5 442.708 31.55 437.458 33.65 432.658C35.85 427.958 38.85 423.808 42.65 420.208C46.45 416.708 50.8 413.958 55.7 411.958C60.6 410.058 65.8 409.108 71.3 409.108C78.7 409.108 85.45 410.758 91.55 414.058C97.65 417.358 102.5 421.958 106.1 427.858C109.7 433.758 111.5 440.558 111.5 448.258C111.5 455.558 109.8 462.008 106.4 467.608C103.1 473.208 98.6 477.358 92.9 480.058L89.75 470.158C93.75 467.958 96.85 464.858 99.05 460.858C101.35 456.958 102.5 452.608 102.5 447.808C102.5 442.608 101.15 437.858 98.45 433.558C95.75 429.258 92.05 425.808 87.35 423.208C82.65 420.708 77.3 419.458 71.3 419.458C65.4 419.458 60.05 420.758 55.25 423.358C50.45 425.958 46.6 429.408 43.7 433.708C40.9 438.008 39.5 442.758 39.5 447.958C39.5 451.358 40.1 454.608 41.3 457.708C42.5 460.908 44.1 463.658 46.1 465.958C48.2 468.358 50.45 469.958 52.85 470.758L49.85 480.808C46.15 479.408 42.8 477.058 39.8 473.758C36.9 470.558 34.6 466.758 32.9 462.358C31.3 458.058 30.5 453.408 30.5 448.408ZM35.75 534.332C35.45 533.532 34.9 532.282 34.1 530.582C33.3 528.882 32.6 526.832 32 524.432C31.4 522.032 31.1 519.432 31.1 516.632C31.1 513.732 31.65 510.982 32.75 508.382C33.85 505.882 35.5 503.882 37.7 502.382C40 500.882 42.8 500.132 46.1 500.132H102.05V489.332H110.15V500.132H136.55V510.332H110.15V528.332H102.05V510.332H48.95C46.15 510.532 44.05 511.532 42.65 513.332C41.25 515.232 40.55 517.382 40.55 519.782C40.55 522.582 41 525.132 41.9 527.432C42.9 529.732 43.6 531.132 44 531.632L35.75 534.332Z" fill="#A1B350" fill-opacity="0.47"/>
</svg>
