<svg width="237" height="552" viewBox="0 0 237 552" fill="none" xmlns="http://www.w3.org/2000/svg">
<path d="M185.5 498.5C185.5 509.167 183.75 519.083 180.25 528.25C176.75 537.417 171.417 545.333 164.25 552L152.25 545C159.083 537.667 164.083 530.333 167.25 523C170.25 515.5 171.75 507.583 171.75 499.25C171.75 489.083 169.75 480.833 165.75 474.5C161.583 468.167 155.667 465 148 465C142.833 465 138.917 466.583 136.25 469.75C133.417 472.75 131.167 477.167 129.5 483C127.667 488.667 125.75 495.5 123.75 503.5C121.25 512.5 118.667 520.083 116 526.25C113.167 532.25 109.667 536.833 105.5 540C101.167 543 95.5833 544.5 88.75 544.5C80.25 544.5 73.25 542.417 67.75 538.25C62.0833 533.917 57.8333 528.083 55 520.75C52 513.25 50.5 504.917 50.5 495.75C50.5 485.75 52.0833 476.917 55.25 469.25C58.4167 461.583 62.8333 455.333 68.5 450.5L80 458.75C74.6667 463.417 70.75 469 68.25 475.5C65.5833 481.833 64.25 488.917 64.25 496.75C64.25 502.083 65 507.167 66.5 512C67.8333 516.833 70.1667 520.833 73.5 524C76.6667 527 81.0833 528.5 86.75 528.5C91.4167 528.5 95.0833 527.333 97.75 525C100.25 522.667 102.417 519.167 104.25 514.5C105.917 509.833 107.75 504.083 109.75 497.25C112.417 487.417 115.167 478.833 118 471.5C120.667 464.167 124.167 458.5 128.5 454.5C132.833 450.5 138.917 448.5 146.75 448.5C158.917 448.5 168.417 453.083 175.25 462.25C182.083 471.417 185.5 483.5 185.5 498.5ZM183 310.9V327.9H110.25C95.5833 327.9 84.5833 330.484 77.25 335.65C69.75 340.817 66 348.234 66 357.9C66 364.234 67.6667 370.567 71 376.9C74.1667 383.067 78.5833 388.567 84.25 393.4C89.75 398.067 96.0833 401.4 103.25 403.4H183V420.4H0.499995V403.4H82.25C72.5833 398.234 64.9167 391.067 59.25 381.9C53.4167 372.567 50.5 362.65 50.5 352.15C50.5 344.65 51.8333 338.317 54.5 333.15C57.1667 327.817 61.0833 323.567 66.25 320.4C71.25 317.067 77.1667 314.65 84 313.15C90.6667 311.65 98.25 310.9 106.75 310.9H183ZM185.5 219.148C185.5 228.482 183.75 237.148 180.25 245.148C176.583 252.982 171.667 259.815 165.5 265.648C159.167 271.315 152 275.732 144 278.898C135.833 282.065 127.25 283.648 118.25 283.648C108.917 283.648 100.25 282.065 92.25 278.898C84.0833 275.732 76.9167 271.232 70.75 265.398C64.4167 259.565 59.5 252.732 56 244.898C52.3333 236.898 50.5 228.232 50.5 218.898C50.5 209.565 52.3333 200.982 56 193.148C59.5 185.315 64.4167 178.482 70.75 172.648C76.9167 166.815 84.0833 162.315 92.25 159.148C100.25 155.982 108.917 154.398 118.25 154.398C127.25 154.398 135.833 155.982 144 159.148C152 162.315 159.167 166.815 165.5 172.648C171.667 178.315 176.583 185.148 180.25 193.148C183.75 200.982 185.5 209.648 185.5 219.148ZM118.5 266.398C128.167 266.398 137 264.315 145 260.148C152.833 255.815 159.083 250.065 163.75 242.898C168.25 235.732 170.5 227.815 170.5 219.148C170.5 210.482 168.167 202.565 163.5 195.398C158.833 188.232 152.5 182.482 144.5 178.148C136.333 173.815 127.5 171.648 118 171.648C108.333 171.648 99.5 173.815 91.5 178.148C83.5 182.482 77.1667 188.232 72.5 195.398C67.8333 202.565 65.5 210.482 65.5 219.148C65.5 227.815 67.9167 235.732 72.75 242.898C77.5833 249.898 84 255.565 92 259.898C99.8333 264.232 108.667 266.398 118.5 266.398ZM185.5 59.4668C185.5 70.3001 182.667 80.0501 177 88.7168C171.333 97.2168 164.333 103.967 156 108.967H236.25V125.967H52.75V110.717H78C69.8333 105.55 63.25 98.6335 58.25 89.9668C53.0833 81.3001 50.5 72.0501 50.5 62.2168C50.5 53.2168 52.4167 44.9668 56.25 37.4668C59.9167 29.9668 64.9167 23.4668 71.25 17.9668C77.5833 12.4668 84.8333 8.21679 93 5.21679C101 2.05012 109.333 0.466791 118 0.466791C130.167 0.466791 141.417 2.96679 151.75 7.96678C161.917 12.8001 170.083 19.6335 176.25 28.4668C182.417 37.3001 185.5 47.6335 185.5 59.4668ZM170.5 64.2168C170.5 57.0501 169.083 50.6335 166.25 44.9668C163.25 39.3001 159.25 34.4668 154.25 30.4668C149.25 26.3001 143.667 23.1335 137.5 20.9668C131.167 18.8001 124.667 17.7168 118 17.7168C111 17.7168 104.333 18.9668 98 21.4668C91.6667 23.8001 86.0833 27.2168 81.25 31.7168C76.4167 36.2168 72.5833 41.3835 69.75 47.2168C66.9167 53.0501 65.5 59.3835 65.5 66.2168C65.5 70.5501 66.3333 75.0501 68 79.7168C69.6667 84.3835 72.0833 88.8835 75.25 93.2168C78.25 97.3835 81.6667 100.883 85.5 103.717C89.3333 106.55 93.4167 108.3 97.75 108.967H137.75C143.917 106.3 149.5 102.717 154.5 98.2168C159.333 93.7168 163.25 88.5501 166.25 82.7168C169.083 76.7168 170.5 70.5501 170.5 64.2168Z" fill="white" fill-opacity="0.29"/>
</svg>
